<svg width="700" height="700" viewBox="0 0 700 700" fill="none" xmlns="http://www.w3.org/2000/svg">
<g clip-path="url(#clip0_45_6)">
<path d="M700 0H0V700H700V0Z" fill="white"/>
<path d="M342.693 646.181C462.153 646.181 558.993 630.44 558.993 611.023C558.993 591.606 462.153 575.865 342.693 575.865C223.234 575.865 126.393 591.606 126.393 611.023C126.393 630.44 223.234 646.181 342.693 646.181Z" fill="#F5B793"/>
<path d="M202.761 573.521C202.609 573.672 207.126 611.554 197.469 611.799C187.736 612.045 190.702 575.568 189.714 573.635C192.583 573.784 195.801 574.283 202.761 573.521Z" fill="#031547"/>
<path d="M501.316 573.521C501.165 573.672 505.681 611.554 496.024 611.799C486.291 612.045 489.258 575.568 488.268 573.635C491.14 573.784 494.358 574.283 501.316 573.521Z" fill="#031547"/>
<path d="M191.901 249.544L189.713 575.873L502.622 575.012L508.035 245.116L191.901 249.544ZM488.708 561.246L205.981 561.985L207.193 266.437L491.256 262.076L488.708 561.246Z" fill="#82010E"/>
<path d="M495.256 405.915H203.685V419.215H495.256V405.915Z" fill="#82010E"/>
<path d="M341.039 354.635C346.954 347.62 353.185 339.783 353.22 330.607C353.238 325.857 351.568 320.947 353.146 316.464C354.399 312.903 357.468 310.346 359.677 307.286C363.765 301.624 364.808 293.892 362.368 287.35C361.473 284.952 360.118 282.524 360.531 279.997C361.029 276.949 364.029 274.506 363.731 271.433C363.513 269.182 361.549 267.497 359.524 266.49C354.571 264.027 348.366 264.285 343.634 267.148C338.902 270.012 335.797 275.39 335.682 280.92C335.565 286.581 338.342 291.98 338.388 297.643C338.436 303.579 335.509 309.071 332.835 314.37C330.161 319.669 327.601 325.455 328.454 331.33C329.137 336.039 331.986 340.403 331.715 345.155C331.472 349.39 328.847 354.015 331.219 357.531C332.252 359.062 334.165 359.954 336.001 359.759C337.838 359.566 338.485 357.665 341.039 354.635Z" fill="#2789B6"/>
<path d="M328.419 358.404C334.863 354.378 337.163 344.936 333.291 338.398C331.89 336.032 329.837 334.075 328.635 331.603C326.662 327.547 327.253 322.769 327.908 318.305C328.705 312.887 329.487 307.11 327.202 302.133C326.096 299.723 324.327 297.657 323.296 295.214C321.738 291.518 322.013 287.351 321.842 283.345C321.671 279.338 320.827 274.984 317.758 272.401C314.077 269.303 308.08 270.05 304.634 273.407C301.189 276.766 300.147 282.085 301.153 286.789C302.404 292.645 306.403 297.608 307.797 303.432C310.302 313.895 304.021 325.144 307.153 335.439C309.112 341.873 314.591 347.204 314.828 353.927C314.894 355.811 314.555 357.822 315.431 359.492C316.541 361.605 319.309 362.382 321.65 361.913C323.989 361.444 325.959 359.941 328.419 358.404Z" fill="#2789B6"/>
<path d="M310.636 360.489C314.303 357.668 316.726 353.286 317.169 348.681C317.611 344.077 316.065 339.314 313.004 335.846C311.331 333.952 309.229 332.424 307.832 330.317C305.295 326.488 305.535 321.479 306.398 316.968C307.261 312.458 308.659 307.924 308.116 303.363C307.203 295.7 301.134 289.817 295.431 284.616C293.236 282.615 290.738 280.491 287.769 280.515C283.541 280.55 280.626 284.955 279.85 289.11C278.922 294.077 279.945 299.382 282.654 303.647C285.006 307.352 288.614 310.395 289.765 314.63C291.326 320.377 287.876 326.553 289.237 332.35C291.091 340.242 301.003 344.351 302.509 352.317C302.821 353.963 302.736 355.662 302.971 357.322C303.206 358.981 303.841 360.7 305.21 361.668C306.579 362.635 308.493 362.138 310.636 360.489Z" fill="#2789B6"/>
<path d="M287.433 287.042C287.402 292.419 292.424 295.45 294.99 299.649C296.782 302.606 297.359 306.173 297.214 309.575C297.059 316.098 295.137 322.914 297.842 329.088C299.914 333.648 303.702 337.151 305.669 341.874C307.065 344.981 307.877 348.324 308.169 351.688C308.406 355.06 308.104 358.463 307.182 361.683C308.449 355.118 307.57 348.232 304.692 342.329C302.544 337.753 298.794 334.232 296.624 329.641C295.893 328.062 295.456 326.348 295.203 324.639C294.258 314.441 299.474 304.226 291.325 296.101C289.282 293.555 287.049 290.49 287.433 287.042Z" fill="#146185"/>
<path d="M310.709 275.397C307.829 282.733 312.18 289.971 315.594 296.313C317.365 299.603 318.963 303.155 319.386 307.033C319.798 310.953 318.664 314.693 318.069 318.3C315.917 329.529 322.692 340.029 322.552 351.225C322.511 354.984 321.728 358.859 319.62 361.987C325.205 351.471 319.134 340.077 317.022 329.445C316.27 325.751 316.007 321.836 316.69 318.062C317.36 314.339 318.468 310.752 318.119 307.154C317.05 296.435 305.523 286.601 310.709 275.397Z" fill="#146185"/>
<path d="M354.064 269.244C348.573 272.353 345.818 279.355 347.77 285.292C348.417 287.23 349.531 289.009 350.494 290.913C352.953 295.054 352.414 299.487 349.724 303.355C346.378 308.664 342.896 313.929 341.652 320.104C340.414 326.325 342.052 332.605 341.127 338.953C340.564 343.19 339.279 347.325 337.298 351.089C335.289 354.833 332.679 358.256 329.501 361.033C335.427 355.047 339.228 347.091 340.057 338.829C340.501 334.704 340.003 330.537 339.899 326.278C339.259 317.53 343.951 309.618 348.643 302.684C349.738 300.937 350.72 299.102 350.899 297.15C351.233 292.964 348.095 289.496 346.931 285.558C345.02 279.353 348.25 271.989 354.064 269.244Z" fill="#146185"/>
<path d="M294.596 299.074C290.214 299.648 285.793 298.799 281.919 296.678L281.938 296.54C284.077 296.79 286.21 297.104 288.333 297.482C290.447 297.905 292.547 298.39 294.63 298.938L294.596 299.074Z" fill="#146185"/>
<path d="M297.122 306.937C293.985 307.516 290.896 306.848 288.014 305.651C287.067 305.238 286.142 304.745 285.272 304.024L285.306 303.888C288.275 304.55 294.218 306.011 297.156 306.8L297.122 306.937Z" fill="#146185"/>
<path d="M295.838 313.634C293.901 314.402 292.062 313.852 290.843 312.168L290.858 312.029C291.736 312.102 292.61 312.253 293.464 312.48C294.307 312.75 295.123 313.096 295.9 313.509L295.838 313.634Z" fill="#146185"/>
<path d="M295.782 321.416C293.971 322.325 292.153 321.866 290.968 320.228L290.979 320.088C291.816 320.131 292.652 320.243 293.474 320.421C294.286 320.645 295.077 320.935 295.837 321.286L295.782 321.416Z" fill="#146185"/>
<path d="M297.499 328.821C295.9 329.864 294.064 329.846 292.393 329.126C291.859 328.884 291.336 328.56 290.842 328.003L290.858 327.865C292.526 328.003 295.865 328.412 297.517 328.681L297.499 328.821Z" fill="#146185"/>
<path d="M302.819 338.314C299.264 338.612 295.901 337.863 292.793 336.116L292.8 335.976C294.526 336.036 296.248 336.242 297.944 336.591C299.629 336.983 301.28 337.518 302.872 338.184L302.819 338.314Z" fill="#146185"/>
<path d="M306.769 346.556C303.885 347.087 301.02 346.137 299.002 344.015L299.034 343.879C300.369 344.177 301.693 344.529 303.001 344.932C304.294 345.379 305.57 345.878 306.823 346.427L306.769 346.556Z" fill="#146185"/>
<path d="M308.368 355.078C306.989 356.635 304.394 355.825 304.125 353.77L304.193 353.648C305.507 354.305 306.925 354.742 308.381 354.939L308.368 355.078Z" fill="#146185"/>
<path d="M296.001 287.379C297.094 290.318 296.771 293.49 295.754 296.377C295.4 297.329 294.948 298.259 294.252 299.118L294.115 299.087C295.035 295.316 295.261 290.927 296.001 287.379Z" fill="#146185"/>
<path d="M301.7 293.798C302.364 297.378 301.409 301.008 299.716 304.151C299.135 305.19 298.449 306.18 297.527 307.04L297.399 306.982C299.338 302.84 300.437 297.905 301.7 293.798Z" fill="#146185"/>
<path d="M305.971 304.494C304.872 307.923 302.533 310.696 299.788 312.922C298.864 313.646 297.872 314.303 296.71 314.777L296.611 314.679C299.851 311.51 302.915 307.483 305.971 304.494Z" fill="#146185"/>
<path d="M305.976 314.49C304.44 317.034 302.028 318.71 299.368 319.862C298.483 320.226 297.553 320.52 296.495 320.617L296.419 320.499C298.746 318.917 303.502 315.844 305.9 314.373L305.976 314.49Z" fill="#146185"/>
<path d="M305.161 320.723C304.151 323.561 302.105 325.727 299.709 327.433C298.908 327.982 298.049 328.471 297.024 328.794L296.926 328.695C298.907 326.635 302.988 322.588 305.063 320.624L305.161 320.723Z" fill="#146185"/>
<path d="M306.793 330.854C306.851 333.192 305.78 335.215 304.21 336.833C303.687 337.352 303.092 337.828 302.298 338.181L302.179 338.108C303.243 336.246 305.498 332.571 306.674 330.779L306.793 330.854Z" fill="#146185"/>
<path d="M310.131 340.578C310.643 342.472 309.928 344.302 308.592 345.608C308.151 346.024 307.632 346.391 306.914 346.618L306.795 346.543C307.931 344.571 309.001 342.563 310.003 340.521L310.131 340.578Z" fill="#146185"/>
<path d="M312.073 350.069C312.094 351.987 311.223 353.532 309.837 354.731C309.385 355.106 308.869 355.445 308.154 355.68L308.034 355.608C309.154 353.608 310.47 351.722 311.963 349.982L312.073 350.069Z" fill="#146185"/>
<path d="M306.036 326.983C311.164 335.667 314.111 345.741 314.448 355.823C312.171 345.975 309.417 336.508 306.036 326.983Z" fill="#146185"/>
<path d="M328.555 330.889C333.365 338.579 333.714 349.166 329.402 357.148C331.787 348.4 331.507 339.465 328.555 330.889Z" fill="#146185"/>
<path d="M317.169 275.233C316.907 278.645 315.79 281.718 314.415 284.791C313.946 285.793 313.428 286.79 312.708 287.769L312.571 287.739C313.536 283.524 314.878 278.656 317.169 275.233Z" fill="#146185"/>
<path d="M319.269 282.008C319.518 285.739 318.357 289.328 316.61 292.564C316.012 293.629 315.325 294.657 314.411 295.579L314.28 295.526C316.155 291.189 317.526 286.118 319.269 282.008Z" fill="#146185"/>
<path d="M321.296 294.696C321.765 297.436 321.019 300.075 319.736 302.457C319.299 303.233 318.783 303.983 318.044 304.661L317.911 304.618C318.658 302.113 320.289 297.115 321.163 294.652L321.296 294.696Z" fill="#146185"/>
<path d="M324.422 302.961C324.061 306.52 322.493 309.708 320.473 312.584C319.787 313.524 319.028 314.427 318.062 315.223L317.937 315.158C319.465 312.071 322.654 305.921 324.297 302.897L324.422 302.961Z" fill="#146185"/>
<path d="M324.904 312.676C323.828 317.681 321.363 322.274 317.814 325.961L317.688 325.9C318.748 323.623 319.861 321.369 321.024 319.14C322.228 316.933 323.483 314.755 324.785 312.606L324.904 312.676Z" fill="#146185"/>
<path d="M325.342 324.25C324.282 328.734 321.971 332.769 318.667 335.976L318.539 335.916C319.484 333.869 320.506 331.857 321.602 329.885C322.738 327.935 323.947 326.029 325.226 324.173L325.342 324.25Z" fill="#146185"/>
<path d="M327.964 335.073C327.571 338.61 325.975 341.762 323.929 344.599C323.236 345.526 322.469 346.415 321.496 347.193L321.373 347.127C322.927 344.075 326.171 337.996 327.841 335.007L327.964 335.073Z" fill="#146185"/>
<path d="M328.836 345.703C327.499 349.012 325.448 351.744 323.165 354.416C322.399 355.282 321.588 356.129 320.593 356.902L320.471 356.833C322.711 352.902 325.52 348.468 328.836 345.703Z" fill="#146185"/>
<path d="M310.985 289.498C308.514 288.782 306.586 287.434 304.716 285.771C304.119 285.219 303.537 284.621 303.005 283.828L303.065 283.702C305.794 284.985 309.422 287.144 310.985 289.498Z" fill="#146185"/>
<path d="M313.361 295.684C310.678 296.206 308.038 295.236 306.309 293.126L306.345 292.991C307.563 293.297 308.77 293.654 309.959 294.06C311.133 294.51 312.287 295.011 313.418 295.557L313.361 295.684Z" fill="#146185"/>
<path d="M317.46 304.028C314.478 303.934 311.822 302.649 309.501 300.891C308.746 300.296 308.029 299.628 307.422 298.753L307.488 298.628C310.02 299.884 315.055 302.53 317.526 303.904L317.46 304.028Z" fill="#146185"/>
<path d="M317.743 315.221C314.831 313.846 312.647 311.672 311.23 308.784L311.308 308.668C312.596 309.519 313.807 310.488 314.924 311.559C316.009 312.662 316.992 313.863 317.857 315.141L317.743 315.221Z" fill="#146185"/>
<path d="M317.239 325.335C314.084 324.84 311.395 322.95 309.833 320.17L309.904 320.05C311.214 320.8 312.498 321.598 313.751 322.444C314.978 323.327 316.17 324.255 317.327 325.227L317.239 325.335Z" fill="#146185"/>
<path d="M318.518 335.276C314.992 334.309 312.014 332.193 309.912 329.204L309.981 329.081C311.536 329.914 313.047 330.833 314.503 331.832C315.934 332.87 317.306 333.984 318.611 335.17L318.518 335.276Z" fill="#146185"/>
<path d="M321.747 346.696C317.846 345.475 314.53 342.91 312.337 339.463L312.417 339.347C314.066 340.446 315.686 341.591 317.271 342.781C318.829 344.008 320.352 345.278 321.838 346.589L321.747 346.696Z" fill="#146185"/>
<path d="M321.28 357.533C318.349 355.746 316.217 353.195 314.944 350.007L315.035 349.901C316.306 350.959 317.492 352.124 318.578 353.377C319.63 354.659 320.573 356.027 321.401 357.461L321.28 357.533Z" fill="#146185"/>
<path d="M347.896 286.548C344.873 285.18 342.595 282.805 340.777 280.11C340.192 279.207 339.667 278.25 339.315 277.134L339.419 277.04C341.607 279.342 345.911 284.064 347.999 286.454L347.896 286.548Z" fill="#146185"/>
<path d="M350.683 299.034C347.312 297.627 344.644 295.168 342.399 292.363C341.671 291.421 341.001 290.42 340.493 289.25L340.589 289.149C343.175 291.54 348.286 296.447 350.778 298.934L350.683 299.034Z" fill="#146185"/>
<path d="M346.849 306.314C343.588 304.974 341.048 302.443 339.669 299.202L339.759 299.094C341.071 300.161 342.338 301.284 343.556 302.459C344.742 303.665 345.876 304.923 346.955 306.223L346.849 306.314Z" fill="#146185"/>
<path d="M343.014 313.296C340.627 313.282 338.688 311.489 338.458 309.118L338.554 309.015C339.734 310.007 342.019 312.102 343.109 313.192L343.014 313.296Z" fill="#146185"/>
<path d="M341.148 323.61C338.558 322.953 336.65 321.007 336.013 318.417L336.102 318.31C337.057 319.075 337.975 319.889 338.853 320.743C339.699 321.63 340.501 322.559 341.256 323.522L341.148 323.61Z" fill="#146185"/>
<path d="M340.991 335.109C338.064 333.774 335.721 331.867 333.375 329.75C332.619 329.043 331.876 328.3 331.19 327.37L331.255 327.247C334.813 329.192 338.824 331.912 340.991 335.109Z" fill="#146185"/>
<path d="M339.319 345.017C336.461 343.557 334.398 341.135 332.819 338.419C332.314 337.512 331.871 336.553 331.614 335.446L331.723 335.357C333.696 337.702 337.561 342.502 339.429 344.929L339.319 345.017Z" fill="#146185"/>
<path d="M335.978 352.08C333.686 351.361 332.224 349.413 332.14 347.018L332.242 346.923C332.986 347.687 333.69 348.489 334.354 349.327C334.981 350.192 335.562 351.086 336.098 352.009L335.978 352.08Z" fill="#146185"/>
<path d="M347.584 286.297C348.904 282.219 351.432 278.8 354.165 275.584C355.09 274.536 356.072 273.519 357.245 272.616L357.363 272.692C354.831 276.835 350.665 282.454 347.698 286.378L347.584 286.297Z" fill="#146185"/>
<path d="M358.758 286.72C358.221 289.92 356.279 292.538 354.092 294.801C353.357 295.533 352.568 296.23 351.588 296.818L351.47 296.741C353.728 293.392 356.294 289.603 358.758 286.72Z" fill="#146185"/>
<path d="M359.73 300.823C357.088 303.042 354.092 304.417 350.918 305.62C349.867 305.998 348.788 306.337 347.578 306.521L347.502 306.404C351.205 304.095 355.648 301.609 359.73 300.823Z" fill="#146185"/>
<path d="M354.302 310.64C351.18 312.836 347.476 313.851 343.671 313.59L343.62 313.46C345.337 312.778 347.085 312.178 348.86 311.661C350.647 311.189 352.456 310.803 354.277 310.502L354.302 310.64Z" fill="#146185"/>
<path d="M351.053 317.925C348.727 320.681 345.433 322.361 341.842 322.661L341.769 322.54C343.238 321.625 344.74 320.76 346.27 319.948C347.822 319.175 349.399 318.458 350.998 317.796L351.053 317.925Z" fill="#146185"/>
<path d="M350.584 326.264C349.496 329.262 347.06 331.476 344.292 332.896C343.364 333.352 342.376 333.716 341.265 333.845L341.19 333.728C344.516 331.504 347.631 328.97 350.484 326.166L350.584 326.264Z" fill="#146185"/>
<path d="M349.461 337.393C348.097 340.17 345.772 342.163 343.148 343.666C342.272 344.146 341.345 344.564 340.27 344.797L340.182 344.688C342.432 342.791 347.04 339.077 349.373 337.284L349.461 337.393Z" fill="#146185"/>
<path d="M344.266 348.001C342.549 350.372 340.036 351.807 337.322 352.693C336.421 352.969 335.482 353.171 334.433 353.167L334.369 353.042C336.79 351.697 341.72 349.105 344.201 347.876L344.266 348.001Z" fill="#146185"/>
<path d="M345.797 352.825C331.054 352.892 316.316 353.931 301.41 356.076C301.284 357.591 301.595 374.742 301.595 377.352C301.595 378.729 301.238 392.199 305.519 397.909C310.689 404.804 320.39 406.725 328.937 405.622C333.725 405.003 338.661 403.453 341.893 399.864C345.962 395.342 346.429 388.728 346.686 382.649C347.042 374.245 347.397 365.841 345.797 352.825Z" fill="#031547"/>
<path d="M281.429 320.604C281.182 324.864 280.934 329.126 280.687 333.386C262.583 332.935 244.479 332.485 226.374 332.034C223.776 331.969 221.074 331.881 218.774 330.802C216.474 329.722 214.722 327.337 215.446 325.111C216.328 322.403 220.03 321.465 223.161 321.062C241.92 318.655 260.995 319.69 281.429 320.604Z" fill="#FFE2C0"/>
<path d="M224.766 318.192C222.531 318.234 220.272 318.28 218.113 318.854C215.954 319.428 213.871 320.593 212.632 322.452C211.221 324.57 211.074 327.295 211.39 329.819C211.635 331.772 212.204 333.823 213.693 335.111C215.404 336.589 217.868 336.699 220.128 336.735C240.939 337.063 261.75 337.392 282.561 337.721C282.563 335.587 282.565 333.453 282.568 331.32C262.637 330.939 242.707 330.558 222.776 330.177C221.728 330.158 220.651 330.133 219.677 329.743C218.702 329.354 217.836 328.518 217.72 327.475C217.589 326.292 218.466 325.184 219.534 324.661C220.602 324.138 221.83 324.073 223.017 324.019C242.313 323.121 263.053 321.875 282.335 323.037C282.274 321.125 282.213 319.561 282.153 317.649C281.089 317.733 241.99 317.866 224.766 318.192Z" fill="#DF2600"/>
<path d="M287.934 371.147C287.654 380.891 287.375 390.636 287.095 400.38C266.659 399.35 246.224 398.32 225.789 397.289C222.856 397.141 219.806 396.941 217.209 394.472C214.612 392.006 212.635 386.547 213.452 381.458C214.448 375.264 218.627 373.118 222.16 372.2C243.335 366.691 264.867 369.057 287.934 371.147Z" fill="#FFE2C0"/>
<path d="M224.323 362.706C221.802 362.803 219.251 362.908 216.814 364.221C214.376 365.534 212.026 368.199 210.626 372.45C209.033 377.293 208.867 383.524 209.224 389.301C209.5 393.77 210.143 398.46 211.824 401.404C213.755 404.785 216.537 405.832 219.087 405.913C242.578 406.664 266.419 405.163 289.909 405.913C289.912 401.034 289.565 402.335 289.566 397.454C267.07 396.584 246.323 398.325 223.826 397.454C216.182 397.159 216.369 386.403 216.369 383.937C216.369 376.097 220.455 374.301 222.699 373.582C225.28 372.753 282.814 373.558 289.306 373.787C289.237 369.412 289.169 365.838 289.1 361.463C287.9 361.655 243.765 361.959 224.323 362.706Z" fill="#001A7F"/>
<path d="M281.429 341.908C281.182 347.848 280.934 353.788 280.687 359.729C262.583 359.1 244.479 358.471 226.374 357.844C223.776 357.755 221.074 357.631 218.774 356.128C216.474 354.624 214.722 351.296 215.446 348.194C216.328 344.418 220.03 343.111 223.161 342.549C241.92 339.191 260.995 340.633 281.429 341.908Z" fill="#FFE2C0"/>
<path d="M281.429 343.983C262.613 342.287 237.138 342.941 218.313 344.546C216.006 344.743 216.51 352.687 218.141 355.811C238.753 356.901 261.955 356.537 282.566 355.419C281.645 357.752 282.502 360.622 282.566 363.129C262.748 363.177 239.095 363.223 219.276 363.269C217.549 363.273 215.65 363.216 214.362 362.064C213.5 361.292 213.072 360.158 212.734 359.052C211.47 354.907 211.074 350.5 211.576 346.196C211.772 344.519 211.813 340.292 213.03 339.122C214.684 337.532 217.832 336.662 220.126 336.736C240.899 337.404 255.053 336.837 282.559 337.722C282.454 338.015 281.581 343.921 281.429 343.983Z" fill="#FF8900"/>
<path d="M461.1 437.923H373.25V493.415H461.1V437.923Z" fill="#FFE2C0"/>
<path d="M463.66 437.923H371.26V459.084H463.66V437.923Z" fill="#FFE2C0"/>
<path d="M402.206 468.794C413.357 468.055 424.551 467.94 435.715 468.45C435.936 473.543 436.156 478.635 436.377 483.728L401.782 482.373L402.206 468.794Z" fill="white"/>
<path d="M432.935 471.226H404.585V480.676H432.935V471.226Z" fill="#FFE2C0"/>
<path d="M407.207 478.437C407.66 476.878 407.992 475.163 408.772 473.742C409.065 473.031 410.186 473.332 410.098 474.082C410.049 475.145 410.543 476.297 411.376 476.645C411.979 476.986 413.277 476.378 413.144 475.642C413.076 475.262 413.328 474.9 413.707 474.831C414.051 474.769 414.382 474.971 414.491 475.29C414.807 476.147 415.772 476.804 416.686 476.781C417.612 476.781 418.572 476.087 418.856 475.205C419.096 474.433 420.309 474.709 420.204 475.499C420.232 476.018 420.972 476.283 421.554 476.213C423.283 475.987 425.558 475.458 427.343 476.123C428.298 476.413 429.215 476.784 430.053 477.28C428.616 477.077 427.231 477.145 425.83 477.231C424.34 477.117 423.23 477.417 421.639 477.61C420.605 477.737 418.855 477.179 418.806 475.444L420.165 475.706C419.063 478.905 414.362 478.961 413.185 475.79L414.532 475.439C414.729 477.446 412.509 478.632 410.813 477.925C409.298 477.238 408.652 475.566 408.701 474.026L410.026 474.366C409.356 475.846 408.181 477.138 407.207 478.437Z" fill="#FF8900"/>
<path d="M374.048 458.784C388.158 456.989 403.098 457.352 417.28 457.125C431.462 457.223 446.401 456.761 460.524 458.42L449.701 458.826C439.207 458.606 427.718 458.465 417.285 458.525C403.103 458.405 388.235 459.459 374.048 458.784Z" fill="#BF9E78"/>
<path d="M474.349 493.415H363.749V511.584H474.349V493.415Z" fill="#FF8900"/>
<path d="M370.276 497.039C392.967 496.631 415.67 496.88 438.347 497.784L438.087 508.902L370.096 508.173L370.276 497.039Z" stroke="#FFE2C0" stroke-miterlimit="10" stroke-linecap="round" stroke-linejoin="round"/>
<path d="M433.937 500.394C434.288 500.605 434.556 500.844 434.823 501.087C435.123 502.52 435.375 503.992 435.522 505.446L435.604 506.325C435.415 506.636 435.231 506.943 434.967 507.248C434.669 506.976 434.444 506.705 434.209 506.439C434.137 505.614 434.039 504.714 433.915 503.901C433.84 502.678 433.062 501.48 433.937 500.394Z" fill="#FFE2C0"/>
<path d="M430.525 501.403C430.839 501.525 431.067 501.658 431.298 501.792C431.333 502.124 431.463 502.931 431.511 503.272C431.557 503.597 431.686 504.437 431.731 504.751C431.544 504.947 431.365 505.141 431.112 505.347C430.809 505.224 430.581 505.089 430.346 504.956C430.298 504.647 430.175 503.799 430.126 503.478C430.073 503.134 429.964 502.331 429.899 502C430.081 501.805 430.262 501.61 430.525 501.403Z" fill="#FFE2C0"/>
<path d="M467.995 499.947C465.248 497.942 461.255 500.588 462.228 503.846C462.343 504.231 462.511 504.599 462.734 504.939C463.851 506.64 466.404 507.3 468.079 506.142C469.69 505.028 470.03 502.536 468.933 500.914C468.678 500.538 468.362 500.215 467.995 499.947Z" stroke="#FFE2C0" stroke-miterlimit="10" stroke-linecap="round" stroke-linejoin="round"/>
<path d="M478.584 511.585H365.184V532.013H478.584V511.585Z" fill="#001A7F"/>
<path d="M373.681 517.013C374.861 518.601 374.361 520.601 374.787 522.437C374.973 523.737 375.285 525.155 375.614 526.434C375.353 528.171 375.4 528.198 374.262 526.793L373.925 525.421C373.4 523.142 373.11 520.765 373.001 518.426C373.194 517.948 373.391 517.475 373.681 517.013Z" fill="#FFE2C0"/>
<path d="M376.853 517.143C377.492 517.677 377.758 518.235 377.728 519.039L377.906 520.997C377.962 521.643 378.118 523.312 378.174 523.936C377.992 524.282 377.815 524.626 377.566 524.979C377.257 524.678 377.021 524.37 376.779 524.063C376.722 523.447 376.572 521.765 376.512 521.125L376.334 519.166C376.162 518.382 376.321 517.782 376.853 517.143Z" fill="#FFE2C0"/>
<path d="M470.247 517.689C470.488 518.176 470.645 518.655 470.803 519.134L470.649 520.502L470.355 523.239L470.061 525.976L469.914 527.345C469.654 527.779 469.399 528.213 469.071 528.639C468.842 528.153 468.685 527.674 468.523 527.195L468.67 525.826L468.964 523.089L469.258 520.352L469.398 518.983C469.654 518.547 469.907 518.113 470.247 517.689Z" fill="#FFE2C0"/>
<path d="M465.49 519.226C466.005 519.61 466.284 519.931 466.161 520.554L466.131 521.865C466.12 522.297 466.098 523.415 466.087 523.832C465.868 524.047 465.657 524.259 465.373 524.472C465.097 524.247 464.895 524.024 464.688 523.8C464.695 523.387 464.724 522.262 464.733 521.833L464.762 520.521C464.666 519.896 464.958 519.585 465.49 519.226Z" fill="#FFE2C0"/>
<path d="M482.042 532.013H361.992V561.264H482.042V532.013Z" fill="#FEAF37"/>
<path d="M457.794 540.053C462.687 539.392 467.579 538.731 472.472 538.069C472.524 544.016 472.577 549.962 472.629 555.909C467.754 555.081 462.78 554.83 457.846 555.164C457.66 549.934 457.472 544.705 457.794 540.053Z" stroke="#FFE2C0" stroke-miterlimit="10" stroke-linecap="round" stroke-linejoin="round"/>
<path d="M374.514 542.195C375.532 545.365 376.352 548.691 376.74 552.001L375.404 551.834L377.163 547.694C377.66 546.633 377.969 545.387 378.903 544.492C380.237 543.168 382.192 544.247 382.568 545.87C382.812 546.746 382.791 547.498 382.978 548.072C383.254 549.132 384.665 549.765 385.767 549.446C387.646 549.009 387.598 545.299 389.694 544.414C392.043 543.203 393.299 545.345 393.456 547.278C393.686 549.616 395.969 550.612 397.649 548.832C396.362 551.554 392.277 550.426 392.083 547.547C391.863 546.352 391.714 545.008 390.363 545.643C388.464 546.835 388.783 550.231 386.135 550.797C384.328 551.287 382.197 550.346 381.64 548.485C381.384 547.62 381.401 546.839 381.226 546.27C380.177 543.622 378.934 547.026 378.449 548.24L376.691 552.38C376.54 552.736 376.128 552.902 375.773 552.751C375.542 552.653 375.39 552.444 375.354 552.213C374.731 548.94 374.499 545.527 374.514 542.195Z" fill="#FFE2C0"/>
<path d="M402.452 545.822C404.013 549.226 408.874 548.319 409.172 544.814C409.182 544.413 409.535 544.1 409.935 544.138C410.787 544.177 411.432 545.006 411.587 545.737C411.914 546.791 411.502 547.89 411.895 548.787C412.45 550.185 415.976 545.482 416.455 544.797C416.741 544.358 417.444 544.415 417.661 544.887C419.016 547.767 423.016 548.716 425.503 546.673C426.506 546.018 426.804 544.656 428.144 544.328C429.01 544.082 429.878 545.04 430.318 545.353C431.498 546.167 433.285 546.122 434.406 545.255C434.553 545.142 434.738 545.097 434.909 545.114C437.891 545.339 441.064 546.167 443.974 546.798C441.001 546.791 437.72 546.925 434.759 546.505L435.26 546.364C433.591 547.613 431.255 547.656 429.537 546.514C429.096 546.223 428.743 545.831 428.562 545.744C428.397 545.679 428.415 545.66 428.163 545.846C425.355 550.223 418.912 550.402 416.403 545.5L417.609 545.59C416.172 547.438 414.953 549.339 412.762 550.413C410.998 550.931 410.155 548.855 410.311 547.493C410.334 546.816 410.4 545.715 409.811 545.531L410.572 544.855C410.539 545.932 410.08 546.938 409.388 547.704C407.38 550.304 402.861 548.771 402.452 545.822Z" fill="#FFE2C0"/>
<path d="M369.53 472.525L356.151 468.526L329.52 557.615L342.899 561.614L369.53 472.525Z" fill="#FEAF37"/>
<path d="M332.723 550.483C333.271 550.302 333.809 550.211 334.349 550.125C336.791 550.727 339.247 551.462 341.593 552.356L343.004 552.91C344.35 554.246 344.385 554.219 342.475 554.207C341.139 553.671 339.664 553.121 338.3 552.689C336.419 551.922 334.2 552.014 332.723 550.483Z" fill="#FFE2C0"/>
<path d="M333.795 545.997C335.951 545.737 337.688 547.18 339.709 547.702C341.092 548.181 342.656 548.608 344.086 548.95C345.673 550.033 345.72 550.005 343.77 550.313L342.252 549.935C339.748 549.276 337.26 548.36 334.893 547.303C334.506 546.896 334.127 546.486 333.795 545.997Z" fill="#FFE2C0"/>
<path d="M353.606 479.545C354.18 479.426 354.726 479.388 355.275 479.347L356.721 479.829L359.618 480.778L362.515 481.727L363.962 482.202C364.378 482.562 364.797 482.917 365.193 483.342C364.623 483.449 364.076 483.489 363.527 483.532L362.079 483.057L359.183 482.108L356.286 481.159L354.836 480.691C354.417 480.334 353.998 479.98 353.606 479.545Z" fill="#FFE2C0"/>
<path d="M354.064 475.656C354.694 475.553 355.299 475.532 355.902 475.509L357.521 476.041L360.762 477.092L364.003 478.143L365.624 478.67C366.099 479.048 366.575 479.419 367.028 479.861C366.401 479.954 365.798 479.975 365.191 480.001L363.57 479.475L360.329 478.423L357.088 477.372L355.466 476.853C354.991 476.48 354.514 476.109 354.064 475.656Z" fill="#FFE2C0"/>
<path d="M302.639 471.567L290.009 475.724L318.465 562.165L331.095 558.007L302.639 471.567Z" fill="#001A7F"/>
<path d="M293.72 481.278C296.24 479.987 298.76 478.697 301.28 477.407C302.1 478.366 302.61 479.587 302.715 480.844C300.111 481.221 297.608 482.281 295.525 483.888C295.107 483.256 294.692 482.625 293.72 481.278Z" fill="#FFE2C0"/>
<path d="M296.36 486.874C296.535 486.136 296.848 485.702 297.539 485.452L299.047 484.646C299.544 484.383 300.828 483.694 301.309 483.44C301.661 483.493 302.009 483.542 302.393 483.655C302.274 484.037 302.12 484.354 301.969 484.676C301.494 484.931 300.198 485.619 299.706 485.883L298.199 486.688C297.606 487.122 297.069 487.14 296.36 486.874Z" fill="#FFE2C0"/>
<path d="M289.979 466.085H270.379V561.985H289.979V466.085Z" fill="#031547"/>
<path d="M275.279 527.335V500.735C275.279 498.029 277.473 495.835 280.179 495.835C282.885 495.835 285.079 498.029 285.079 500.735V527.335C285.079 530.041 282.885 532.235 280.179 532.235C277.473 532.235 275.279 530.041 275.279 527.335Z" fill="#FFE2C0"/>
<path d="M273.812 555.89C278.065 556.032 282.317 556.175 286.57 556.318" stroke="#FFE2C0" stroke-miterlimit="10"/>
<path d="M270.379 464.685H250.779V561.985H270.379V464.685Z" fill="#DF2600"/>
<path d="M253.133 471.74C257.573 471.309 262.044 471.164 266.503 471.307L266.65 555.764L253.889 556.111L253.133 471.74Z" stroke="#FFE2C0" stroke-miterlimit="10"/>
<path d="M250.779 461.185H233.979V561.985H250.779V461.185Z" fill="#001A7F"/>
<path d="M236.225 468.766C236.631 468.453 237.04 468.226 237.45 467.995L238.711 467.936L241.234 467.806C242.064 467.765 244.213 467.65 245.018 467.61C245.449 467.8 245.881 467.985 246.316 468.244C245.91 468.546 245.5 468.775 245.091 469.008C244.297 469.052 242.131 469.16 241.307 469.204L238.784 469.335L237.523 469.407C237.091 469.22 236.66 469.036 236.225 468.766Z" fill="#FFE2C0"/>
<path d="M236.771 555.716C238.623 554.781 240.622 555.635 242.595 555.591C243.979 555.673 245.514 555.696 246.908 555.688C248.605 556.375 248.643 556.336 246.922 557.088L245.454 557.087C243.023 557.066 240.545 556.884 238.127 556.609C237.667 556.342 237.21 556.073 236.771 555.716Z" fill="#FFE2C0"/>
<path d="M238.804 474.51C238.395 476.826 238.637 479.254 239.495 481.443C239.903 482.481 240.772 483.63 241.86 483.386C242.788 483.178 243.184 482.084 243.333 481.144C243.59 479.51 243.582 477.834 243.306 476.203C243.169 475.387 242.917 474.509 242.238 474.036C241.557 473.563 240.366 473.841 238.804 474.51Z" stroke="#FFE2C0" stroke-miterlimit="10"/>
<path d="M238.36 488.288C238.928 487.728 239.47 487.522 240.23 487.652L242.077 487.715C242.684 487.739 244.258 487.789 244.846 487.81C245.147 488.034 245.447 488.251 245.745 488.543C245.427 488.813 245.112 489.009 244.797 489.21C244.216 489.192 242.63 489.135 242.028 489.115L240.181 489.051C239.415 489.128 238.886 488.886 238.36 488.288Z" fill="#FFE2C0"/>
<path d="M233.979 459.085H219.979V561.985H233.979V459.085Z" fill="#FEAF37"/>
<path d="M227.296 468.462C225.838 469.319 224.379 470.176 222.922 471.031C224.392 471.993 225.861 472.955 227.331 473.917C225.87 474.027 224.629 475.422 224.687 476.885C224.746 478.348 226.097 479.639 227.562 479.63C226.685 479.562 225.912 480.304 225.641 481.138C225.369 481.974 225.48 482.878 225.595 483.75C225.939 486.387 226.283 489.023 226.629 491.659C225.669 494.61 225.845 497.917 227.116 500.749" stroke="#FFE2C0" stroke-miterlimit="10"/>
<path d="M223.248 549.847C223.817 549.326 224.332 549.142 225.057 549.315L226.801 549.479C227.375 549.535 228.861 549.672 229.417 549.725C229.687 549.965 229.958 550.197 230.223 550.505C229.907 550.757 229.596 550.935 229.285 551.12C228.736 551.069 227.238 550.925 226.67 550.873L224.927 550.71C224.182 550.743 223.707 550.465 223.248 549.847Z" fill="#FFE2C0"/>
<path d="M223.643 554.058C224.203 553.567 224.692 553.392 225.385 553.595L227.03 553.825C227.571 553.903 228.973 554.095 229.496 554.17C229.741 554.42 229.986 554.663 230.222 554.978C229.908 555.218 229.606 555.384 229.302 555.556C228.784 555.485 227.371 555.285 226.834 555.211L225.189 554.98C224.469 554.987 224.045 554.684 223.643 554.058Z" fill="#FFE2C0"/>
<path d="M219.981 447.313H205.981V561.984H219.981V447.313Z" fill="#FF8900"/>
<path d="M215.974 462.477C214.658 459.187 213.342 455.897 212.006 452.302C210.283 455.907 209.101 459.771 208.513 463.723C210.659 466.253 212.142 469.34 212.776 472.595C213.577 468.979 214.752 465.445 215.974 462.477Z" fill="#FFE2C0"/>
<path d="M209.563 479.234C210.148 478.666 210.711 478.461 211.49 478.583L213.398 478.632C214.026 478.65 215.653 478.688 216.261 478.706C216.573 478.927 216.887 479.142 217.197 479.43C216.873 479.702 216.549 479.9 216.224 480.105C215.624 480.091 213.984 480.046 213.361 480.031L211.453 479.982C210.672 480.064 210.116 479.832 209.563 479.234Z" fill="#FFE2C0"/>
<path d="M209.43 483.125C209.913 482.601 210.343 482.374 211.021 482.525L212.566 482.623C213.074 482.658 214.393 482.738 214.886 482.772C215.13 483 215.375 483.223 215.614 483.519C215.338 483.783 215.068 483.973 214.796 484.169C214.309 484.14 212.982 484.051 212.477 484.021L210.93 483.923C210.242 483.984 209.84 483.704 209.43 483.125Z" fill="#FFE2C0"/>
<path d="M453.345 317.015H440.745V405.915H453.345V317.015Z" fill="#DF2600"/>
<path d="M441.666 324.867C442.098 324.607 442.523 324.43 442.949 324.253L444.178 324.351L446.639 324.533C447.45 324.594 449.546 324.745 450.331 324.804C450.726 325.046 451.121 325.283 451.51 325.592C451.079 325.842 450.653 326.018 450.227 326.2C449.452 326.144 447.339 325.986 446.536 325.928L444.074 325.746L442.844 325.662C442.45 325.424 442.054 325.188 441.666 324.867Z" fill="#FFE2C0"/>
<path d="M442.21 329.07C442.583 328.79 442.954 328.595 443.325 328.398C444.014 328.426 445.893 328.489 446.607 328.509C447.327 328.534 449.191 328.59 449.889 328.614C450.247 328.838 450.605 329.056 450.961 329.349C450.587 329.617 450.216 329.812 449.845 330.014C449.156 329.994 447.278 329.931 446.564 329.909C445.844 329.883 443.979 329.827 443.282 329.811C442.924 329.591 442.565 329.374 442.21 329.07Z" fill="#FFE2C0"/>
<path d="M445.655 354.471C444.973 359.198 444.742 363.989 444.968 368.758C445.014 369.727 445.2 370.881 446.086 371.276C446.851 371.616 447.782 371.15 448.242 370.451C448.703 369.752 448.811 368.886 448.907 368.054C449.312 364.544 449.715 361.036 450.12 357.526C450.239 356.499 450.353 355.433 450.027 354.452C449.702 353.47 448.805 352.597 447.772 352.651C446.74 352.705 445.728 353.97 445.655 354.471Z" stroke="#FFE2C0" stroke-miterlimit="10"/>
<path d="M491.256 303.097H453.345V405.913H491.256V303.097Z" fill="#FF8900"/>
<path d="M463.823 311.738C461.905 315.088 461.163 319.154 462.063 322.909C462.962 326.663 465.569 330.033 469.098 331.596C472.627 333.159 477.019 332.766 480.056 330.382C483.907 327.359 485.002 321.643 483.351 317.034C482.357 314.257 480.451 311.774 477.901 310.29C475.352 308.809 472.157 308.388 463.823 311.738Z" fill="#FFE2C0"/>
<path d="M461.558 339.716C462.288 339.464 463.014 339.297 463.74 339.129L465.884 339.255L470.17 339.493L474.456 339.73L476.599 339.848C477.302 340.1 478.005 340.345 478.703 340.666C477.974 340.907 477.247 341.073 476.522 341.246L474.379 341.127L470.093 340.889L465.807 340.652L463.663 340.54C462.959 340.292 462.256 340.046 461.558 339.716Z" fill="#FFE2C0"/>
<path d="M452.901 396.232C454.461 395.893 456.022 395.669 457.583 395.394L462.286 395.266L471.689 394.999L481.093 394.731L485.794 394.598C487.368 394.79 488.94 394.926 490.517 395.164C488.957 395.492 487.395 395.717 485.835 395.997L481.132 396.13L471.729 396.397L462.325 396.665L457.624 396.803C456.049 396.617 454.476 396.481 452.901 396.232Z" fill="#FFE2C0"/>
<path d="M459.396 345.409C460.333 345.209 461.262 345.092 462.19 344.977L464.915 345.251L470.365 345.789L475.815 346.326L478.541 346.595C479.426 346.92 480.318 347.189 481.198 347.561C480.262 347.754 479.336 347.844 478.404 347.988L475.678 347.719L470.228 347.182L464.778 346.644L462.052 346.381C461.163 346.086 460.275 345.789 459.396 345.409Z" fill="#FFE2C0"/>
<path d="M441.445 305.815H422.545V405.915H441.445V305.815Z" fill="#FEAF37"/>
<path d="M424.889 390.828C425.446 390.529 426.006 390.313 426.565 390.097L428.25 390.079L431.623 390.03L434.995 389.981L436.681 389.957C437.247 390.162 437.811 390.361 438.378 390.632C437.819 390.921 437.261 391.136 436.702 391.356L435.016 391.38L431.644 391.429L428.271 391.478L426.586 391.509C426.021 391.31 425.456 391.111 424.889 390.828Z" fill="#FFE2C0"/>
<path d="M426.531 395.668C426.936 395.368 427.342 395.154 427.749 394.939L428.98 394.923L431.441 394.877C432.251 394.864 434.347 394.821 435.133 394.808C435.547 395.014 435.96 395.213 436.376 395.486C435.971 395.774 435.565 395.989 435.158 396.208C434.384 396.225 432.27 396.26 431.466 396.277L429.005 396.323L427.774 396.353C427.361 396.151 426.947 395.952 426.531 395.668Z" fill="#FFE2C0"/>
<path d="M430.66 385.526C431.916 385.526 432.935 384.351 432.935 382.901C432.935 381.452 431.916 380.276 430.66 380.276C429.403 380.276 428.385 381.452 428.385 382.901C428.385 384.351 429.403 385.526 430.66 385.526Z" fill="#FFE2C0"/>
<path d="M422.545 317.015H400.145V405.915H422.545V317.015Z" fill="#001A7F"/>
<path d="M404.704 323.082C404.596 324.197 416.851 322.242 418.905 322.938C418.515 326.973 418.911 333.67 418.716 335.084C416.542 334.905 407.277 334.802 405.443 334.478C405.896 332.331 405.012 323.271 404.704 323.082Z" fill="#FFE2C0"/>
<path d="M404.6 337.982C405.164 337.719 405.723 337.54 406.283 337.359L407.931 337.449L411.226 337.614L414.522 337.779L416.17 337.862C416.709 338.103 417.248 338.337 417.782 338.645C417.22 338.897 416.66 339.076 416.1 339.261L414.452 339.178L411.156 339.013L407.861 338.848L406.213 338.772C405.674 338.535 405.135 338.3 404.6 337.982Z" fill="#FFE2C0"/>
<path d="M411.93 387.664C408.897 387.484 406.392 390.002 406.232 393.037C406.176 394.11 406.206 395.179 406.424 395.963C407.07 398.278 409.265 400.35 411.639 399.988C414.023 399.626 415.478 397.062 415.745 394.666C416.009 392.301 415.362 389.701 413.522 388.192C413.113 387.856 412.553 387.701 411.93 387.664Z" stroke="#FFE2C0" stroke-miterlimit="10"/>
<path d="M401.025 339.359L391.601 333.306L348.855 399.861L358.279 405.913L401.025 339.359Z" fill="#031547"/>
<path d="M357.956 397.642C357.685 395.882 357.512 394.122 357.293 392.361C357.193 391.688 358.182 391.429 358.438 392.039C358.593 392.41 358.75 392.764 359.253 392.91C360.732 392.942 360.85 390.996 360.163 389.781C359.985 389.437 360.123 389.012 360.471 388.839C360.706 388.721 360.977 388.751 361.179 388.892C361.477 389.101 361.978 389.096 362.433 388.882C364.015 387.968 364.308 385.795 365.203 384.174C366.324 381.69 367.693 379.289 369.268 377.059C371.228 375.907 372.536 373.449 371.837 371.176L373.202 371.077C373.211 371.014 373.173 370.993 373.216 371.035C373.253 371.069 373.331 371.09 373.349 371.084C373.845 370.947 373.954 370.133 374.051 369.506C374.429 367.01 376.946 365.449 378.801 364.337C377.546 365.655 376.201 367.006 375.731 368.589C375.414 369.526 375.453 370.236 375.05 371.249C374.423 372.884 371.804 372.975 371.816 370.881C371.868 370.495 372.226 370.224 372.611 370.282C372.891 370.324 373.108 370.527 373.181 370.782C373.969 373.556 372.693 376.657 370.18 378.071L370.413 377.861C368.882 380.031 367.571 382.329 366.475 384.754C365.348 387.093 364.185 391.77 360.405 390.055L361.421 389.166C362.065 390.431 362.292 392.188 361.269 393.387C360.254 394.895 357.267 394.492 357.291 392.379L358.568 392.35C358.366 394.118 358.211 395.879 357.956 397.642Z" fill="#FFE2C0"/>
<path d="M388.926 340.474C389.747 340.367 390.335 340.547 390.901 341.113L392.449 342.306C392.958 342.7 394.279 343.714 394.772 344.095C394.901 344.462 395.032 344.824 395.119 345.246C394.689 345.269 394.306 345.234 393.918 345.204C393.429 344.83 392.101 343.802 391.595 343.414L390.047 342.222C389.357 341.818 389.029 341.296 388.926 340.474Z" fill="#FFE2C0"/>
<path d="M386.464 343.249C387.227 343.091 387.775 343.2 388.321 343.721L389.768 344.761C390.243 345.106 391.479 345.989 391.94 346.322C392.057 346.668 392.178 347.01 392.255 347.411C391.85 347.466 391.488 347.46 391.122 347.459C390.666 347.133 389.424 346.237 388.951 345.898L387.503 344.858C386.837 344.506 386.555 344.022 386.464 343.249Z" fill="#FFE2C0"/>
<path d="M409.44 152.039C413.15 146.812 416.92 141.467 418.772 135.332C420.624 129.198 420.253 122.023 416.227 117.037C413.49 113.648 409.408 111.635 405.301 110.18C396.687 107.128 387.363 106.102 378.293 107.206C369.548 108.272 360.266 111.978 356.322 119.854C353.174 126.141 354.164 133.865 357.22 140.199C360.276 146.532 365.169 151.761 369.055 157.373C366.941 184.286 368.068 211.452 371.567 237.271C366.74 238.466 362.134 240.548 358.046 243.38C357.031 244.083 355.925 245.165 356.28 246.348C356.65 247.583 358.261 247.832 359.551 247.843C370.716 247.936 381.886 247.255 394.065 245.29C400.079 231.538 405.523 217.301 407.051 202.37C408.52 187.995 396.948 169.634 409.44 152.039Z" fill="#FFE2C0"/>
<path d="M459.278 243.981C463.247 226.766 459.228 208.284 450.381 192.993C441.535 177.701 428.162 165.397 413.368 155.742C408.209 152.375 401.871 149.199 396.137 151.451C390.83 153.532 388.221 159.46 386.704 164.955C383.194 177.668 382.649 191.19 385.125 204.144C386.721 212.496 389.561 220.717 389.473 229.219C389.448 231.707 389.169 234.206 389.463 236.677C389.757 239.148 381.261 244.024 383.225 245.55C385.364 247.211 397.715 245.055 400.421 245.162C419.28 245.911 438.185 245.518 459.278 243.981Z" fill="#FFE2C0"/>
<path d="M455.675 230.888C462.001 232.31 469.056 229.631 472.844 224.368C476.631 219.106 476.932 211.564 473.574 206.017C471.097 201.925 467.022 199.121 463.392 196.007C455.206 188.985 448.79 179.666 446.253 169.183C443.717 158.7 445.32 147.062 451.528 138.242C454.784 133.615 459.444 129.728 464.976 128.551C470.509 127.373 476.896 129.403 479.844 134.231C483.318 139.917 481.275 147.357 478.124 153.227C474.972 159.097 470.722 164.654 469.778 171.249C468.492 180.235 473.614 188.783 478.783 196.245C483.952 203.707 489.615 211.666 489.605 220.742C489.597 228.894 484.61 236.67 477.55 240.747C470.491 244.824 461.658 245.349 453.888 242.882C453.978 239.109 454.066 235.336 455.675 230.888Z" fill="#FFE2C0"/>
<path d="M381.945 109.264C376.298 100.629 368.81 93.205 360.128 87.6302C356.518 91.1694 354.798 96.2851 354.417 101.326C354.035 106.368 354.865 111.413 355.691 116.4C355.865 117.447 356.108 118.609 356.98 119.216C358.144 120.023 359.726 119.409 360.994 118.779C366.703 115.949 372.414 113.117 381.945 109.264Z" fill="#FFE2C0"/>
<path d="M392.217 109.264C397.865 100.629 405.352 93.205 414.035 87.6302C417.644 91.1694 419.364 96.2851 419.745 101.326C420.127 106.368 419.297 111.413 418.471 116.4C418.298 117.447 418.054 118.609 417.182 119.216C416.018 120.023 414.436 119.409 413.168 118.779C407.459 115.949 401.75 113.117 392.217 109.264Z" fill="#FFE2C0"/>
<mask id="mask0_45_6" style="mask-type:luminance" maskUnits="userSpaceOnUse" x="382" y="150" width="79" height="97">
<path d="M459.278 243.981C463.247 226.766 459.228 208.284 450.381 192.993C441.535 177.701 428.162 165.397 413.368 155.742C408.209 152.375 401.871 149.199 396.137 151.451C390.83 153.532 388.221 159.46 386.704 164.955C383.194 177.668 382.649 191.19 385.125 204.144C386.721 212.496 389.561 220.717 389.473 229.219C389.448 231.707 389.169 234.206 389.463 236.677C389.757 239.148 381.261 244.024 383.225 245.55C385.364 247.211 397.715 245.055 400.421 245.162C419.28 245.911 438.185 245.518 459.278 243.981Z" fill="white"/>
</mask>
<g mask="url(#mask0_45_6)">
<path d="M408.8 152.943C406.795 155.24 404.789 157.664 403.885 160.576C402.98 163.488 403.435 167.031 405.762 169.001C408.275 171.128 412.042 170.836 414.978 172.323C418.782 174.248 420.512 178.731 423.758 181.496C427.231 184.454 432.216 185.255 435.487 188.437C439.064 191.919 439.761 197.394 442.499 201.569C444.494 204.61 447.705 207.322 447.622 210.958C447.548 214.231 444.72 216.965 444.672 220.238C444.601 225.131 450.569 228.318 451.013 233.191C451.202 235.266 450.341 237.429 451.017 239.4C452.082 242.501 456.068 243.212 459.341 243.412C462.533 228.981 461.03 213.552 455.113 200.008C450.531 189.519 443.422 180.258 435.162 172.334C426.901 164.412 417.491 157.774 408.8 152.943Z" fill="#FEAF37"/>
</g>
<mask id="mask1_45_6" style="mask-type:luminance" maskUnits="userSpaceOnUse" x="445" y="128" width="45" height="117">
<path d="M455.675 230.888C462.001 232.31 469.056 229.631 472.844 224.368C476.631 219.106 476.932 211.564 473.574 206.017C471.097 201.925 467.022 199.121 463.392 196.007C455.206 188.985 448.79 179.666 446.253 169.183C443.717 158.7 445.32 147.062 451.528 138.242C454.784 133.615 459.444 129.728 464.976 128.551C470.509 127.373 476.896 129.403 479.844 134.231C483.318 139.917 481.275 147.357 478.124 153.227C474.972 159.097 470.722 164.654 469.778 171.249C468.492 180.235 473.614 188.783 478.783 196.245C483.952 203.707 489.615 211.666 489.605 220.742C489.597 228.894 484.61 236.67 477.55 240.747C470.491 244.824 461.658 245.349 453.888 242.882C453.978 239.109 454.066 235.336 455.675 230.888Z" fill="white"/>
</mask>
<g mask="url(#mask1_45_6)">
<path d="M452.159 132.868C452.414 137.442 457.285 140.224 461.677 141.523C466.068 142.824 471.083 143.818 473.666 147.601C475.71 150.592 476.245 155.246 479.739 156.202C473.739 168.22 472.347 183.138 478.736 194.954C481.711 200.458 486.164 205.01 489.573 210.256C492.982 215.502 495.354 222.023 493.462 227.987C492.22 231.903 489.266 235.088 485.88 237.413C482.493 239.739 478.659 241.31 474.89 242.942C472.073 244.161 469.206 245.442 466.147 245.678C463.088 245.913 459.735 244.887 458.025 242.339C455.697 238.867 457.198 234.13 459.368 230.558C461.539 226.985 464.402 223.549 464.771 219.384C465.115 215.482 463.176 211.777 461.21 208.387C456.782 200.749 451.91 193.353 448.006 185.433C444.101 177.513 441.161 168.949 440.924 160.122C440.689 151.294 443.394 142.153 452.159 132.868Z" fill="#FEAF37"/>
</g>
<mask id="mask2_45_6" style="mask-type:luminance" maskUnits="userSpaceOnUse" x="445" y="128" width="45" height="117">
<path d="M455.675 230.888C462.001 232.31 469.056 229.631 472.844 224.368C476.631 219.106 476.932 211.564 473.574 206.017C471.097 201.925 467.022 199.121 463.392 196.007C455.206 188.985 448.79 179.666 446.253 169.183C443.717 158.7 445.32 147.062 451.528 138.242C454.784 133.615 459.444 129.728 464.976 128.551C470.509 127.373 476.896 129.403 479.844 134.231C483.318 139.917 481.275 147.357 478.124 153.227C474.972 159.097 470.722 164.654 469.778 171.249C468.492 180.235 473.614 188.783 478.783 196.245C483.952 203.707 489.615 211.666 489.605 220.742C489.597 228.894 484.61 236.67 477.55 240.747C470.491 244.824 461.658 245.349 453.888 242.882C453.978 239.109 454.066 235.336 455.675 230.888Z" fill="white"/>
</mask>
<g mask="url(#mask2_45_6)">
<path d="M480.225 158.564C479.797 156.852 478.36 155.551 476.784 154.76C475.206 153.969 473.46 153.591 471.782 153.051C467.204 151.575 463.046 148.823 459.901 145.184C459.897 147.065 460.988 148.802 462.374 150.07C463.761 151.339 465.44 152.233 467.032 153.232C471.152 155.815 474.781 159.176 477.672 163.086C478.412 161.2 479.308 159.376 480.225 158.564Z" fill="#031547"/>
<path d="M444.135 150.821C446.642 149.575 449.698 150.655 452.012 152.23C454.327 153.807 456.348 155.886 458.954 156.911C460.284 157.434 461.72 157.66 463.033 158.225C464.346 158.789 465.592 159.816 465.861 161.22C462.725 158.932 458.163 160.948 454.502 159.657C452.687 159.018 451.258 157.618 449.609 156.625C447.959 155.632 445.74 155.089 444.179 156.216C443.436 154.762 443.512 152.922 444.135 150.821Z" fill="#031547"/>
<path d="M472.325 171.675C471.381 169.586 469.147 168.354 466.915 167.832C464.682 167.31 462.36 167.352 460.092 167.015C457.824 166.677 455.483 165.868 454.058 164.073C454.941 165.757 456.649 166.819 458.277 167.8C462.713 170.471 467.149 173.142 471.584 175.812C471.45 174.383 471.706 172.917 472.325 171.675Z" fill="#031547"/>
<path d="M446.754 170.863C448.389 170.044 450.398 170.54 451.986 171.448C453.573 172.357 454.919 173.643 456.508 174.549C458.706 175.801 461.342 176.266 463.835 175.841C461.919 177.747 459.039 178.553 456.365 178.157C454.765 177.92 453.244 177.292 451.647 177.031C450.05 176.772 448.244 176.957 447.101 178.104C446.59 176.028 446.429 173.866 446.754 170.863Z" fill="#031547"/>
<path d="M472.22 181.083C470.382 183.179 467.565 184.379 464.78 184.253C463.42 184.191 462.067 183.833 460.713 183.967C459.358 184.103 457.92 184.933 457.702 186.277C459.115 185.77 460.681 185.931 462.137 186.291C463.593 186.651 465.003 187.2 466.48 187.466C469.535 188.017 472.662 187.326 475.691 186.638C474.648 185.154 473.605 183.67 472.22 181.083Z" fill="#031547"/>
<path d="M459.721 194.151C460.369 192.919 461.987 192.52 463.364 192.73C464.74 192.94 466 193.605 467.342 193.974C468.684 194.344 470.27 194.357 471.303 193.424C471.563 193.189 471.78 192.901 472.081 192.72C472.382 192.539 472.815 192.504 473.05 192.763C473.316 193.056 473.186 193.528 472.98 193.867C471.668 196.027 468.369 196.209 466.964 198.31C466.54 198.946 466.151 199.831 465.388 199.817C464.992 199.81 464.654 199.538 464.356 199.278C462.592 197.74 460.926 196.095 459.721 194.151Z" fill="#031547"/>
<path d="M479.417 197.161C477.553 197.416 476.378 199.135 474.433 200.71C474.146 200.942 474.375 201.396 474.73 201.299C477.604 200.514 479.854 200.554 483.416 201.95C484.306 196.51 480.515 197.01 479.417 197.161Z" fill="#031547"/>
<path d="M474.137 211.131C475.272 209.887 477.116 209.338 478.747 209.761C479.863 210.051 480.827 210.739 481.894 211.175C482.961 211.61 484.292 211.747 485.176 211.01C484.684 212.515 482.86 213.035 481.305 213.328C478.782 213.803 475.98 214.447 474.571 216.591C474.72 214.532 474.17 212.428 474.137 211.131Z" fill="#031547"/>
<path d="M489.356 218.575C488.753 217.206 487.018 216.651 485.541 216.892C484.064 217.133 482.768 217.974 481.474 218.729C480.18 219.484 478.764 220.186 477.27 220.104C479.37 221.176 481.932 221.301 484.126 220.436C484.76 220.185 485.387 219.852 486.069 219.843C487.362 219.827 489.401 221.642 490.199 222.662C490.237 221.768 490.004 220.044 489.356 218.575Z" fill="#031547"/>
<path d="M472.038 223.015C472.956 224.049 474.491 224.247 475.873 224.188C477.254 224.129 478.675 223.888 479.994 224.304C481.393 224.745 482.523 225.952 482.992 227.387C482.313 226.629 481.184 226.44 480.176 226.575C479.168 226.709 478.218 227.111 477.229 227.353C474.678 227.979 471.873 227.482 469.693 226.015C470.48 225.33 471.02 224.37 472.038 223.015Z" fill="#031547"/>
<path d="M486.235 233.811C485.687 231.578 483.465 229.879 481.166 229.933C478.493 229.998 475.888 232.13 473.379 231.206C474.369 231.7 472.574 233.281 481.058 233.719C481.797 233.757 483.322 235.697 484.058 235.777C484.793 235.857 485.647 235.2 486.235 233.811Z" fill="#031547"/>
<path d="M468.738 228.578C468.118 229.274 468.251 230.407 468.794 231.163C469.337 231.919 470.19 232.383 471.022 232.801C471.855 233.219 472.721 233.634 473.334 234.334C474.246 235.372 474.44 236.838 474.597 238.212C472.508 235.958 468.656 236.14 466.57 233.883C465.872 233.128 465.441 232.162 464.771 231.384C464.1 230.605 463.025 230.01 462.062 230.369C463.779 229.813 465.496 229.254 468.738 228.578Z" fill="#031547"/>
<path d="M469.795 243.48C469.497 241.306 467.897 239.953 466.484 238.696C465.07 237.439 463.606 235.727 463.76 233.488C463.45 234.944 463.137 236.424 463.17 237.898C463.204 239.372 463.635 240.863 464.572 241.693C465.079 242.143 465.808 242.682 465.566 243.446C466.778 243.663 467.991 243.88 469.795 243.48Z" fill="#031547"/>
</g>
<mask id="mask3_45_6" style="mask-type:luminance" maskUnits="userSpaceOnUse" x="354" y="106" width="66" height="142">
<path d="M409.44 152.039C413.15 146.812 416.92 141.467 418.772 135.332C420.624 129.198 420.253 122.023 416.227 117.037C413.49 113.648 409.408 111.635 405.301 110.18C396.687 107.128 387.363 106.102 378.293 107.206C369.548 108.272 360.266 111.978 356.322 119.854C353.174 126.141 354.164 133.865 357.22 140.199C360.276 146.532 365.169 151.761 369.055 157.373C366.941 184.286 368.068 211.452 371.567 237.271C366.74 238.466 362.134 240.548 358.046 243.38C357.031 244.083 355.925 245.165 356.28 246.348C356.65 247.583 358.261 247.832 359.551 247.843C370.716 247.936 381.886 247.255 394.065 245.29C400.079 231.538 405.523 217.301 407.051 202.37C408.52 187.995 396.948 169.634 409.44 152.039Z" fill="white"/>
</mask>
<g mask="url(#mask3_45_6)">
<path d="M373.486 104.98C372.96 108.73 375.007 112.668 378.578 114.778C381.058 116.243 384.45 117.158 385.316 119.668C385.626 120.562 385.79 121.789 386.841 121.94C387.36 122.014 387.859 121.752 388.287 121.485C393.929 117.961 396.864 111.394 395.452 105.445C388.375 104.063 380.666 102.735 373.486 104.98Z" fill="#FEAF37"/>
</g>
<mask id="mask4_45_6" style="mask-type:luminance" maskUnits="userSpaceOnUse" x="354" y="106" width="66" height="142">
<path d="M409.44 152.039C413.15 146.812 416.92 141.467 418.772 135.332C420.624 129.198 420.253 122.023 416.227 117.037C413.49 113.648 409.408 111.635 405.301 110.18C396.687 107.128 387.363 106.102 378.293 107.206C369.548 108.272 360.266 111.978 356.322 119.854C353.174 126.141 354.164 133.865 357.22 140.199C360.276 146.532 365.169 151.761 369.055 157.373C366.941 184.286 368.068 211.452 371.567 237.271C366.74 238.466 362.134 240.548 358.046 243.38C357.031 244.083 355.925 245.165 356.28 246.348C356.65 247.583 358.261 247.832 359.551 247.843C370.716 247.936 381.886 247.255 394.065 245.29C400.079 231.538 405.523 217.301 407.051 202.37C408.52 187.995 396.948 169.634 409.44 152.039Z" fill="white"/>
</mask>
<g mask="url(#mask4_45_6)">
<path d="M384.033 193.245C386.27 191.492 389.621 191.324 392.024 192.843C394.426 194.362 395.71 197.462 395.087 200.235C394.372 203.416 391.441 206.361 392.524 209.437C393.046 210.923 394.468 212.104 394.484 213.679C394.503 215.674 392.34 216.892 391.311 218.602C390.004 220.776 390.641 223.542 390.375 226.066C389.836 231.182 384.861 235.417 379.725 235.133C379.292 226.867 378.86 218.602 378.427 210.336C378.27 207.354 378.118 204.331 378.752 201.414C379.386 198.495 380.933 195.672 384.033 193.245Z" fill="#FEAF37"/>
</g>
<mask id="mask5_45_6" style="mask-type:luminance" maskUnits="userSpaceOnUse" x="354" y="106" width="66" height="142">
<path d="M409.44 152.039C413.15 146.812 416.92 141.467 418.772 135.332C420.624 129.198 420.253 122.023 416.227 117.037C413.49 113.648 409.408 111.635 405.301 110.18C396.687 107.128 387.363 106.102 378.293 107.206C369.548 108.272 360.266 111.978 356.322 119.854C353.174 126.141 354.164 133.865 357.22 140.199C360.276 146.532 365.169 151.761 369.055 157.373C366.941 184.286 368.068 211.452 371.567 237.271C366.74 238.466 362.134 240.548 358.046 243.38C357.031 244.083 355.925 245.165 356.28 246.348C356.65 247.583 358.261 247.832 359.551 247.843C370.716 247.936 381.886 247.255 394.065 245.29C400.079 231.538 405.523 217.301 407.051 202.37C408.52 187.995 396.948 169.634 409.44 152.039Z" fill="white"/>
</mask>
<g mask="url(#mask5_45_6)">
<path d="M367.123 196.171C368.197 194.562 370.854 194.807 372.161 196.234C373.465 197.662 373.696 199.769 373.562 201.698C373.428 203.627 372.994 205.558 373.227 207.477C373.507 209.776 374.734 211.938 374.651 214.252C374.559 216.822 372.858 219.151 372.87 221.722C372.879 223.464 373.674 225.094 374.468 226.643C375.262 228.193 376.089 229.797 376.172 231.536C376.254 233.275 375.362 235.195 373.698 235.708C372.002 236.232 370.15 235.092 369.268 233.551C368.386 232.011 368.242 230.171 368.119 228.4C367.387 217.982 366.657 207.563 367.123 196.171Z" fill="#FEAF37"/>
</g>
<mask id="mask6_45_6" style="mask-type:luminance" maskUnits="userSpaceOnUse" x="354" y="106" width="107" height="142">
<path d="M450.381 192.993C441.535 177.701 428.162 165.398 413.368 155.742C411.914 154.791 410.362 153.862 408.759 153.061C408.983 152.721 409.199 152.38 409.44 152.04C413.15 146.814 416.92 141.469 418.772 135.334C420.624 129.199 420.253 122.024 416.227 117.039C413.49 113.649 409.408 111.636 405.301 110.182C396.687 107.13 387.363 106.103 378.293 107.208C369.548 108.273 360.266 111.979 356.322 119.856C353.174 126.143 354.164 133.867 357.22 140.2C360.276 146.534 365.169 151.763 369.055 157.374C366.941 184.288 368.068 211.453 371.567 237.272C366.74 238.468 362.134 240.55 358.046 243.382C357.031 244.085 355.925 245.167 356.28 246.35C356.65 247.585 358.261 247.834 359.551 247.845C368.845 247.922 378.154 247.45 388.037 246.161C392.532 246.022 398.621 245.091 400.425 245.164C419.283 245.916 438.187 245.521 459.281 243.984C463.247 226.765 459.228 208.284 450.381 192.993Z" fill="white"/>
</mask>
<g mask="url(#mask6_45_6)">
<path d="M393.379 107.337C393.575 108.868 393.77 110.441 393.406 111.941C393.054 113.388 392.193 114.727 392.196 116.216C391.639 115.756 391.411 114.996 391.391 114.272C391.371 113.55 391.528 112.835 391.6 112.116C391.769 110.394 391.43 108.626 390.636 107.089C391.416 106.691 392.379 106.68 393.379 107.337Z" fill="#031547"/>
<path d="M388.829 106.922C388.262 107.335 388.237 108.184 388.45 108.853C388.662 109.522 389.053 110.139 389.138 110.835C389.281 112 388.549 113.082 388.354 114.239C388.129 115.57 388.622 116.901 388.863 118.23C389.103 119.559 388.994 121.139 387.919 121.955C387.017 119.937 386.107 117.888 385.752 115.706C385.249 112.62 385.864 109.325 384.675 106.432C386.079 106.128 387.542 106.105 388.829 106.922Z" fill="#031547"/>
<path d="M380.316 106.834C381.053 107.688 381.107 108.938 380.93 110.053C380.754 111.167 380.387 112.263 380.421 113.392C380.499 115.993 382.684 118.344 382.201 120.901C383.4 120.2 383.755 118.611 383.642 117.226C383.529 115.842 383.069 114.487 383.128 113.099C383.223 110.872 384.643 108.698 384.063 106.544C382.946 106.952 381.734 107.093 380.316 106.834Z" fill="#031547"/>
<path d="M413.252 153.873C411.382 154.65 410.197 156.558 409.653 158.509C409.108 160.461 409.083 162.513 408.817 164.521C408.229 168.963 406.424 173.239 403.652 176.76C406.08 175.696 407.618 173.291 408.811 170.923C410.003 168.556 411.05 166.016 412.997 164.219C414.025 163.269 415.26 162.574 416.333 161.678C417.409 160.783 418.358 159.597 418.491 158.204C416.83 156.75 415.169 155.294 413.252 153.873Z" fill="#031547"/>
<path d="M425.071 160.233C421.81 161.198 419.486 164.11 417.999 167.167C416.513 170.225 415.645 173.561 414.061 176.57C412.629 179.291 410.641 181.689 409.212 184.412C407.782 187.135 406.942 190.403 408.017 193.284C409.128 189.357 411.832 186.087 414.719 183.203C417.605 180.317 420.764 177.66 423.151 174.352C424.929 171.888 426.236 169.122 427.532 166.375C428.086 165.2 428.655 163.929 428.427 162.651C428.2 161.373 426.782 160.241 425.071 160.233Z" fill="#031547"/>
<path d="M434.035 169.057C432.328 169.843 431.311 171.639 430.758 173.434C430.205 175.228 430 177.125 429.332 178.881C427.857 182.759 424.201 185.756 423.711 189.877C426.511 187.105 429.744 184.789 432.478 181.953C435.214 179.116 437.494 175.573 437.731 171.64C437.032 170.404 435.905 169.417 434.035 169.057Z" fill="#031547"/>
<path d="M444.665 181.054C442.767 181.111 441.234 182.626 440.504 184.277C439.774 185.927 439.631 187.748 439.179 189.484C438.726 191.22 437.844 193.006 436.173 193.854C437.36 194.453 438.897 193.918 439.809 192.984C440.72 192.051 441.164 190.809 441.643 189.623C442.121 188.437 442.7 187.218 443.773 186.452C444.87 185.671 448.265 184.718 448.05 184.45C447.331 183.558 445.932 180.88 444.665 181.054Z" fill="#031547"/>
<path d="M452.242 195.216C449.652 195.919 448.112 198.555 447.173 201.069C446.235 203.584 445.539 206.339 443.611 208.205C442.102 209.664 440.021 210.385 438.407 211.726C435.728 213.955 434.668 217.934 435.883 221.2C436.115 218.263 438.859 216.219 441.476 214.862C444.093 213.506 447.041 212.24 448.421 209.636C449.351 207.882 449.473 205.653 450.906 204.28C451.979 203.252 453.645 202.87 454.42 201.604C455.531 199.793 454.159 197.52 452.242 195.216Z" fill="#031547"/>
<path d="M459.924 213.377C458.08 212.614 455.977 213.854 454.754 215.431C453.531 217.007 452.803 218.94 451.459 220.416C449.842 222.191 447.518 223.11 445.504 224.417C441.28 227.157 438.357 231.818 437.731 236.813C438.47 233.862 441.483 232.123 444.318 231.021C447.154 229.919 450.286 228.984 452.147 226.576C453.31 225.07 453.862 223.104 455.27 221.823C456.165 221.01 457.317 220.556 458.396 220.01C459.476 219.464 460.554 218.756 461.072 217.664C461.59 216.57 461.908 214.199 459.924 213.377Z" fill="#031547"/>
<path d="M403.652 215.602C400.485 215.616 398.527 219.425 395.412 219.996C393.866 220.279 392.304 219.711 390.737 219.604C388.629 219.461 386.474 220.206 384.902 221.619C387.831 221.531 390.67 222.504 393.532 223.131C396.393 223.758 399.543 224.007 402.109 222.596C402.555 220.406 402.998 218.218 403.652 215.602Z" fill="#031547"/>
<path d="M398.044 231.209C397.387 229.711 395.525 229.057 393.903 229.266C392.28 229.473 390.83 230.341 389.409 231.151C387.988 231.962 386.471 232.753 384.836 232.78C385.904 233.762 387.519 233.862 388.954 233.638C390.387 233.414 391.789 232.924 393.24 232.924C394.691 232.924 396.287 233.576 396.805 234.931C397.286 233.737 397.769 232.544 398.044 231.209Z" fill="#031547"/>
<path d="M378.28 224.749C379.355 223.908 380.922 224.144 382.179 224.675C383.436 225.205 384.621 225.992 385.974 226.163C387.383 226.339 388.773 225.824 390.176 225.611C391.579 225.399 393.24 225.606 394.029 226.786C392.76 226.472 391.475 227.184 390.432 227.969C389.389 228.754 388.353 229.678 387.062 229.883C385.689 230.1 384.349 229.456 383.044 228.976C381.739 228.495 380.174 228.199 379.043 229.006C378.953 227.837 378.864 226.67 378.28 224.749Z" fill="#031547"/>
<path d="M378.339 209.755C380.054 211.467 382.616 212.289 385.007 211.893C386.508 211.644 387.993 210.947 389.488 211.231C390.751 211.47 391.769 212.363 392.839 213.073C393.91 213.783 395.276 214.34 396.453 213.826C394.999 215.378 392.629 215.998 390.6 215.357C389.491 215.005 388.492 214.316 387.345 214.125C385.115 213.752 382.883 215.337 380.666 214.896C379.695 214.703 378.801 214.098 378.325 213.231C377.85 212.363 377.829 211.245 378.339 209.755Z" fill="#031547"/>
<path d="M369.6 211.901C371.507 211.03 373.524 210.403 375.588 210.041C375.694 210.944 375.011 211.775 374.209 212.204C373.407 212.632 372.487 212.768 371.617 213.035C370.749 213.303 369.863 213.762 369.461 214.578C369.162 213.738 369.03 212.839 369.6 211.901Z" fill="#031547"/>
<path d="M370.268 222.816C370.174 222.034 370.859 221.34 371.608 221.103C372.358 220.867 373.166 220.959 373.953 220.975C374.739 220.99 375.588 220.9 376.183 220.385C376.414 221.185 375.935 222.032 375.308 222.579C374.681 223.126 373.908 223.479 373.262 224.004C372.158 224.902 371.482 226.306 371.469 227.73C370.497 226.289 370.469 224.494 370.268 222.816Z" fill="#031547"/>
<path d="M371.314 232.794C372.786 231.409 374.94 230.786 376.923 231.169C377.446 231.743 377.126 232.715 376.533 233.216C375.939 233.717 375.158 233.923 374.476 234.296C373.335 234.92 372.481 236.046 372.189 237.313C371.724 236.036 371.5 234.671 371.314 232.794Z" fill="#031547"/>
<path d="M378.396 206.206C377.341 205.174 375.579 205.459 374.242 206.083C372.905 206.707 371.622 207.62 370.146 207.658C372.533 207.837 374.921 208.016 377.308 208.196C377.573 208.215 377.866 208.228 378.076 208.064C378.286 207.902 378.29 207.491 378.396 206.206Z" fill="#031547"/>
<path d="M377.675 216.412C376.919 215.442 375.467 215.257 374.301 215.648C373.135 216.038 372.186 216.884 371.273 217.707C373.517 217.312 375.894 217.715 377.884 218.827C377.994 218.056 378.213 217.102 377.675 216.412Z" fill="#031547"/>
<path d="M377.075 224.98C375.48 226.019 374.048 227.305 372.842 228.778C374.658 228.08 376.723 228.049 378.56 228.694C378.221 227.511 377.882 226.33 377.075 224.98Z" fill="#031547"/>
</g>
<path d="M384.926 176.417C381.896 186.246 379.939 196.591 379.119 206.842C378.363 217.141 378.802 227.513 380.591 237.688L380.684 238.241C377.461 238.494 374.277 239.197 371.218 240.286C368.938 241.272 363.91 242.416 365.47 245.804C364.375 244.436 365.501 242.561 366.813 241.808C370.839 239.371 375.375 237.908 380.036 237.282L379.595 237.882C377.43 227.678 376.911 217.122 377.839 206.738C378.756 196.445 381.1 186.008 384.926 176.417Z" fill="#BD9C77"/>
<path d="M406.7 200.078C405.331 215.596 400.511 230.866 392.748 244.37C393.462 242.556 394.227 240.773 394.92 238.959C399.994 226.365 403.799 213.339 406.7 200.078Z" fill="#BD9C77"/>
<path d="M441.588 201.529C434.046 190.323 417.099 190.732 410.414 202.411C404.188 213.849 409.45 227.349 415.724 237.657L416.023 238.155C414.201 238.945 412.178 239.063 410.304 238.981C407.079 238.899 403.28 238.304 400.837 240.841C399.738 242.018 399.063 243.86 399.833 245.438C398.047 241.965 401.867 238.568 405.191 238.351C408.495 237.817 412.03 238.745 415.142 237.467L414.912 238.165C389.431 199.889 426.892 179.228 441.588 201.529Z" fill="#BD9C77"/>
<path d="M460.321 234.187C461.28 237.488 461.287 240.825 460.321 244.127C459.355 240.825 459.364 237.488 460.321 234.187Z" fill="#BD9C77"/>
<g opacity="0.502">
<path opacity="0.6902" d="M364.64 131.889C364.554 130.566 366.048 129.391 367.977 129.265C369.907 129.139 371.54 130.11 371.627 131.433C371.713 132.756 370.219 133.931 368.29 134.057C366.359 134.183 364.725 133.212 364.64 131.889Z" fill="#82010E"/>
<path opacity="0.6902" d="M397.173 131.299C397.088 129.976 398.581 128.802 400.511 128.676C402.44 128.55 404.074 129.521 404.16 130.844C404.246 132.167 402.752 133.342 400.823 133.468C398.892 133.594 397.258 132.624 397.173 131.299Z" fill="#82010E"/>
</g>
<path d="M370.749 126.06C370.749 125.385 371.29 124.839 371.958 124.839C372.625 124.839 373.166 125.387 373.166 126.06C373.166 126.735 372.625 127.281 371.958 127.281C371.291 127.282 370.749 126.735 370.749 126.06Z" fill="black"/>
<path d="M399.333 126.06C399.333 125.385 399.874 124.839 400.541 124.839C401.209 124.839 401.75 125.387 401.75 126.06C401.75 126.735 401.209 127.281 400.541 127.281C399.874 127.282 399.333 126.735 399.333 126.06Z" fill="black"/>
<path d="M392.598 133.535C392.225 136.138 389.322 138.333 386.138 138.418C382.956 138.504 379.884 136.468 379.308 133.891" stroke="black" stroke-miterlimit="10" stroke-linecap="round" stroke-linejoin="round"/>
<path d="M385.526 129.353C385.752 132.45 385.752 134.948 385.953 137.718" stroke="black" stroke-miterlimit="10" stroke-linecap="round" stroke-linejoin="round"/>
<path d="M390.695 127.985C390.046 128.887 389.388 129.798 388.534 130.51C387.681 131.221 386.597 131.722 385.489 131.656C384.488 131.596 383.558 131.081 382.817 130.405C382.077 129.728 381.501 128.895 380.933 128.069C380.632 127.631 380.316 127.129 380.421 126.608C380.563 125.901 381.374 125.579 382.077 125.414C383.982 124.966 385.946 124.792 387.905 124.795C388.812 124.796 389.791 124.861 390.494 125.433C391.196 126.007 391.271 127.186 390.695 127.985Z" fill="black"/>
<path d="M331.737 129.707C343.82 129.434 355.884 131.376 367.532 134.512L364.508 135.103C354.764 137.015 345.001 138.811 335.17 140.248C339.983 139.009 344.824 137.901 349.67 136.826C354.511 135.724 359.373 134.732 364.237 133.742L364.202 135.094C353.552 132.397 342.691 130.599 331.737 129.707Z" fill="white"/>
<path d="M366.898 135.471C361.372 139.125 355.424 141.926 349.079 143.837C354.602 140.176 360.556 137.389 366.898 135.471Z" fill="white"/>
<path d="M441.19 128.209C430.237 129.1 419.376 130.899 408.726 133.596L408.691 132.244C413.554 133.234 418.417 134.226 423.258 135.328C428.105 136.403 432.944 137.511 437.758 138.75C426.917 137.169 416.14 135.132 405.395 133.013C417.043 129.878 429.107 127.936 441.19 128.209Z" fill="white"/>
<path d="M406.029 133.972C412.371 135.89 418.326 138.677 423.849 142.338C417.504 140.427 411.557 137.626 406.029 133.972Z" fill="white"/>
<path opacity="0.451" d="M373.405 109.15C370.14 103.81 365.616 99.2461 360.304 95.9351C359.719 102.087 360.783 108.388 363.357 114.008C365.495 111.668 368.213 109.865 373.405 109.15Z" fill="#82010E"/>
<path opacity="0.451" d="M400.747 109.15C404.012 103.81 408.537 99.2461 413.848 95.9351C414.434 102.087 413.368 108.388 410.795 114.008C408.657 111.668 405.938 109.865 400.747 109.15Z" fill="#82010E"/>
<path d="M280.147 248.818C290.809 228.789 296.271 206.343 299.03 183.821C300.63 170.758 300.916 156.142 292.48 146.041C284.025 135.918 269.244 133.58 256.145 135.129C246.035 136.326 235.672 139.719 228.838 147.265C218.817 158.333 218.898 175.151 221.546 189.846C224.202 204.588 228.854 218.97 235.334 232.474C238.421 238.907 242.173 245.414 248.23 249.187C256.885 254.582 267.971 253.14 280.147 248.818Z" fill="#FF8900"/>
<path opacity="0.25" d="M259.976 228.112C295.289 228.112 323.917 199.279 323.917 163.712C323.917 128.145 295.289 99.3118 259.976 99.3118C224.662 99.3118 196.035 128.145 196.035 163.712C196.035 199.279 224.662 228.112 259.976 228.112Z" fill="#FEAF37"/>
<path opacity="0.26" d="M259.976 213.825C285.667 213.825 306.494 192.849 306.494 166.974C306.494 141.099 285.667 120.123 259.976 120.123C234.285 120.123 213.458 141.099 213.458 166.974C213.458 192.849 234.285 213.825 259.976 213.825Z" fill="#FEAF37"/>
<path d="M223.334 75.6042C248.22 73.0212 273.272 72.0216 298.284 72.6138L329.89 141.533L190.061 143.927L223.334 75.6042Z" fill="#DF2600"/>
<path d="M235.148 228.112C232.406 235.84 223.135 239.05 214.942 239.413C206.749 239.774 198.247 238.367 190.534 241.154C176.501 246.225 170.572 263.164 170.631 278.085C170.691 293.006 174.856 307.885 173.054 322.697C170.703 342.021 158.421 359.234 157.052 378.652C154.563 413.931 188.332 445.199 182.78 480.127C181.474 488.347 177.996 496.153 177.232 504.441C176.467 512.728 182.403 525.825 190.061 529.087" stroke="#031547" stroke-miterlimit="10"/>
<path d="M84.2156 376.124C84.1274 382.955 82.4348 386.569 78.0864 387.943C83.6976 388.55 83.538 397.993 83.7032 398.43C83.706 398.436 84.9366 388.889 90.8124 386.967C85.2264 386.362 84.9562 382.203 84.3206 376.11C84.3122 376.023 84.217 376.034 84.2156 376.124Z" fill="#FFE2C0"/>
<path d="M121.236 246.897C121.22 255.563 118.882 260.121 112.752 261.794C120.704 262.655 120.628 274.635 120.87 275.191C120.873 275.198 122.462 263.105 130.749 260.761C122.832 259.903 122.385 254.622 121.387 246.882C121.372 246.771 121.236 246.784 121.236 246.897Z" fill="#FFE2C0"/>
<path d="M601.191 116.36C601.181 121.593 599.77 124.345 596.068 125.356C600.87 125.877 600.824 133.109 600.97 133.445C600.971 133.449 601.931 126.147 606.935 124.732C602.154 124.214 601.884 121.024 601.282 116.351C601.273 116.283 601.192 116.29 601.191 116.36Z" fill="#FFE2C0"/>
<path d="M481.459 63.5683C481.453 69.1501 479.938 72.0845 475.964 73.1597C481.12 73.7183 481.076 81.4337 481.235 81.7935C481.236 81.7991 482.261 74.0095 487.633 72.5031C482.499 71.9473 482.206 68.5453 481.555 63.5585C481.545 63.4871 481.459 63.4955 481.459 63.5683Z" fill="#FFE2C0"/>
<path d="M616.09 309.723C616.084 315.305 614.569 318.24 610.595 319.315C615.751 319.873 615.707 327.589 615.866 327.949C615.868 327.954 616.892 320.165 622.264 318.658C617.13 318.102 616.837 314.7 616.186 309.714C616.178 309.641 616.09 309.649 616.09 309.723Z" fill="#FFE2C0"/>
<path d="M143.102 175.686C143.102 174.675 143.921 173.856 144.932 173.856C145.943 173.856 146.762 174.675 146.762 175.686C146.762 176.697 145.943 177.516 144.932 177.516C143.921 177.516 143.102 176.697 143.102 175.686Z" fill="#FFE2C0"/>
<path d="M76.2566 79.9638C76.2566 78.953 77.0756 78.134 78.0864 78.134C79.0972 78.134 79.9162 78.953 79.9162 79.9638C79.9162 80.9746 79.0972 81.7936 78.0864 81.7936C77.0756 81.7936 76.2566 80.9746 76.2566 79.9638Z" fill="#FFE2C0"/>
<path d="M620.434 427.168C620.434 426.157 621.253 425.338 622.264 425.338C623.274 425.338 624.093 426.157 624.093 427.168C624.093 428.179 623.274 428.998 622.264 428.998C621.253 428.998 620.434 428.179 620.434 427.168Z" fill="#FFE2C0"/>
<path d="M128.918 483.535C128.918 482.524 129.737 481.705 130.747 481.705C131.758 481.705 132.577 482.524 132.577 483.535C132.577 484.546 131.758 485.365 130.747 485.365C129.738 485.365 128.918 484.546 128.918 483.535Z" fill="#FFE2C0"/>
<path d="M56.9898 318.805C56.9898 317.794 57.8088 316.975 58.8196 316.975C59.8304 316.975 60.6494 317.794 60.6494 318.805C60.6494 319.816 59.8304 320.635 58.8196 320.635C57.8088 320.635 56.9898 319.816 56.9898 318.805Z" fill="#FFE2C0"/>
<path d="M549.535 370.021C549.535 369.011 550.354 368.192 551.365 368.192C552.376 368.192 553.195 369.011 553.195 370.021C553.195 371.032 552.376 371.851 551.365 371.851C550.354 371.851 549.535 371.032 549.535 370.021Z" fill="#FFE2C0"/>
<path d="M320.449 63.5096C320.449 62.4988 321.268 61.6798 322.279 61.6798C323.289 61.6798 324.108 62.4988 324.108 63.5096C324.108 64.5204 323.289 65.3394 322.279 65.3394C321.268 65.3394 320.449 64.5204 320.449 63.5096Z" fill="#FFE2C0"/>
<path d="M82.6196 529.71C82.6196 528.699 83.4386 527.88 84.4494 527.88C85.4602 527.88 86.2792 528.699 86.2792 529.71C86.2792 530.72 85.4602 531.539 84.4494 531.539C83.44 531.539 82.6196 530.72 82.6196 529.71Z" fill="#FFE2C0"/>
<path d="M566.125 510.618C566.125 509.607 566.944 508.788 567.955 508.788C568.966 508.788 569.785 509.607 569.785 510.618C569.785 511.629 568.966 512.448 567.955 512.448C566.944 512.448 566.125 511.627 566.125 510.618Z" fill="#FFE2C0"/>
<path d="M547.705 225.008C547.705 223.997 548.524 223.178 549.535 223.178C550.546 223.178 551.365 223.997 551.365 225.008C551.365 226.019 550.546 226.838 549.535 226.838C548.524 226.838 547.705 226.019 547.705 225.008Z" fill="#FFE2C0"/>
</g>
<defs>
<clipPath id="clip0_45_6">
<rect width="700" height="700" fill="white"/>
</clipPath>
</defs>
</svg>
