<svg width="264" height="39" viewBox="0 0 264 39" fill="none" xmlns="http://www.w3.org/2000/svg">
<path d="M1.17969 2.14844C2.09115 2.27865 2.88542 2.38281 3.5625 2.46094C4.23958 2.53906 4.79948 2.60417 5.24219 2.65625C5.76302 2.70833 6.20573 2.7474 6.57031 2.77344C6.98698 2.82552 7.49479 2.79948 8.09375 2.69531C8.71875 2.59115 9.38281 2.48698 10.0859 2.38281C10.7891 2.2526 11.5182 2.14844 12.2734 2.07031C13.0286 1.99219 13.7578 1.99219 14.4609 2.07031C14.9297 2.1224 15.5286 2.22656 16.2578 2.38281C16.987 2.53906 17.7552 2.78646 18.5625 3.125C19.3958 3.46354 20.2292 3.90625 21.0625 4.45312C21.8958 5 22.651 5.6901 23.3281 6.52344C24.0052 7.35677 24.5651 8.34635 25.0078 9.49219C25.4505 10.638 25.6979 11.9792 25.75 13.5156C25.8281 15.8073 25.6198 17.8906 25.125 19.7656C24.6302 21.6406 23.862 23.2422 22.8203 24.5703C21.8047 25.8984 20.5156 26.9401 18.9531 27.6953C17.3906 28.4505 15.5677 28.8672 13.4844 28.9453C11.8958 29.0755 10.3333 29.1927 8.79688 29.2969C8.14583 29.349 7.45573 29.388 6.72656 29.4141C6.02344 29.4401 5.32031 29.4661 4.61719 29.4922C3.91406 29.4922 3.23698 29.4792 2.58594 29.4531C1.9349 29.4271 1.33594 29.388 0.789062 29.3359C1.38802 29.0495 1.86979 28.763 2.23438 28.4766C2.625 28.1901 2.92448 27.9427 3.13281 27.7344C3.36719 27.474 3.53646 27.2396 3.64062 27.0312C3.69271 26.7448 3.77083 26.1849 3.875 25.3516C3.95312 24.6484 4.05729 23.6458 4.1875 22.3438C4.31771 21.0417 4.47396 19.2708 4.65625 17.0312L4.89062 14.2578C5.02083 12.5391 5.07292 11.1328 5.04688 10.0391C5.04688 8.94531 5.02083 8.08594 4.96875 7.46094C4.89062 6.73177 4.78646 6.19792 4.65625 5.85938C4.55208 5.57292 4.35677 5.23438 4.07031 4.84375C3.8099 4.53125 3.44531 4.15365 2.97656 3.71094C2.53385 3.24219 1.9349 2.72135 1.17969 2.14844ZM9.42188 16.5234C9.47396 18.8411 9.59115 20.625 9.77344 21.875C9.98177 23.099 10.2031 24.0104 10.4375 24.6094C10.724 25.2865 11.0365 25.6901 11.375 25.8203C11.8698 25.8203 12.4297 25.612 13.0547 25.1953C13.6797 24.7526 14.2917 24.0885 14.8906 23.2031C15.5156 22.3177 16.0755 21.2109 16.5703 19.8828C17.0911 18.5547 17.4688 17.0052 17.7031 15.2344C17.9375 13.4635 17.8724 11.901 17.5078 10.5469C17.1432 9.19271 16.6615 8.0599 16.0625 7.14844C15.4635 6.21094 14.8516 5.50781 14.2266 5.03906C13.6016 4.54427 13.1328 4.29688 12.8203 4.29688C12.4557 4.29688 12.1302 4.40104 11.8438 4.60938C11.5573 4.79167 11.1536 5.22135 10.6328 5.89844C10.3724 6.26302 10.138 6.78385 9.92969 7.46094C9.7474 8.0599 9.59115 8.85417 9.46094 9.84375C9.33073 10.8333 9.29167 12.1094 9.34375 13.6719L9.42188 16.5234ZM27.5469 12.5391L34.7344 12.6172C34.3177 14.2057 34.0052 15.5599 33.7969 16.6797C33.6146 17.7995 33.4974 18.737 33.4453 19.4922C33.3411 20.3516 33.3151 21.0807 33.3672 21.6797C33.4453 22.2266 33.5755 22.8125 33.7578 23.4375C33.9141 23.9583 34.1484 24.5573 34.4609 25.2344C34.7734 25.9115 35.1901 26.5885 35.7109 27.2656C35.3984 27.1615 35.0599 27.0833 34.6953 27.0312C34.3307 26.9792 33.9922 26.9401 33.6797 26.9141C33.3151 26.888 32.9505 26.888 32.5859 26.9141C32.2214 26.9401 31.8177 26.9792 31.375 27.0312C31.0104 27.0833 30.5677 27.1484 30.0469 27.2266C29.526 27.3047 28.9792 27.4089 28.4062 27.5391C28.7969 26.3672 29.0964 25.3516 29.3047 24.4922C29.5391 23.6328 29.7083 22.9167 29.8125 22.3438C29.9167 21.6667 29.9818 21.1198 30.0078 20.7031C30.0078 20.1823 30.0078 19.5964 30.0078 18.9453C30.0078 18.2682 30.0078 17.6172 30.0078 16.9922C30.0078 16.3672 29.9948 15.8203 29.9688 15.3516C29.9427 14.8568 29.8906 14.5443 29.8125 14.4141L29.4219 14.0234C29.2656 13.8932 29.0312 13.7109 28.7188 13.4766C28.4323 13.2161 28.0417 12.9036 27.5469 12.5391ZM30.3203 6.52344C30.8672 6.23698 31.4141 6.15885 31.9609 6.28906C32.5339 6.41927 32.9766 6.66667 33.2891 7.03125C33.6016 7.39583 33.7057 7.82552 33.6016 8.32031C33.5234 8.8151 33.1068 9.29688 32.3516 9.76562C31.5964 10.2083 30.9323 10.3646 30.3594 10.2344C29.7865 10.1042 29.3828 9.83073 29.1484 9.41406C28.9141 8.9974 28.875 8.51562 29.0312 7.96875C29.1875 7.39583 29.6172 6.91406 30.3203 6.52344ZM55.5547 13.4375C55.4766 12.9167 55.4115 12.487 55.3594 12.1484C55.3073 11.7839 55.2552 11.4974 55.2031 11.2891C55.151 11.0286 55.112 10.8333 55.0859 10.7031C55.0339 10.5729 54.9688 10.4297 54.8906 10.2734C54.8385 10.1432 54.7474 9.98698 54.6172 9.80469C54.513 9.6224 54.3828 9.41406 54.2266 9.17969C54.5651 9.28385 54.9036 9.34896 55.2422 9.375C55.6068 9.40104 55.9453 9.42708 56.2578 9.45312C56.5964 9.47917 56.9479 9.47917 57.3125 9.45312C57.6771 9.45312 58.0938 9.4401 58.5625 9.41406C58.9792 9.38802 59.474 9.375 60.0469 9.375C60.6458 9.34896 61.3229 9.3099 62.0781 9.25781C61.6354 9.36198 61.2578 9.54427 60.9453 9.80469C60.6589 10.0391 60.4115 10.2995 60.2031 10.5859C59.9688 10.8984 59.7734 11.237 59.6172 11.6016C59.487 11.9401 59.4089 12.5911 59.3828 13.5547C59.3568 14.4922 59.3568 15.612 59.3828 16.9141C59.4089 18.1901 59.4349 19.5703 59.4609 21.0547C59.513 22.5391 59.5391 23.9583 59.5391 25.3125C59.5651 26.6667 59.5651 27.9036 59.5391 29.0234C59.513 30.1172 59.4479 30.9245 59.3438 31.4453C58.9792 33.0859 58.3021 34.4141 57.3125 35.4297C56.3229 36.4714 55.0208 37.0312 53.4062 37.1094C51.4531 37.1875 49.9036 37.0052 48.7578 36.5625C47.638 36.1198 46.7656 35.5729 46.1406 34.9219C45.5156 34.2969 45.0469 33.6589 44.7344 33.0078C44.4219 32.3568 44.0964 31.862 43.7578 31.5234C43.4453 31.237 43.1328 30.9635 42.8203 30.7031C42.5339 30.4948 42.2344 30.2865 41.9219 30.0781C41.6354 29.8698 41.349 29.7396 41.0625 29.6875C41.8177 29.7135 42.4948 29.7266 43.0938 29.7266C43.6927 29.7266 44.2005 29.7266 44.6172 29.7266C45.0859 29.7266 45.5026 29.7135 45.8672 29.6875H47.1172H50.6719C50.151 29.8438 49.7604 30.013 49.5 30.1953C49.2396 30.4036 49.0573 30.612 48.9531 30.8203C48.849 31.0547 48.7969 31.2891 48.7969 31.5234C48.901 32.1484 49.2396 32.6042 49.8125 32.8906C50.3854 33.1771 51.1667 33.3464 52.1562 33.3984C53.1198 33.4505 53.7839 33.4245 54.1484 33.3203C54.513 33.2422 54.7995 33.0859 55.0078 32.8516C55.4245 32.2266 55.776 31.4193 56.0625 30.4297C56.2708 29.5964 56.4141 28.5156 56.4922 27.1875C56.5964 25.8333 56.4792 24.1797 56.1406 22.2266C55.3073 23.3724 54.3438 24.2318 53.25 24.8047C52.1562 25.3776 51.1146 25.7943 50.125 26.0547C48.9531 26.3411 47.7682 26.4844 46.5703 26.4844C43.4193 26.3542 41.0625 25.625 39.5 24.2969C37.9375 22.9688 37.2214 21.1849 37.3516 18.9453C37.4297 17.8255 37.7682 16.7057 38.3672 15.5859C38.9922 14.4661 39.7995 13.4635 40.7891 12.5781C41.8047 11.6927 42.9635 10.9896 44.2656 10.4688C45.5677 9.94792 46.9219 9.72656 48.3281 9.80469C49.3958 9.90885 50.3984 10.1042 51.3359 10.3906C52.1432 10.651 52.9375 11.0156 53.7188 11.4844C54.526 11.9531 55.138 12.6042 55.5547 13.4375ZM43.1328 17.3438C42.9766 18.3594 43.0417 19.3099 43.3281 20.1953C43.6406 21.0807 44.0703 21.849 44.6172 22.5C45.1641 23.125 45.776 23.6198 46.4531 23.9844C47.1302 24.3229 47.7682 24.4792 48.3672 24.4531C49.6172 24.4271 50.6979 23.8672 51.6094 22.7734C52.5208 21.6536 53.0677 19.987 53.25 17.7734C53.3281 16.6797 53.1849 15.7422 52.8203 14.9609C52.4818 14.1536 52.0521 13.5026 51.5312 13.0078C51.0104 12.513 50.4635 12.1615 49.8906 11.9531C49.3177 11.7448 48.862 11.6536 48.5234 11.6797C48.0547 11.7318 47.5339 11.875 46.9609 12.1094C46.4141 12.3177 45.8802 12.6432 45.3594 13.0859C44.8385 13.5026 44.3698 14.0625 43.9531 14.7656C43.5625 15.4688 43.2891 16.3281 43.1328 17.3438ZM62.4297 12.5391L69.6172 12.6172C69.2005 14.2057 68.888 15.5599 68.6797 16.6797C68.4974 17.7995 68.3802 18.737 68.3281 19.4922C68.224 20.3516 68.1979 21.0807 68.25 21.6797C68.3281 22.2266 68.4583 22.8125 68.6406 23.4375C68.7969 23.9583 69.0312 24.5573 69.3438 25.2344C69.6562 25.9115 70.0729 26.5885 70.5938 27.2656C70.2812 27.1615 69.9427 27.0833 69.5781 27.0312C69.2135 26.9792 68.875 26.9401 68.5625 26.9141C68.1979 26.888 67.8333 26.888 67.4688 26.9141C67.1042 26.9401 66.7005 26.9792 66.2578 27.0312C65.8932 27.0833 65.4505 27.1484 64.9297 27.2266C64.4089 27.3047 63.862 27.4089 63.2891 27.5391C63.6797 26.3672 63.9792 25.3516 64.1875 24.4922C64.4219 23.6328 64.5911 22.9167 64.6953 22.3438C64.7995 21.6667 64.8646 21.1198 64.8906 20.7031C64.8906 20.1823 64.8906 19.5964 64.8906 18.9453C64.8906 18.2682 64.8906 17.6172 64.8906 16.9922C64.8906 16.3672 64.8776 15.8203 64.8516 15.3516C64.8255 14.8568 64.7734 14.5443 64.6953 14.4141L64.3047 14.0234C64.1484 13.8932 63.9141 13.7109 63.6016 13.4766C63.3151 13.2161 62.9245 12.9036 62.4297 12.5391ZM65.2031 6.52344C65.75 6.23698 66.2969 6.15885 66.8438 6.28906C67.4167 6.41927 67.8594 6.66667 68.1719 7.03125C68.4844 7.39583 68.5885 7.82552 68.4844 8.32031C68.4062 8.8151 67.9896 9.29688 67.2344 9.76562C66.4792 10.2083 65.8151 10.3646 65.2422 10.2344C64.6693 10.1042 64.2656 9.83073 64.0312 9.41406C63.7969 8.9974 63.7578 8.51562 63.9141 7.96875C64.0703 7.39583 64.5 6.91406 65.2031 6.52344ZM71.5312 5.39062C72.3125 5.46875 72.9635 5.53385 73.4844 5.58594C74.0312 5.63802 74.474 5.67708 74.8125 5.70312C75.2031 5.72917 75.5156 5.74219 75.75 5.74219C75.9844 5.76823 76.2969 5.76823 76.6875 5.74219C77.026 5.71615 77.4688 5.6901 78.0156 5.66406C78.5625 5.61198 79.2526 5.53385 80.0859 5.42969C79.9036 5.6901 79.7604 5.92448 79.6562 6.13281C79.5521 6.3151 79.4609 6.48438 79.3828 6.64062L79.1484 7.10938C79.0964 7.26562 79.0443 7.42188 78.9922 7.57812C78.9401 7.70833 78.888 7.86458 78.8359 8.04688C78.8099 8.22917 78.7839 8.42448 78.7578 8.63281H84.7734L84.2266 11.7969L78.7188 11.4844C78.5885 12.8125 78.4974 13.8411 78.4453 14.5703C78.3932 15.2995 78.3411 15.8333 78.2891 16.1719L78.2109 16.875C78.1328 17.8646 78.0547 18.9453 77.9766 20.1172C77.8984 21.263 77.8724 22.3307 77.8984 23.3203C77.9245 24.3099 78.0156 25.1432 78.1719 25.8203C78.3281 26.4714 78.6016 26.7969 78.9922 26.7969C79.3828 26.7969 79.7474 26.6927 80.0859 26.4844C80.4245 26.276 80.7109 26.0286 80.9453 25.7422C81.2057 25.4557 81.401 25.1693 81.5312 24.8828C81.6615 24.5703 81.7266 24.3359 81.7266 24.1797C81.7266 24.0234 81.6875 23.8411 81.6094 23.6328C81.4792 23.2422 81.2448 22.7474 80.9062 22.1484C81.6615 22.3307 82.3255 22.513 82.8984 22.6953C83.1849 22.7995 83.4453 22.9036 83.6797 23.0078C83.9401 23.112 84.2396 23.2292 84.5781 23.3594C84.8646 23.4896 85.2292 23.6458 85.6719 23.8281C86.1146 24.0104 86.6354 24.2318 87.2344 24.4922C86.6615 24.5964 86.2448 24.7656 85.9844 25C85.8281 25.1042 85.7109 25.2214 85.6328 25.3516C85.4505 25.638 85.2422 26.0286 85.0078 26.5234C84.7734 26.9922 84.4219 27.4609 83.9531 27.9297C83.4844 28.3984 82.8464 28.8151 82.0391 29.1797C81.2578 29.5443 80.2031 29.7526 78.875 29.8047C77.4948 29.8568 76.4401 29.6224 75.7109 29.1016C75.0078 28.5807 74.487 27.9818 74.1484 27.3047C73.8359 26.6016 73.6536 25.9115 73.6016 25.2344C73.5495 24.5573 73.5104 24.1016 73.4844 23.8672C73.4583 23.6328 73.4583 23.0469 73.4844 22.1094C73.5104 21.1719 73.5495 20.1432 73.6016 19.0234C73.6536 17.8776 73.7057 16.7839 73.7578 15.7422C73.8099 14.6745 73.8359 13.8932 73.8359 13.3984C73.8359 13.138 73.849 12.8646 73.875 12.5781C73.875 12.3438 73.875 12.0964 73.875 11.8359C73.901 11.5495 73.9141 11.276 73.9141 11.0156L68.25 10.9766L68.0156 8.75L73.7188 8.90625C73.6667 8.61979 73.6016 8.35938 73.5234 8.125C73.4714 7.86458 73.4193 7.65625 73.3672 7.5C73.2891 7.31771 73.2109 7.16146 73.1328 7.03125C73.0286 6.90104 72.9115 6.75781 72.7812 6.60156C72.651 6.47135 72.4818 6.30208 72.2734 6.09375C72.0651 5.88542 71.8177 5.65104 71.5312 5.39062ZM88.5625 14.1797C88.6927 14.0234 88.7708 13.737 88.7969 13.3203C88.849 12.8776 88.9531 12.3828 89.1094 11.8359C89.2917 11.2891 89.5911 10.7161 90.0078 10.1172C90.4245 9.51823 91.1016 8.95833 92.0391 8.4375C92.9505 7.91667 93.8359 7.60417 94.6953 7.5C95.5547 7.39583 96.375 7.4349 97.1562 7.61719C97.9375 7.79948 98.6667 8.08594 99.3438 8.47656C100.047 8.86719 100.685 9.29688 101.258 9.76562C101.648 10.0781 101.961 10.5339 102.195 11.1328C102.43 11.7057 102.612 12.3568 102.742 13.0859C102.872 13.8151 102.964 14.5833 103.016 15.3906C103.094 16.1719 103.146 16.9401 103.172 17.6953C103.198 18.4245 103.211 19.1016 103.211 19.7266C103.237 20.3255 103.289 20.8203 103.367 21.2109C103.471 21.7839 103.654 22.2786 103.914 22.6953C104.174 23.0859 104.461 23.4245 104.773 23.7109C105.086 23.9714 105.398 24.1797 105.711 24.3359C106.023 24.4922 106.297 24.6094 106.531 24.6875C106.688 24.7656 106.831 24.8177 106.961 24.8438C107.221 24.9479 107.404 24.9479 107.508 24.8438C107.352 25.2083 107.208 25.5208 107.078 25.7812C106.948 26.0417 106.844 26.263 106.766 26.4453C106.661 26.6536 106.57 26.8229 106.492 26.9531C106.414 27.1094 106.323 27.2526 106.219 27.3828C106.141 27.513 106.036 27.6562 105.906 27.8125C105.776 27.9688 105.646 28.138 105.516 28.3203C105.177 28.1901 104.852 28.0339 104.539 27.8516C104.253 27.6693 103.992 27.5 103.758 27.3438C103.471 27.1615 103.211 26.9792 102.977 26.7969C102.742 26.6146 102.521 26.4062 102.312 26.1719C102.13 25.9635 101.935 25.7422 101.727 25.5078C101.544 25.2734 101.388 25.013 101.258 24.7266C101.102 25.0651 100.724 25.5469 100.125 26.1719C99.5521 26.7969 98.7969 27.3698 97.8594 27.8906C96.9219 28.3854 95.8281 28.737 94.5781 28.9453C93.3542 29.1536 92 29.0104 90.5156 28.5156C89.8646 28.3073 89.2526 28.0078 88.6797 27.6172C88.1068 27.2005 87.612 26.7057 87.1953 26.1328C86.8047 25.5599 86.5182 24.9089 86.3359 24.1797C86.1797 23.4245 86.1927 22.5911 86.375 21.6797C86.5573 20.7682 86.8828 20 87.3516 19.375C87.8203 18.75 88.3802 18.2422 89.0312 17.8516C89.6823 17.4609 90.4115 17.1615 91.2188 16.9531C92.026 16.7448 92.8594 16.6016 93.7188 16.5234C94.3958 16.4974 95.0729 16.5365 95.75 16.6406C96.3229 16.7448 96.9219 16.9401 97.5469 17.2266C98.1719 17.487 98.7057 17.8906 99.1484 18.4375C99.1224 17.0573 99.0703 15.9635 98.9922 15.1562C98.9401 14.3229 98.888 13.6849 98.8359 13.2422C98.7318 12.7214 98.6406 12.3568 98.5625 12.1484C98.4323 11.9661 98.2891 11.7578 98.1328 11.5234C98.0026 11.2891 97.8333 11.0807 97.625 10.8984C97.4167 10.6901 97.1562 10.5208 96.8438 10.3906C96.5312 10.2604 96.1667 10.2083 95.75 10.2344C95.3073 10.2604 94.9557 10.3776 94.6953 10.5859C94.4349 10.7943 94.2266 11.0417 94.0703 11.3281C93.9401 11.5885 93.862 11.875 93.8359 12.1875C93.8099 12.5 93.8229 12.7734 93.875 13.0078C93.9271 13.1641 94.0052 13.3333 94.1094 13.5156C94.2135 13.6719 94.3568 13.8411 94.5391 14.0234C94.7214 14.2057 94.9688 14.362 95.2812 14.4922C94.6823 14.5703 94.1484 14.6354 93.6797 14.6875C93.2109 14.7135 92.8073 14.7526 92.4688 14.8047C92.0781 14.8568 91.7396 14.8958 91.4531 14.9219C91.1667 14.9479 90.8281 15 90.4375 15.0781C90.099 15.1302 89.6823 15.1953 89.1875 15.2734C88.6927 15.3516 88.1198 15.4557 87.4688 15.5859C87.625 15.4036 87.7682 15.2344 87.8984 15.0781C88.0286 14.8958 88.1458 14.7396 88.25 14.6094C88.3542 14.4531 88.4583 14.3099 88.5625 14.1797ZM94.4219 18.8281C93.9531 18.8542 93.4844 18.9714 93.0156 19.1797C92.5469 19.362 92.1302 19.6354 91.7656 20C91.401 20.3385 91.0885 20.7422 90.8281 21.2109C90.5938 21.6536 90.4766 22.1484 90.4766 22.6953C90.4766 23.2422 90.6068 23.724 90.8672 24.1406C91.1536 24.5312 91.5182 24.8568 91.9609 25.1172C92.4297 25.3776 92.9245 25.5339 93.4453 25.5859C93.9922 25.638 94.526 25.5859 95.0469 25.4297C95.5417 25.2474 96.0104 24.9609 96.4531 24.5703C96.8958 24.1536 97.2734 23.7109 97.5859 23.2422C97.8984 22.7474 98.1198 22.2656 98.25 21.7969C98.3802 21.3021 98.3932 20.8984 98.2891 20.5859C98.0807 19.9089 97.612 19.4401 96.8828 19.1797C96.1536 18.8932 95.3333 18.776 94.4219 18.8281ZM108.016 31.0938C108.276 30.7031 108.484 30.3385 108.641 30C108.797 29.6615 108.927 29.375 109.031 29.1406C109.135 28.8542 109.214 28.5938 109.266 28.3594C109.292 28.2031 109.305 27.7474 109.305 26.9922C109.305 26.237 109.279 25.2865 109.227 24.1406C109.201 22.9948 109.161 21.7057 109.109 20.2734C109.083 18.8411 109.031 17.3828 108.953 15.8984C108.901 14.4141 108.836 12.9688 108.758 11.5625C108.706 10.1562 108.654 8.89323 108.602 7.77344C108.549 6.6276 108.497 5.6901 108.445 4.96094C108.393 4.23177 108.354 3.8151 108.328 3.71094C108.276 3.55469 108.185 3.39844 108.055 3.24219C107.794 2.92969 107.352 2.63021 106.727 2.34375C108.055 2.00521 109.07 1.73177 109.773 1.52344C110.19 1.41927 110.555 1.3151 110.867 1.21094C111.154 1.10677 111.44 1.0026 111.727 0.898438C111.961 0.794271 112.221 0.677083 112.508 0.546875C112.794 0.390625 113.055 0.221354 113.289 0.0390625C113.159 0.794271 113.055 1.52344 112.977 2.22656C112.898 2.92969 112.833 3.58073 112.781 4.17969C112.729 4.85677 112.703 5.50781 112.703 6.13281C112.573 7.40885 112.495 8.80208 112.469 10.3125C112.469 11.7969 112.482 13.3073 112.508 14.8438C112.534 16.3802 112.586 17.8776 112.664 19.3359C112.742 20.7943 112.82 22.1224 112.898 23.3203C113.003 24.4922 113.094 25.4948 113.172 26.3281C113.276 27.1354 113.354 27.6562 113.406 27.8906C113.51 28.2812 113.615 28.6589 113.719 29.0234C113.823 29.3359 113.94 29.6615 114.07 30C114.201 30.3646 114.357 30.651 114.539 30.8594H110.75C110.411 30.8594 110.086 30.8724 109.773 30.8984C109.487 30.9245 109.188 30.9505 108.875 30.9766C108.562 31.0026 108.276 31.0417 108.016 31.0938ZM128.953 1.67969C129.708 1.8099 130.372 1.90104 130.945 1.95312C131.544 2.00521 132.039 2.04427 132.43 2.07031C132.898 2.09635 133.302 2.10938 133.641 2.10938C133.979 2.10938 134.461 2.08333 135.086 2.03125C135.607 1.97917 136.284 1.91406 137.117 1.83594C137.977 1.75781 139.031 1.6276 140.281 1.44531C139.917 1.54948 139.578 1.84896 139.266 2.34375C138.979 2.8125 138.719 3.32031 138.484 3.86719C138.198 4.51823 137.951 5.23438 137.742 6.01562C137.56 6.71875 137.326 7.68229 137.039 8.90625C136.779 10.1302 136.518 11.4583 136.258 12.8906C136.023 14.3229 135.841 15.7812 135.711 17.2656C135.581 18.724 135.555 20.0651 135.633 21.2891C135.737 22.513 135.984 23.5286 136.375 24.3359C136.766 25.1172 137.365 25.5339 138.172 25.5859C139.396 25.6901 140.411 25.7031 141.219 25.625C142.052 25.5208 142.729 25.3776 143.25 25.1953C143.771 25.013 144.174 24.8047 144.461 24.5703C144.747 24.3099 144.969 24.0625 145.125 23.8281C145.542 23.2292 145.971 22.4609 146.414 21.5234C146.857 20.5859 147.247 19.6875 147.586 18.8281C147.951 17.9688 148.25 17.2396 148.484 16.6406C148.719 16.0417 148.836 15.7552 148.836 15.7812C148.836 15.8333 148.823 16.1328 148.797 16.6797C148.797 17.2005 148.784 17.8385 148.758 18.5938C148.758 19.3229 148.745 20.0911 148.719 20.8984C148.719 21.7057 148.706 22.3958 148.68 22.9688C148.654 23.4375 148.628 23.9583 148.602 24.5312C148.576 25.026 148.549 25.612 148.523 26.2891C148.523 26.9661 148.497 27.7083 148.445 28.5156C147.352 28.4375 146.31 28.3854 145.32 28.3594C144.331 28.3333 143.458 28.3203 142.703 28.3203C141.818 28.3203 140.997 28.3333 140.242 28.3594C139.435 28.3854 138.497 28.4245 137.43 28.4766C136.518 28.5286 135.385 28.5938 134.031 28.6719C132.677 28.724 131.115 28.8021 129.344 28.9062C129.552 28.5417 129.721 28.2031 129.852 27.8906C130.008 27.5781 130.125 27.3177 130.203 27.1094C130.307 26.849 130.372 26.6276 130.398 26.4453C130.555 25.612 130.685 24.5573 130.789 23.2812C130.893 21.9792 130.971 20.599 131.023 19.1406C131.102 17.6823 131.141 16.1979 131.141 14.6875C131.167 13.151 131.167 11.7318 131.141 10.4297C131.115 9.1276 131.062 7.99479 130.984 7.03125C130.932 6.06771 130.854 5.40365 130.75 5.03906C130.62 4.6224 130.464 4.20573 130.281 3.78906C130.125 3.42448 129.93 3.0599 129.695 2.69531C129.487 2.30469 129.24 1.96615 128.953 1.67969ZM151.023 12.5391L158.211 12.6172C157.794 14.2057 157.482 15.5599 157.273 16.6797C157.091 17.7995 156.974 18.737 156.922 19.4922C156.818 20.3516 156.792 21.0807 156.844 21.6797C156.922 22.2266 157.052 22.8125 157.234 23.4375C157.391 23.9583 157.625 24.5573 157.938 25.2344C158.25 25.9115 158.667 26.5885 159.188 27.2656C158.875 27.1615 158.536 27.0833 158.172 27.0312C157.807 26.9792 157.469 26.9401 157.156 26.9141C156.792 26.888 156.427 26.888 156.062 26.9141C155.698 26.9401 155.294 26.9792 154.852 27.0312C154.487 27.0833 154.044 27.1484 153.523 27.2266C153.003 27.3047 152.456 27.4089 151.883 27.5391C152.273 26.3672 152.573 25.3516 152.781 24.4922C153.016 23.6328 153.185 22.9167 153.289 22.3438C153.393 21.6667 153.458 21.1198 153.484 20.7031C153.484 20.1823 153.484 19.5964 153.484 18.9453C153.484 18.2682 153.484 17.6172 153.484 16.9922C153.484 16.3672 153.471 15.8203 153.445 15.3516C153.419 14.8568 153.367 14.5443 153.289 14.4141L152.898 14.0234C152.742 13.8932 152.508 13.7109 152.195 13.4766C151.909 13.2161 151.518 12.9036 151.023 12.5391ZM153.797 6.52344C154.344 6.23698 154.891 6.15885 155.438 6.28906C156.01 6.41927 156.453 6.66667 156.766 7.03125C157.078 7.39583 157.182 7.82552 157.078 8.32031C157 8.8151 156.583 9.29688 155.828 9.76562C155.073 10.2083 154.409 10.3646 153.836 10.2344C153.263 10.1042 152.859 9.83073 152.625 9.41406C152.391 8.9974 152.352 8.51562 152.508 7.96875C152.664 7.39583 153.094 6.91406 153.797 6.52344ZM160.594 2.57812C161.193 2.73438 161.74 2.85156 162.234 2.92969C162.755 2.98177 163.198 3.02083 163.562 3.04688C164.005 3.07292 164.409 3.08594 164.773 3.08594C165.138 3.08594 165.594 3.0599 166.141 3.00781C167.104 2.92969 168.471 2.73438 170.242 2.42188C169.956 2.63021 169.682 2.83854 169.422 3.04688C169.188 3.22917 168.979 3.41146 168.797 3.59375L168.211 4.17969C167.872 4.64844 167.534 5.44271 167.195 6.5625C166.909 7.52604 166.596 8.88021 166.258 10.625C165.945 12.3698 165.659 14.6875 165.398 17.5781C166.674 16.3281 167.872 15.3906 168.992 14.7656C170.138 14.1146 171.141 13.6458 172 13.3594C173.016 13.0469 173.94 12.8776 174.773 12.8516C175.841 12.9297 176.766 13.151 177.547 13.5156C178.354 13.8542 179.031 14.2708 179.578 14.7656C180.151 15.2344 180.607 15.7292 180.945 16.25C181.31 16.7448 181.583 17.1875 181.766 17.5781C181.87 17.8385 181.948 18.3203 182 19.0234C182.078 19.7005 182.091 20.4818 182.039 21.3672C181.987 22.2526 181.844 23.1901 181.609 24.1797C181.401 25.1432 181.049 26.0417 180.555 26.875C180.086 27.6823 179.461 28.3594 178.68 28.9062C177.924 29.4531 176.974 29.7526 175.828 29.8047C174.5 29.8047 173.211 29.6484 171.961 29.3359C170.893 29.0755 169.76 28.6198 168.562 27.9688C167.391 27.2917 166.388 26.3281 165.555 25.0781C165.555 25.3906 165.555 25.7031 165.555 26.0156C165.555 26.3021 165.568 26.5495 165.594 26.7578C165.62 27.0443 165.646 27.2917 165.672 27.5C165.698 27.7344 165.763 27.9818 165.867 28.2422C165.945 28.4505 166.062 28.7109 166.219 29.0234C166.401 29.3099 166.635 29.5964 166.922 29.8828C166.635 29.8568 166.349 29.8438 166.062 29.8438C165.776 29.8177 165.49 29.8177 165.203 29.8438C164.891 29.8698 164.578 29.8958 164.266 29.9219C163.953 29.9479 163.628 29.987 163.289 30.0391C163.003 30.0911 162.664 30.1562 162.273 30.2344C161.883 30.3125 161.479 30.4036 161.062 30.5078C161.141 30.2734 161.206 29.9349 161.258 29.4922C161.31 29.0234 161.362 28.5156 161.414 27.9688C161.492 27.3958 161.544 26.7969 161.57 26.1719C161.622 25.5469 161.674 24.9219 161.727 24.2969C161.831 22.8646 161.922 21.3021 162 19.6094C162.078 16.9792 162.091 14.5312 162.039 12.2656C162.013 11.3021 161.961 10.3255 161.883 9.33594C161.831 8.34635 161.753 7.42188 161.648 6.5625C161.544 5.67708 161.401 4.89583 161.219 4.21875C161.062 3.51562 160.854 2.96875 160.594 2.57812ZM165.672 21.6016C166.089 22.3568 166.531 23.0078 167 23.5547C167.469 24.0755 167.938 24.5182 168.406 24.8828C168.875 25.2474 169.331 25.5339 169.773 25.7422C170.242 25.9505 170.685 26.1068 171.102 26.2109C172.065 26.4714 173.016 26.4974 173.953 26.2891C174.891 26.0286 175.62 25.5078 176.141 24.7266C176.661 23.9453 177.065 23.0599 177.352 22.0703C177.482 21.6016 177.56 21.0026 177.586 20.2734C177.638 19.5443 177.56 18.8411 177.352 18.1641C177.169 17.4609 176.831 16.849 176.336 16.3281C175.841 15.7812 175.125 15.4557 174.188 15.3516C173.536 15.3516 172.781 15.5339 171.922 15.8984C171.167 16.2109 170.268 16.7318 169.227 17.4609C168.185 18.1641 167 19.2188 165.672 20.625V21.6016ZM183.484 11.2891C183.979 11.3151 184.422 11.3281 184.812 11.3281C185.229 11.3021 185.581 11.276 185.867 11.25C186.206 11.224 186.505 11.1979 186.766 11.1719C187.156 11.1198 187.56 11.0547 187.977 10.9766C188.341 10.9245 188.719 10.8594 189.109 10.7812C189.526 10.6771 189.93 10.5599 190.32 10.4297C190.164 10.8203 190.034 11.1589 189.93 11.4453C189.826 11.7318 189.747 11.9792 189.695 12.1875C189.617 12.4219 189.578 12.6172 189.578 12.7734C189.552 12.9557 189.539 13.1771 189.539 13.4375C189.513 13.8802 189.513 14.5964 189.539 15.5859C190.893 14.4141 192.026 13.5026 192.938 12.8516C193.875 12.2005 194.617 11.6927 195.164 11.3281C195.815 10.9115 196.323 10.638 196.688 10.5078C197.651 10.3516 198.497 10.5729 199.227 11.1719C199.539 11.4323 199.839 11.7839 200.125 12.2266C200.411 12.6432 200.659 13.2031 200.867 13.9062C201.076 14.6094 201.232 15.4557 201.336 16.4453C201.44 17.4089 201.453 18.5677 201.375 19.9219C200.828 19.974 200.333 20.026 199.891 20.0781C199.474 20.1302 199.122 20.1693 198.836 20.1953C198.497 20.2474 198.185 20.2734 197.898 20.2734L196.844 20.3906C196.479 20.4427 196.023 20.4948 195.477 20.5469C194.956 20.5729 194.318 20.625 193.562 20.7031C194.656 19.8177 195.359 19.0495 195.672 18.3984C196.01 17.7214 196.154 17.1615 196.102 16.7188C196.049 16.224 195.815 15.7943 195.398 15.4297C194.904 15.1432 194.37 15.0391 193.797 15.1172C193.302 15.1693 192.729 15.3906 192.078 15.7812C191.427 16.1719 190.737 16.901 190.008 17.9688C190.06 19.6354 190.112 21.0156 190.164 22.1094C190.242 23.2031 190.307 24.0885 190.359 24.7656C190.438 25.5469 190.503 26.1589 190.555 26.6016C190.633 26.9922 190.789 27.4089 191.023 27.8516C191.206 28.2161 191.466 28.6198 191.805 29.0625C192.143 29.5052 192.586 29.9479 193.133 30.3906C191.987 30.3385 191.049 30.3385 190.32 30.3906C189.878 30.4167 189.487 30.4427 189.148 30.4688C188.784 30.5208 188.393 30.5729 187.977 30.625C187.612 30.6771 187.182 30.7292 186.688 30.7812C186.219 30.8594 185.698 30.9375 185.125 31.0156C185.333 30.7292 185.503 30.3906 185.633 30C185.763 29.6354 185.867 29.2839 185.945 28.9453C186.049 28.5547 186.128 28.151 186.18 27.7344C186.206 27.3698 186.219 26.8229 186.219 26.0938C186.245 25.3646 186.232 24.5443 186.18 23.6328C186.154 22.6953 186.115 21.7318 186.062 20.7422C186.01 19.7266 185.945 18.776 185.867 17.8906C185.789 17.0052 185.698 16.237 185.594 15.5859C185.516 14.9089 185.424 14.4401 185.32 14.1797C185.19 13.8672 185.034 13.5547 184.852 13.2422C184.695 12.9557 184.5 12.6562 184.266 12.3438C184.031 12.0052 183.771 11.6536 183.484 11.2891ZM205.945 14.1797C206.076 14.0234 206.154 13.737 206.18 13.3203C206.232 12.8776 206.336 12.3828 206.492 11.8359C206.674 11.2891 206.974 10.7161 207.391 10.1172C207.807 9.51823 208.484 8.95833 209.422 8.4375C210.333 7.91667 211.219 7.60417 212.078 7.5C212.938 7.39583 213.758 7.4349 214.539 7.61719C215.32 7.79948 216.049 8.08594 216.727 8.47656C217.43 8.86719 218.068 9.29688 218.641 9.76562C219.031 10.0781 219.344 10.5339 219.578 11.1328C219.812 11.7057 219.995 12.3568 220.125 13.0859C220.255 13.8151 220.346 14.5833 220.398 15.3906C220.477 16.1719 220.529 16.9401 220.555 17.6953C220.581 18.4245 220.594 19.1016 220.594 19.7266C220.62 20.3255 220.672 20.8203 220.75 21.2109C220.854 21.7839 221.036 22.2786 221.297 22.6953C221.557 23.0859 221.844 23.4245 222.156 23.7109C222.469 23.9714 222.781 24.1797 223.094 24.3359C223.406 24.4922 223.68 24.6094 223.914 24.6875C224.07 24.7656 224.214 24.8177 224.344 24.8438C224.604 24.9479 224.786 24.9479 224.891 24.8438C224.734 25.2083 224.591 25.5208 224.461 25.7812C224.331 26.0417 224.227 26.263 224.148 26.4453C224.044 26.6536 223.953 26.8229 223.875 26.9531C223.797 27.1094 223.706 27.2526 223.602 27.3828C223.523 27.513 223.419 27.6562 223.289 27.8125C223.159 27.9688 223.029 28.138 222.898 28.3203C222.56 28.1901 222.234 28.0339 221.922 27.8516C221.635 27.6693 221.375 27.5 221.141 27.3438C220.854 27.1615 220.594 26.9792 220.359 26.7969C220.125 26.6146 219.904 26.4062 219.695 26.1719C219.513 25.9635 219.318 25.7422 219.109 25.5078C218.927 25.2734 218.771 25.013 218.641 24.7266C218.484 25.0651 218.107 25.5469 217.508 26.1719C216.935 26.7969 216.18 27.3698 215.242 27.8906C214.305 28.3854 213.211 28.737 211.961 28.9453C210.737 29.1536 209.383 29.0104 207.898 28.5156C207.247 28.3073 206.635 28.0078 206.062 27.6172C205.49 27.2005 204.995 26.7057 204.578 26.1328C204.188 25.5599 203.901 24.9089 203.719 24.1797C203.562 23.4245 203.576 22.5911 203.758 21.6797C203.94 20.7682 204.266 20 204.734 19.375C205.203 18.75 205.763 18.2422 206.414 17.8516C207.065 17.4609 207.794 17.1615 208.602 16.9531C209.409 16.7448 210.242 16.6016 211.102 16.5234C211.779 16.4974 212.456 16.5365 213.133 16.6406C213.706 16.7448 214.305 16.9401 214.93 17.2266C215.555 17.487 216.089 17.8906 216.531 18.4375C216.505 17.0573 216.453 15.9635 216.375 15.1562C216.323 14.3229 216.271 13.6849 216.219 13.2422C216.115 12.7214 216.023 12.3568 215.945 12.1484C215.815 11.9661 215.672 11.7578 215.516 11.5234C215.385 11.2891 215.216 11.0807 215.008 10.8984C214.799 10.6901 214.539 10.5208 214.227 10.3906C213.914 10.2604 213.549 10.2083 213.133 10.2344C212.69 10.2604 212.339 10.3776 212.078 10.5859C211.818 10.7943 211.609 11.0417 211.453 11.3281C211.323 11.5885 211.245 11.875 211.219 12.1875C211.193 12.5 211.206 12.7734 211.258 13.0078C211.31 13.1641 211.388 13.3333 211.492 13.5156C211.596 13.6719 211.74 13.8411 211.922 14.0234C212.104 14.2057 212.352 14.362 212.664 14.4922C212.065 14.5703 211.531 14.6354 211.062 14.6875C210.594 14.7135 210.19 14.7526 209.852 14.8047C209.461 14.8568 209.122 14.8958 208.836 14.9219C208.549 14.9479 208.211 15 207.82 15.0781C207.482 15.1302 207.065 15.1953 206.57 15.2734C206.076 15.3516 205.503 15.4557 204.852 15.5859C205.008 15.4036 205.151 15.2344 205.281 15.0781C205.411 14.8958 205.529 14.7396 205.633 14.6094C205.737 14.4531 205.841 14.3099 205.945 14.1797ZM211.805 18.8281C211.336 18.8542 210.867 18.9714 210.398 19.1797C209.93 19.362 209.513 19.6354 209.148 20C208.784 20.3385 208.471 20.7422 208.211 21.2109C207.977 21.6536 207.859 22.1484 207.859 22.6953C207.859 23.2422 207.99 23.724 208.25 24.1406C208.536 24.5312 208.901 24.8568 209.344 25.1172C209.812 25.3776 210.307 25.5339 210.828 25.5859C211.375 25.638 211.909 25.5859 212.43 25.4297C212.924 25.2474 213.393 24.9609 213.836 24.5703C214.279 24.1536 214.656 23.7109 214.969 23.2422C215.281 22.7474 215.503 22.2656 215.633 21.7969C215.763 21.3021 215.776 20.8984 215.672 20.5859C215.464 19.9089 214.995 19.4401 214.266 19.1797C213.536 18.8932 212.716 18.776 211.805 18.8281ZM224.109 11.2891C224.604 11.3151 225.047 11.3281 225.438 11.3281C225.854 11.3021 226.206 11.276 226.492 11.25C226.831 11.224 227.13 11.1979 227.391 11.1719C227.781 11.1198 228.185 11.0547 228.602 10.9766C228.966 10.9245 229.344 10.8594 229.734 10.7812C230.151 10.6771 230.555 10.5599 230.945 10.4297C230.789 10.8203 230.659 11.1589 230.555 11.4453C230.451 11.7318 230.372 11.9792 230.32 12.1875C230.242 12.4219 230.203 12.6172 230.203 12.7734C230.177 12.9557 230.164 13.1771 230.164 13.4375C230.138 13.8802 230.138 14.5964 230.164 15.5859C231.518 14.4141 232.651 13.5026 233.562 12.8516C234.5 12.2005 235.242 11.6927 235.789 11.3281C236.44 10.9115 236.948 10.638 237.312 10.5078C238.276 10.3516 239.122 10.5729 239.852 11.1719C240.164 11.4323 240.464 11.7839 240.75 12.2266C241.036 12.6432 241.284 13.2031 241.492 13.9062C241.701 14.6094 241.857 15.4557 241.961 16.4453C242.065 17.4089 242.078 18.5677 242 19.9219C241.453 19.974 240.958 20.026 240.516 20.0781C240.099 20.1302 239.747 20.1693 239.461 20.1953C239.122 20.2474 238.81 20.2734 238.523 20.2734L237.469 20.3906C237.104 20.4427 236.648 20.4948 236.102 20.5469C235.581 20.5729 234.943 20.625 234.188 20.7031C235.281 19.8177 235.984 19.0495 236.297 18.3984C236.635 17.7214 236.779 17.1615 236.727 16.7188C236.674 16.224 236.44 15.7943 236.023 15.4297C235.529 15.1432 234.995 15.0391 234.422 15.1172C233.927 15.1693 233.354 15.3906 232.703 15.7812C232.052 16.1719 231.362 16.901 230.633 17.9688C230.685 19.6354 230.737 21.0156 230.789 22.1094C230.867 23.2031 230.932 24.0885 230.984 24.7656C231.062 25.5469 231.128 26.1589 231.18 26.6016C231.258 26.9922 231.414 27.4089 231.648 27.8516C231.831 28.2161 232.091 28.6198 232.43 29.0625C232.768 29.5052 233.211 29.9479 233.758 30.3906C232.612 30.3385 231.674 30.3385 230.945 30.3906C230.503 30.4167 230.112 30.4427 229.773 30.4688C229.409 30.5208 229.018 30.5729 228.602 30.625C228.237 30.6771 227.807 30.7292 227.312 30.7812C226.844 30.8594 226.323 30.9375 225.75 31.0156C225.958 30.7292 226.128 30.3906 226.258 30C226.388 29.6354 226.492 29.2839 226.57 28.9453C226.674 28.5547 226.753 28.151 226.805 27.7344C226.831 27.3698 226.844 26.8229 226.844 26.0938C226.87 25.3646 226.857 24.5443 226.805 23.6328C226.779 22.6953 226.74 21.7318 226.688 20.7422C226.635 19.7266 226.57 18.776 226.492 17.8906C226.414 17.0052 226.323 16.237 226.219 15.5859C226.141 14.9089 226.049 14.4401 225.945 14.1797C225.815 13.8672 225.659 13.5547 225.477 13.2422C225.32 12.9557 225.125 12.6562 224.891 12.3438C224.656 12.0052 224.396 11.6536 224.109 11.2891ZM241.648 10.0391C242.169 10.1172 242.638 10.1823 243.055 10.2344C243.445 10.2604 243.797 10.2865 244.109 10.3125C244.448 10.3385 244.773 10.3516 245.086 10.3516C245.372 10.3516 245.737 10.3385 246.18 10.3125C246.544 10.2865 247.013 10.2604 247.586 10.2344C248.185 10.1823 248.888 10.1172 249.695 10.0391C249.643 10.1432 249.539 10.4688 249.383 11.0156C249.227 11.5365 249.07 12.1875 248.914 12.9688C248.758 13.724 248.615 14.5703 248.484 15.5078C248.38 16.4193 248.328 17.3307 248.328 18.2422C248.354 19.1276 248.471 19.974 248.68 20.7812C248.888 21.5625 249.227 22.2005 249.695 22.6953C250.685 23.7109 251.557 24.3229 252.312 24.5312C253.094 24.7396 253.771 24.7135 254.344 24.4531C254.917 24.1927 255.385 23.8021 255.75 23.2812C256.115 22.7604 256.375 22.2786 256.531 21.8359C256.922 20.638 257.156 19.375 257.234 18.0469C257.286 16.901 257.195 15.625 256.961 14.2188C256.727 12.8125 256.167 11.3802 255.281 9.92188C255.958 9.97396 256.544 10.013 257.039 10.0391C257.534 10.0651 257.964 10.0911 258.328 10.1172C258.745 10.1432 259.109 10.1693 259.422 10.1953C259.708 10.2214 260.047 10.2214 260.438 10.1953C260.776 10.1953 261.18 10.1823 261.648 10.1562C262.143 10.1042 262.69 10.0521 263.289 10C263.393 12.5521 263.484 14.8307 263.562 16.8359C263.641 18.8151 263.693 20.5729 263.719 22.1094C263.771 23.6198 263.797 24.9349 263.797 26.0547C263.797 27.1484 263.797 28.0729 263.797 28.8281C263.771 30.625 263.693 31.8099 263.562 32.3828C263.354 33.1901 262.977 33.9974 262.43 34.8047C261.909 35.612 261.245 36.3281 260.438 36.9531C259.63 37.6042 258.693 38.099 257.625 38.4375C256.583 38.8021 255.438 38.9323 254.188 38.8281C252.964 38.724 251.987 38.5547 251.258 38.3203C250.555 38.112 249.995 37.8646 249.578 37.5781C249.188 37.2917 248.901 36.9922 248.719 36.6797C248.562 36.3672 248.445 36.0417 248.367 35.7031C248.289 35.3906 248.211 35.0911 248.133 34.8047C248.055 34.5182 247.898 34.2708 247.664 34.0625C247.378 33.8281 247.078 33.5938 246.766 33.3594C246.479 33.151 246.167 32.9427 245.828 32.7344C245.516 32.526 245.203 32.3568 244.891 32.2266L253.211 31.7578C252.977 32.0703 252.807 32.3568 252.703 32.6172C252.599 32.8776 252.534 33.099 252.508 33.2812C252.482 33.5156 252.495 33.7109 252.547 33.8672C252.651 34.1797 252.833 34.5182 253.094 34.8828C253.38 35.2734 253.745 35.5729 254.188 35.7812C254.63 36.0156 255.151 36.0938 255.75 36.0156C256.375 35.9375 257.078 35.612 257.859 35.0391C258.51 34.5443 259.057 33.75 259.5 32.6562C259.865 31.7188 260.151 30.4036 260.359 28.7109C260.568 27.0182 260.529 24.7917 260.242 22.0312C259.773 23.6458 259.135 24.8828 258.328 25.7422C257.521 26.6016 256.714 27.2266 255.906 27.6172C254.969 28.0859 253.992 28.3333 252.977 28.3594C251.622 28.3073 250.464 28.138 249.5 27.8516C248.536 27.5391 247.742 27.1224 247.117 26.6016C246.492 26.0807 245.997 25.4688 245.633 24.7656C245.294 24.0365 245.047 23.2292 244.891 22.3438C244.734 21.4583 244.656 20.5729 244.656 19.6875C244.656 18.776 244.656 17.9297 244.656 17.1484C244.682 16.3672 244.695 15.6641 244.695 15.0391C244.695 14.388 244.63 13.8672 244.5 13.4766C244.344 13.0859 244.135 12.6953 243.875 12.3047C243.667 11.9661 243.38 11.6016 243.016 11.2109C242.625 10.7943 242.169 10.4036 241.648 10.0391Z" fill="#010101"/>
</svg>
