<svg width="250" height="250" viewBox="0 0 250 250" fill="none" xmlns="http://www.w3.org/2000/svg">
<mask id="mask0_24_251" style="mask-type:alpha" maskUnits="userSpaceOnUse" x="0" y="0" width="250" height="250">
<circle cx="125" cy="125" r="125" fill="#D9D9D9"/>
</mask>
<g mask="url(#mask0_24_251)">
<path d="M250 250H0V0H250V250Z" fill="#FFC3DF"/>
<path d="M136.973 193.946C97.6362 193.946 65.748 190.7 65.748 186.695C65.748 185.436 68.9 184.253 74.4444 183.221C75.9281 185.871 78.7981 187.755 83.9618 187.755C84.3275 187.755 84.7062 187.745 85.0944 187.726C90.3574 187.464 93.1149 184.744 94.3905 180.883C95.3849 180.807 96.4 180.734 97.4343 180.664C98.0843 181.237 98.7611 181.783 99.4649 182.3C105.389 186.658 113.04 188.868 122.209 188.868H162.538C163.726 189.06 164.921 189.141 166.109 189.141C166.32 189.141 166.531 189.138 166.74 189.133C167.817 189.106 168.886 189.016 169.946 188.868H190.315C197.671 188.868 201.494 186.526 203.478 184.095C206.526 184.902 208.197 185.779 208.197 186.695C208.197 190.7 176.308 193.946 136.973 193.946Z" fill="#CC9CC9"/>
<path d="M190.314 187.724C167.581 187.724 130.751 187.724 122.208 187.724C103.241 187.724 93.2905 178.095 89.333 165.848C85.1805 152.996 95.7217 133.368 95.7217 133.368C95.7217 133.368 121.17 134.31 140.874 135.766C156.459 136.918 160.397 138.541 166.147 143.837C175.216 152.19 175.047 164.676 175.047 164.676C175.047 164.676 185.744 164.604 195.557 167.313C207.126 170.506 209.546 187.724 190.314 187.724Z" fill="#9E9E9E"/>
<path d="M190.314 187.726H122.209C103.24 187.726 93.2898 178.095 89.3334 165.849C85.8604 155.101 92.6666 139.611 94.9848 134.828C95.4391 133.894 95.7223 133.368 95.7223 133.368C95.7223 133.368 117.962 134.191 136.96 135.489C138.283 135.577 139.593 135.672 140.876 135.766C156.46 136.918 160.397 138.542 166.147 143.838C175.215 152.192 175.047 164.675 175.047 164.675C175.047 164.675 179.918 164.643 186.103 165.458C189.082 165.846 192.366 166.432 195.557 167.313C207.126 170.506 209.546 187.726 190.314 187.726Z" fill="#8E8FB3"/>
<path d="M151.513 181.369C148.029 180.817 143.601 179.849 139.492 178.166C140.442 178.04 141.38 177.812 142.296 177.464C142.915 177.225 143.526 176.93 144.124 176.509C144.406 176.301 144.634 176.096 144.89 175.888C145.014 175.783 145.144 175.685 145.26 175.572L145.603 175.228C146.076 174.784 146.476 174.277 146.882 173.778L147.434 172.991C147.615 172.727 147.766 172.446 147.933 172.174C148.565 171.068 149.064 169.9 149.444 168.702C149.641 168.105 149.792 167.494 149.929 166.881C149.991 166.572 150.055 166.265 150.102 165.95C150.121 165.837 150.139 165.723 150.154 165.609C150.207 165.578 150.261 165.547 150.316 165.515C150.351 165.495 150.385 165.474 150.418 165.454C149.85 167.527 149.528 169.669 149.467 171.838C149.414 174.1 149.651 176.409 150.36 178.629C150.662 179.567 151.041 180.489 151.513 181.369ZM129.524 152.062C129.644 151.749 129.759 151.444 129.864 151.146C131.008 150.654 132.137 150.12 133.258 149.569C134.039 149.17 134.822 148.775 135.585 148.336C136.05 148.086 136.504 147.817 136.956 147.541C135.052 149.056 132.411 150.548 129.524 152.062Z" fill="#797AA9"/>
<path d="M161.035 187.726H122.21C103.241 187.726 93.2902 178.095 89.334 165.849C85.8608 155.101 92.6671 139.61 94.9852 134.828C112.234 136.861 129.845 143.792 130.469 147.337C130.709 148.706 130.214 150.27 129.522 152.062C121.942 156.039 112.68 160.161 110.736 165.229C108.026 172.298 113.766 177.237 120.043 178.375C125.689 179.401 130.448 177.966 134.524 175.614C143.552 181.468 157.91 182.074 157.91 182.074L161.035 187.726Z" fill="#686868"/>
<path d="M190.314 187.726H184.682C187.061 184.19 189.897 177.038 186.103 165.458C189.082 165.846 192.366 166.432 195.557 167.313C207.126 170.506 209.546 187.726 190.314 187.726Z" fill="white"/>
<path d="M194.735 186.206C195.077 185.8 195.379 185.371 195.652 184.929C195.947 184.427 196.211 183.909 196.43 183.376C197.306 181.243 197.568 178.883 197.19 176.611C196.808 174.338 195.76 172.204 194.312 170.474C193.589 169.604 192.775 168.827 191.909 168.131L191.248 167.624C191.142 167.549 191.034 167.474 190.927 167.401C191.154 167.446 191.382 167.492 191.609 167.539C194.659 169.853 198.051 173.221 198.581 179.076C198.67 180.061 199.491 180.651 200.318 180.651C200.843 180.651 201.37 180.413 201.714 179.888C202.312 178.975 202.852 177.82 203.18 176.379C203.302 176.955 203.365 177.53 203.365 178.091C203.365 178.423 203.343 178.75 203.3 179.07C202.798 182.769 199.687 185.296 194.735 186.206Z" fill="#D9D9EA"/>
<path d="M196.68 183.386C196.917 183.425 197.214 183.46 197.487 183.469C197.766 183.484 198.044 183.479 198.32 183.466C198.873 183.435 199.414 183.34 199.925 183.189C200.184 183.121 200.426 183.016 200.669 182.921C200.787 182.867 200.9 182.803 201.016 182.746C201.134 182.693 201.243 182.626 201.35 182.555C201.793 182.3 202.158 181.944 202.508 181.593L202.555 181.546C203.003 181.096 203.73 181.094 204.179 181.542C204.629 181.99 204.63 182.717 204.183 183.166C204.144 183.206 204.098 183.245 204.054 183.278C203.486 183.7 202.896 184.092 202.244 184.344C202.084 184.416 201.923 184.48 201.757 184.528C201.592 184.579 201.429 184.636 201.264 184.681C200.929 184.757 200.598 184.836 200.263 184.871C199.595 184.956 198.929 184.961 198.279 184.895C197.954 184.859 197.633 184.813 197.315 184.745C196.991 184.678 196.696 184.599 196.352 184.481C196.054 184.379 195.895 184.055 195.997 183.757C196.087 183.49 196.357 183.333 196.628 183.378L196.68 183.386Z" fill="#000072"/>
<path d="M198.535 174.541C199.065 174.502 199.554 174.497 200.065 174.512C200.573 174.53 201.084 174.572 201.598 174.644C202.113 174.72 202.631 174.832 203.151 174.985C203.672 175.148 204.194 175.363 204.708 175.656L204.715 175.66C205.268 175.974 205.46 176.676 205.147 177.228C204.833 177.78 204.131 177.973 203.58 177.659C203.513 177.622 203.447 177.574 203.392 177.527C203.107 177.278 202.772 177.045 202.401 176.84C202.024 176.642 201.621 176.463 201.197 176.312C200.774 176.163 200.334 176.036 199.885 175.93C199.442 175.826 198.969 175.739 198.535 175.684L198.506 175.681C198.191 175.642 197.969 175.355 198.008 175.041C198.042 174.765 198.268 174.56 198.535 174.541Z" fill="#000072"/>
<path d="M161.035 187.726H122.21C103.241 187.726 93.2902 178.095 89.334 165.849C85.8608 155.101 92.6671 139.61 94.9852 134.828C112.234 136.861 129.846 143.791 130.468 147.336C131.275 151.942 123.777 158.751 128.476 169.042C133.965 181.065 157.91 182.074 157.91 182.074L161.035 187.726Z" fill="white"/>
<path d="M151.514 181.369C148.03 180.818 143.601 179.849 139.492 178.166C143.601 179.849 148.029 180.817 151.514 181.369Z" fill="#595969"/>
<path d="M156.361 186.581H122.208C108.304 186.581 100.119 181.378 95.3065 175.043C95.3172 174.707 95.3215 174.369 95.3215 174.028C95.3215 173.404 95.3046 172.772 95.2734 172.135C95.1959 170.535 95.0278 168.905 94.8071 167.29C94.5383 165.298 94.1872 163.334 93.8271 161.49C93.7347 161.012 93.6227 160.56 93.4927 160.135C93.2959 159.486 93.0584 158.895 92.7871 158.361C93.0584 158.363 93.3302 158.364 93.6015 158.364C95.0372 158.364 96.4707 158.336 97.9 158.288H97.9029C98.1638 158.28 98.3902 158.09 98.4353 157.823C98.4439 157.77 98.4449 157.719 98.4401 157.669L112.914 155.82C112.915 155.838 112.919 155.856 112.924 155.874C112.985 156.129 113.214 156.3 113.465 156.3C113.509 156.3 113.553 156.295 113.597 156.284L113.602 156.283C116.938 155.47 120.279 154.59 123.577 153.508C124.401 153.241 125.221 152.951 126.041 152.663C126.854 152.351 127.671 152.054 128.477 151.72C128.941 151.536 129.402 151.345 129.862 151.147C129.756 151.446 129.642 151.751 129.521 152.063C121.941 156.039 112.678 160.161 110.735 165.229C108.025 172.298 113.765 177.238 120.043 178.375C121.308 178.606 122.53 178.712 123.709 178.712C126.806 178.712 129.611 177.978 132.165 176.827C132.929 177.285 133.753 177.633 134.595 177.863C135.63 178.155 136.688 178.282 137.738 178.282C137.989 178.282 138.238 178.275 138.487 178.261C138.823 178.242 139.157 178.211 139.491 178.166C143.6 179.85 148.028 180.818 151.513 181.37C151.597 181.527 151.684 181.683 151.775 181.838C152.374 182.854 153.099 183.806 153.94 184.643C154.67 185.38 155.491 186.026 156.361 186.581Z" fill="#D9D9EA"/>
<path d="M96.406 134.538C94.691 137.958 86.8729 154.516 90.4211 165.497C93.5291 175.115 101.567 186.581 122.209 186.581H190.314C197.808 186.581 202.662 183.773 203.299 179.07C203.841 175.074 200.979 169.996 195.252 168.415C185.714 165.783 175.159 165.818 175.053 165.82L173.887 165.826L173.904 164.66C173.905 164.541 173.942 152.571 165.373 144.678C159.841 139.583 156.159 138.043 140.79 136.906C123.181 135.605 100.707 134.705 96.406 134.538ZM190.314 188.868H122.209C113.04 188.868 105.388 186.658 99.4648 182.3C94.2267 178.447 90.4523 173.03 88.2454 166.2C83.9911 153.036 94.2742 133.647 94.7142 132.827L95.051 132.199L95.7642 132.226C96.0185 132.235 121.459 133.185 140.959 134.626C156.899 135.804 161.022 137.562 166.922 142.996C174.738 150.195 175.968 160.172 176.157 163.543C179.177 163.602 187.747 163.971 195.861 166.211C202.071 167.925 206.333 173.708 205.566 179.377C205.264 181.603 203.273 188.868 190.314 188.868Z" fill="#3A3A3A"/>
<path d="M96.406 134.538C94.691 137.958 86.8729 154.516 90.4211 165.497C93.5291 175.115 101.567 186.581 122.209 186.581H190.314C197.808 186.581 202.662 183.773 203.299 179.07C203.841 175.074 200.979 169.996 195.252 168.415C185.714 165.783 175.159 165.818 175.053 165.82L173.887 165.826L173.904 164.66C173.905 164.541 173.942 152.571 165.373 144.678C159.841 139.583 156.159 138.043 140.79 136.906C123.181 135.605 100.707 134.705 96.406 134.538ZM190.314 188.868H122.209C113.04 188.868 105.388 186.658 99.4648 182.3C94.2267 178.447 90.4523 173.03 88.2454 166.2C83.9911 153.036 94.2742 133.647 94.7142 132.827L95.051 132.199L95.7642 132.226C96.0185 132.235 121.459 133.185 140.959 134.626C156.899 135.804 161.022 137.562 166.922 142.996C174.738 150.195 175.968 160.172 176.157 163.543C179.177 163.602 187.747 163.971 195.861 166.211C202.071 167.925 206.333 173.708 205.566 179.377C205.264 181.603 203.273 188.868 190.314 188.868Z" fill="#000072"/>
<path d="M208.064 112.009C208.041 112.184 208.015 112.36 207.989 112.532C207.91 113.028 207.815 113.51 207.695 113.969C204.999 124.346 192.238 123.088 191.996 111.609C191.824 103.439 188.048 100.84 184.504 101.337C183.955 101.415 183.412 101.567 182.888 101.781C181.716 102.264 180.642 103.076 179.827 104.104C179.14 104.974 178.641 106.003 178.42 107.127C178.01 109.259 178.178 111.394 178.755 113.53C179.97 118.029 183.009 122.531 186.296 126.999C187.237 128.279 188.197 129.551 189.14 130.826C190.212 132.27 191.064 133.742 191.713 135.234C192.82 137.775 193.342 140.357 193.347 142.869C193.351 145.073 192.96 147.22 192.216 149.233C188.66 158.9 177.065 165.495 162.779 160.464L164.293 147.934C167.115 149.83 169.962 150.519 172.483 150.421C172.778 150.413 173.07 150.39 173.356 150.359H173.358C173.458 150.347 173.559 150.336 173.652 150.319C177.417 149.81 180.262 147.571 180.894 145.245C182.897 137.909 172.678 125.355 169.424 118.3C163.368 105.157 168.378 92.8674 179.147 88.6293C180.613 88.0518 182.187 87.6231 183.855 87.3625C184.752 87.2201 185.681 87.1302 186.633 87.0904C187.328 87.0622 188.005 87.0622 188.663 87.0969C203.007 87.8028 209.207 102.595 208.064 112.009Z" fill="#8E8FB3"/>
<path d="M177.455 161.666C177.414 161.306 177.368 160.947 177.315 160.591C177.08 159.024 176.736 157.474 176.276 155.957C175.962 154.924 175.594 153.906 175.172 152.909C177.115 154.14 179.608 154.904 182.167 154.904C185.864 154.905 189.698 153.311 192.217 149.232C189.996 155.269 184.642 160.107 177.455 161.666Z" fill="#797AA9"/>
<path d="M182.797 121.978C181.291 119.632 180.014 117.28 179.19 114.927C180.014 117.279 181.291 119.632 182.797 121.978ZM178.213 110.252C178.158 109.209 178.219 108.167 178.42 107.127C178.641 106.003 179.141 104.975 179.828 104.104C179.98 103.911 180.143 103.725 180.313 103.548C180.144 103.725 179.981 103.911 179.829 104.105C179.141 104.976 178.641 106.003 178.422 107.128C178.221 108.168 178.158 109.209 178.213 110.252Z" fill="#D9A6CF"/>
<path d="M186.296 126.998C183.206 124.69 176.193 118.704 173.981 110.525C172.31 104.343 176.131 99.6675 180.642 97.5851C180.639 97.6114 180.638 97.6376 180.638 97.6628C180.638 97.7428 180.649 97.8102 180.669 97.8639C180.686 97.9085 180.71 97.9428 180.743 97.9679C180.753 97.9748 180.769 97.9771 180.788 97.9771C180.907 97.9771 181.196 97.8754 181.484 97.7725C181.772 97.6708 182.058 97.5679 182.167 97.5679C182.179 97.5679 182.189 97.5691 182.197 97.5725C182.207 97.5759 182.213 97.5828 182.213 97.5931C182.213 97.5942 182.213 97.5942 182.213 97.5953C182.203 97.7634 182.193 97.9736 182.193 98.2217C182.193 98.6697 182.227 99.2446 182.362 99.9406C182.466 100.482 182.631 101.096 182.889 101.78C181.935 102.173 181.049 102.78 180.314 103.548C180.143 103.725 179.981 103.911 179.828 104.104C179.141 104.974 178.642 106.003 178.421 107.126C178.22 108.167 178.158 109.21 178.213 110.252C178.271 111.344 178.46 112.437 178.755 113.53C178.88 113.995 179.027 114.46 179.189 114.925V114.927L179.19 114.928C180.014 117.28 181.291 119.632 182.797 121.978C183.875 123.656 185.067 125.329 186.296 126.998Z" fill="#797AA9"/>
<path d="M199.812 121.041C199.198 121.041 198.585 120.961 197.989 120.8C198.444 120.922 198.906 120.998 199.373 121.027C199.52 121.036 199.666 121.041 199.812 121.041Z" fill="#D9A6CF"/>
<path d="M199.372 121.028C198.905 120.999 198.443 120.923 197.989 120.801C196.751 120.468 195.586 119.793 194.616 118.782C195.941 120.163 197.634 120.918 199.372 121.028ZM191.26 106.513C191.259 106.512 191.259 106.512 191.259 106.512L191.26 106.513ZM191.258 106.509C190.991 105.65 190.66 104.909 190.281 104.278C190.661 104.909 190.991 105.65 191.258 106.509Z" fill="#797AA9"/>
<path d="M180.744 97.9663C180.807 98.0123 181.147 97.8923 181.486 97.7724C181.854 97.641 182.219 97.5108 182.213 97.595C182.172 98.3032 182.117 99.7285 182.889 101.78C182.897 101.777 182.903 101.775 182.911 101.774C183.013 101.728 183.114 101.69 183.218 101.657C183.308 101.622 183.398 101.594 183.489 101.566C183.56 101.544 183.636 101.521 183.71 101.502C183.776 101.484 183.846 101.465 183.915 101.45C184.11 101.403 184.307 101.366 184.506 101.339C188.049 100.841 191.825 103.438 191.996 111.608C192.239 123.087 205 124.347 207.696 113.969C207.815 113.508 207.911 113.03 207.991 112.532C206.059 114.625 200.992 118.541 197.255 115.661C191.996 111.608 196.456 102.409 189.623 97.4917C187.45 95.9298 183.87 96.0932 180.642 97.5848C180.629 97.7698 180.657 97.9038 180.744 97.9663Z" fill="#686868"/>
<path d="M182.888 101.781C183.413 101.565 183.955 101.414 184.505 101.338C188.049 100.842 191.825 103.438 191.996 111.609C192.238 123.088 204.999 124.347 207.696 113.969C207.815 113.508 207.91 113.029 207.99 112.531C208.014 112.36 208.039 112.184 208.062 112.008C209.207 102.595 203.007 87.8014 188.662 87.098C188.005 87.0621 187.328 87.0608 186.633 87.0903C185.681 87.1314 184.753 87.22 183.855 87.3624C183.052 88.0953 181.19 90.7226 180.987 93.1535C180.974 93.3024 181.297 93.1753 181.62 93.0483C181.95 92.9199 182.278 92.7903 182.25 92.9546C182.056 94.0494 180.181 97.5584 180.743 97.9678C180.805 98.0128 181.146 97.8921 181.484 97.7727C181.852 97.6418 182.218 97.5109 182.213 97.5956C182.173 98.3028 182.115 99.7275 182.888 101.781Z" fill="white"/>
<path d="M185.336 101.28C185.059 101.28 184.781 101.3 184.506 101.339C184.308 101.366 184.111 101.402 183.915 101.449C183.848 101.464 183.779 101.484 183.71 101.501C183.635 101.522 183.561 101.544 183.489 101.566C183.399 101.594 183.308 101.622 183.218 101.655C183.114 101.692 183.014 101.731 182.91 101.773C182.938 101.761 182.966 101.75 182.993 101.738C183.027 101.726 183.061 101.712 183.096 101.699C183.117 101.691 183.138 101.683 183.16 101.675C183.18 101.669 183.199 101.662 183.218 101.655C183.308 101.622 183.399 101.594 183.489 101.566C183.561 101.544 183.635 101.522 183.71 101.501C183.777 101.484 183.846 101.465 183.915 101.449C184.111 101.402 184.308 101.366 184.506 101.339C184.781 101.3 185.059 101.28 185.336 101.28Z" fill="#D9A6CF"/>
<path d="M183.096 101.699C183.116 101.691 183.136 101.685 183.156 101.677C183.157 101.677 183.159 101.676 183.161 101.676C183.14 101.683 183.117 101.691 183.096 101.699Z" fill="#797AA9"/>
<path d="M182.901 101.776C182.931 101.764 182.962 101.751 182.992 101.739C182.965 101.75 182.938 101.763 182.91 101.774C182.906 101.775 182.903 101.775 182.901 101.776ZM183.155 101.678C183.596 101.517 184.047 101.401 184.505 101.339C184.306 101.366 184.11 101.403 183.915 101.45C183.845 101.466 183.776 101.485 183.709 101.502C183.634 101.523 183.561 101.545 183.488 101.567C183.398 101.595 183.307 101.623 183.218 101.656C183.198 101.663 183.179 101.67 183.16 101.677C183.159 101.677 183.156 101.678 183.155 101.678Z" fill="#595969"/>
<path d="M182.361 99.9402C182.227 99.2443 182.192 98.6692 182.192 98.2217C182.192 97.9734 182.204 97.7642 182.214 97.5952C182.214 97.5941 182.214 97.5941 182.214 97.593C182.214 97.5829 182.208 97.5762 182.197 97.5728C182.209 97.5762 182.215 97.584 182.214 97.5952C182.187 98.0673 182.152 98.8572 182.361 99.9402Z" fill="#595969"/>
<path d="M180.669 97.8633C180.648 97.8101 180.639 97.7425 180.639 97.6627C180.639 97.6383 180.64 97.6117 180.641 97.584C180.634 97.6981 180.642 97.7923 180.669 97.8633Z" fill="#595969"/>
<path d="M199.812 121.041C195.927 121.041 192.127 117.821 191.996 111.608C191.879 105.978 190.05 102.995 187.765 101.847C186.991 101.457 186.166 101.28 185.336 101.28C185.06 101.28 184.781 101.299 184.506 101.339C184.048 101.4 183.596 101.516 183.156 101.677C183.135 101.685 183.116 101.692 183.096 101.699C183.061 101.713 183.027 101.725 182.994 101.738C182.962 101.751 182.931 101.764 182.901 101.776C182.897 101.776 182.893 101.779 182.889 101.78C182.631 101.096 182.465 100.481 182.362 99.9403C182.152 98.857 182.186 98.0671 182.214 97.595C182.214 97.5835 182.209 97.5758 182.197 97.572C182.19 97.5695 182.18 97.5682 182.167 97.5682C182.057 97.5682 181.773 97.6703 181.485 97.7723C181.198 97.8744 180.907 97.9765 180.789 97.9765C180.768 97.9765 180.753 97.9727 180.744 97.9663C180.71 97.9421 180.685 97.9076 180.669 97.863C180.642 97.7928 180.634 97.6983 180.642 97.5848C182.324 96.8077 184.1 96.3904 185.724 96.3904C187.217 96.3904 188.581 96.7426 189.623 97.4916C196.456 102.409 191.996 111.608 197.254 115.661C198.197 116.387 199.223 116.682 200.265 116.682C203.347 116.682 206.546 114.096 207.991 112.532C207.91 113.03 207.815 113.508 207.696 113.969C206.46 118.73 203.105 121.041 199.812 121.041Z" fill="#D9D9EA"/>
<path d="M172.429 163.335C169.171 163.335 165.787 162.735 162.401 161.543C161.804 161.333 161.492 160.68 161.702 160.084C161.913 159.488 162.565 159.175 163.16 159.386C173.321 162.965 183.375 160.547 188.774 153.225C193.56 146.735 193.351 138.414 188.226 131.51C187.87 131.031 187.513 130.552 187.155 130.073C181.557 122.573 175.769 114.819 177.3 106.911C178.072 102.92 182.01 99.825 185.911 100.161C187.553 100.3 192.928 101.538 193.14 111.586C193.257 117.188 196.44 119.543 199.128 119.858C201.953 120.19 205.361 118.408 206.588 113.681C207.838 108.873 206.614 100.925 201.861 95.0388C199.209 91.7555 194.427 87.9093 186.68 88.2346C179.766 88.5239 173.937 91.7426 170.686 97.0646C167.139 102.868 167.058 110.434 170.464 117.823C171.366 119.783 172.866 122.251 174.456 124.864C178.722 131.881 183.558 139.834 181.998 145.545C181.402 147.733 179.29 149.74 176.487 150.785C172.4 152.307 167.725 151.615 163.657 148.886C163.133 148.535 162.992 147.825 163.344 147.3C163.696 146.776 164.407 146.636 164.93 146.988C168.38 149.301 172.301 149.905 175.687 148.642C177.78 147.862 179.392 146.41 179.793 144.943C181.093 140.181 176.329 132.347 172.501 126.052C170.878 123.381 169.344 120.859 168.386 118.78C164.656 110.687 164.784 102.338 168.734 95.8716C172.39 89.8886 178.896 86.2721 186.585 85.9494C195.285 85.5827 200.658 89.9092 203.64 93.6018C208.33 99.4093 210.452 107.902 208.802 114.257C207.228 120.315 202.677 122.575 198.862 122.13C194.975 121.675 190.992 118.253 190.853 111.634C190.737 106.14 188.817 102.703 185.716 102.438C182.977 102.205 180.095 104.499 179.544 107.346C178.206 114.261 183.687 121.604 188.987 128.705C189.346 129.186 189.705 129.667 190.061 130.147C195.722 137.772 195.939 147.363 190.614 154.583C187.806 158.391 183.814 161.11 179.069 162.443C176.948 163.038 174.719 163.335 172.429 163.335Z" fill="#000072"/>
<path d="M193.136 186.211C189.809 189.117 183.703 186.716 179.163 184.647C179.117 184.672 179.072 184.701 179.026 184.727C174.161 187.554 165.588 189.215 159.591 186.916C146.124 181.754 150.96 162.602 153.965 159.474L155.754 142.88L156.284 137.961C177.648 144.341 176.487 165.326 176.487 165.326C176.487 165.326 176.936 165.212 177.717 165.123C179.932 164.863 184.815 164.78 189.706 167.95C191.984 169.428 193.564 171.103 194.597 172.838V172.841C197.724 178.089 195.829 183.861 193.136 186.211Z" fill="#8E8FB3"/>
<path d="M166.103 186.854C164.231 186.854 162.366 186.628 160.64 186.072C158.737 185.447 156.969 184.415 155.604 183.001C154.231 181.59 153.25 179.82 152.642 177.902C152.037 175.981 151.759 173.926 151.73 171.853C151.7 169.778 151.914 167.681 152.319 165.624C152.44 165.026 152.576 164.431 152.734 163.843C153.404 163.303 154.044 162.726 154.654 162.116C156.129 160.617 157.387 158.877 158.307 156.958C158.421 156.717 158.542 156.48 158.648 156.237L158.93 155.489C158.993 155.319 159.06 155.15 159.121 154.979C159.073 155.707 159.001 156.466 158.905 157.256C158.613 159.634 154.548 165.18 154.043 168.127C151.807 181.157 161.497 183.504 167.71 183.504C168.885 183.504 169.934 183.421 170.757 183.309C177.213 182.435 182.345 176.02 182.345 176.02C182.345 176.02 182.359 176.182 182.399 176.461C182.184 178.382 181.488 180.252 180.711 181.826C180.384 182.491 180.042 183.102 179.717 183.643C179.69 183.631 179.664 183.619 179.637 183.606C179.489 183.54 179.326 183.505 179.162 183.505C178.964 183.505 178.763 183.556 178.583 183.662L178.58 183.664C176.837 184.69 174.862 185.426 172.853 185.959C170.836 186.482 168.756 186.796 166.685 186.847C166.491 186.851 166.297 186.854 166.103 186.854Z" fill="#797AA9"/>
<path d="M193.136 186.211C189.809 189.118 183.702 186.716 179.163 184.647C179.117 184.673 179.071 184.701 179.026 184.727C180.197 182.983 182.027 179.796 182.399 176.457C182.556 177.546 183.134 180.431 184.98 182.435C187.938 185.636 196.714 182.209 194.596 172.841C194.667 172.961 194.736 173.084 194.805 173.205C194.937 173.447 195.062 173.69 195.173 173.936C195.231 174.056 195.283 174.176 195.337 174.299L195.34 174.305C195.388 174.425 195.436 174.548 195.482 174.668C195.532 174.791 195.574 174.911 195.617 175.034V175.04C195.659 175.159 195.697 175.283 195.734 175.403C195.772 175.523 195.805 175.64 195.837 175.76C195.839 175.766 195.839 175.774 195.843 175.78C195.874 175.897 195.903 176.017 195.931 176.137C195.954 176.235 195.974 176.331 195.994 176.429C196.025 176.574 196.052 176.72 196.075 176.866C196.092 176.969 196.108 177.069 196.119 177.172C196.629 180.982 195.093 184.501 193.136 186.211Z" fill="#E8E8E8"/>
<path d="M193.136 186.211C189.808 189.118 183.701 186.716 179.162 184.647C179.117 184.673 179.071 184.701 179.026 184.727C180.721 182.203 183.791 176.669 181.838 172.012C179.992 167.613 178.534 166.261 177.717 165.123C179.931 164.863 184.814 164.78 189.705 167.95C198.886 173.901 196.717 183.083 193.136 186.211Z" fill="white"/>
<path d="M180.71 181.826C181.488 180.251 182.184 178.38 182.399 176.457C182.399 176.458 182.399 176.459 182.399 176.46C182.184 178.381 181.488 180.252 180.71 181.826Z" fill="#C5C5D6"/>
<path d="M189.041 186.413C188.752 186.413 188.46 186.398 188.164 186.37C187.223 186.28 186.262 186.076 185.309 185.802C183.423 185.261 181.565 184.482 179.716 183.643C180.042 183.103 180.383 182.491 180.71 181.826C181.488 180.252 182.185 178.381 182.399 176.46C182.556 177.55 183.135 180.432 184.98 182.435C185.704 183.218 186.775 183.604 187.95 183.604C190.86 183.604 194.405 181.235 194.871 176.648C194.894 176.762 194.916 176.876 194.935 176.99C195.243 178.835 195.026 180.776 194.316 182.504C194.139 182.936 193.927 183.349 193.695 183.746C193.454 184.136 193.187 184.505 192.894 184.838L192.67 185.08L192.436 185.301C192.278 185.44 192.125 185.561 191.954 185.671C191.618 185.891 191.243 186.059 190.838 186.178C190.282 186.341 189.672 186.413 189.041 186.413Z" fill="#D9D9EA"/>
<path d="M154.378 159.871C154.106 160.224 153.87 160.679 153.659 161.139C153.451 161.605 153.27 162.092 153.109 162.587C152.78 163.575 152.528 164.596 152.318 165.624C151.914 167.681 151.699 169.778 151.731 171.853C151.759 173.926 152.036 175.98 152.642 177.902C153.251 179.82 154.231 181.59 155.604 183.001C156.969 184.415 158.738 185.447 160.639 186.072C162.545 186.686 164.619 186.897 166.685 186.847C168.756 186.795 170.835 186.482 172.852 185.959C174.863 185.426 176.838 184.69 178.579 183.664L178.583 183.662C178.915 183.467 179.312 183.461 179.638 183.606C181.514 184.459 183.397 185.254 185.309 185.802C186.263 186.076 187.224 186.28 188.166 186.37C189.105 186.458 190.028 186.416 190.838 186.178C191.243 186.059 191.618 185.891 191.955 185.671C192.126 185.561 192.278 185.44 192.436 185.301L192.671 185.079L192.895 184.838C193.187 184.505 193.454 184.136 193.695 183.746C193.928 183.349 194.14 182.936 194.317 182.504C195.027 180.776 195.244 178.835 194.936 176.99C194.623 175.142 193.779 173.4 192.552 171.934C191.334 170.464 189.75 169.244 188.043 168.287C186.334 167.339 184.46 166.694 182.528 166.379C181.562 166.222 180.582 166.146 179.605 166.152C179.116 166.155 178.628 166.18 178.144 166.227C177.903 166.249 177.664 166.279 177.428 166.314L177.079 166.372C176.97 166.391 176.839 166.419 176.769 166.435L176.765 166.436C176.144 166.582 175.523 166.197 175.377 165.576C175.353 165.473 175.344 165.364 175.348 165.264C175.361 164.955 175.359 164.567 175.349 164.212C175.34 163.849 175.32 163.483 175.295 163.117C175.241 162.386 175.16 161.654 175.052 160.926C174.834 159.47 174.514 158.028 174.087 156.621C173.232 153.809 171.953 151.128 170.237 148.764C168.528 146.396 166.383 144.355 163.946 142.735C161.51 141.109 158.789 139.91 155.955 139.058L155.951 139.057C155.346 138.874 155.003 138.237 155.185 137.632C155.367 137.027 156.004 136.685 156.609 136.867C159.626 137.773 162.562 139.061 165.214 140.831C167.867 142.594 170.221 144.834 172.089 147.424C173.966 150.009 175.353 152.924 176.275 155.957C176.736 157.474 177.08 159.024 177.314 160.59C177.43 161.374 177.519 162.162 177.576 162.955C177.604 163.351 177.624 163.749 177.635 164.149C177.645 164.558 177.65 164.935 177.63 165.39L176.209 164.218C176.394 164.174 176.518 164.15 176.666 164.122L177.089 164.053C177.369 164.011 177.646 163.977 177.924 163.95C178.48 163.897 179.034 163.869 179.588 163.865C180.697 163.858 181.804 163.944 182.897 164.122C185.081 164.477 187.213 165.211 189.15 166.287C189.634 166.557 190.111 166.841 190.567 167.153C190.794 167.31 191.024 167.463 191.248 167.624L191.909 168.131C192.775 168.827 193.59 169.604 194.312 170.474C195.762 172.204 196.809 174.338 197.191 176.611C197.569 178.882 197.306 181.243 196.432 183.376C196.212 183.909 195.949 184.427 195.653 184.929C195.345 185.427 195.001 185.907 194.604 186.357L194.296 186.688L193.962 187.004C193.729 187.211 193.472 187.414 193.204 187.586C192.667 187.937 192.081 188.197 191.484 188.371C190.289 188.719 189.088 188.751 187.955 188.647C186.819 188.539 185.732 188.301 184.681 188.001C182.58 187.397 180.61 186.559 178.69 185.687L179.747 185.63C177.744 186.806 175.61 187.591 173.431 188.171C171.249 188.737 169.009 189.076 166.741 189.133C164.477 189.186 162.168 188.964 159.935 188.248C158.818 187.884 157.756 187.408 156.738 186.812C155.727 186.208 154.775 185.485 153.941 184.642C153.099 183.806 152.374 182.854 151.775 181.838C151.18 180.819 150.715 179.735 150.36 178.629C149.651 176.409 149.414 174.101 149.468 171.839C149.531 169.573 149.879 167.337 150.496 165.179C150.802 164.099 151.18 163.039 151.649 162.009C151.889 161.496 152.151 160.99 152.449 160.496C152.751 160.002 153.083 159.521 153.552 159.079C153.783 158.862 154.145 158.874 154.362 159.104C154.556 159.311 154.567 159.626 154.398 159.844L154.378 159.871Z" fill="#000072"/>
<path d="M158.51 152.948C157.903 155.688 156.665 157.921 155.279 159.686C152.481 163.249 149.084 164.886 149.084 164.886C149.084 164.886 148.625 171.719 143.541 175.521C140.789 177.578 132.696 178.692 129.636 172.306C128.087 169.072 127.783 162.388 130.647 157.095C132.481 153.706 135.614 150.888 140.549 149.909L137.972 136.782C153.525 133.465 160.727 142.933 158.51 152.948Z" fill="#8E8FB3"/>
<path d="M149.763 163.17C149.353 163.081 149.017 162.87 148.68 162.572C148.148 162.1 147.618 161.407 146.805 160.627C147.925 159.374 151.167 158.638 154.471 156.557C155.38 155.983 156.297 155.022 157.073 153.873L157.027 154.041C156.955 154.26 156.866 154.475 156.787 154.692L156.544 155.342C156.45 155.553 156.343 155.76 156.245 155.969C155.443 157.639 154.342 159.173 153.025 160.51C152.361 161.173 151.654 161.798 150.907 162.369C150.531 162.645 150.153 162.918 149.763 163.17Z" fill="#797AA9"/>
<path d="M152.473 162.579C152.462 162.591 152.453 162.599 152.441 162.608C152.344 162.688 152.249 162.768 152.156 162.842C152.033 162.942 151.916 163.036 151.796 163.128C151.686 163.214 151.578 163.294 151.472 163.374C151.366 163.454 151.264 163.528 151.162 163.599C151.075 163.663 150.992 163.719 150.913 163.777C150.898 163.788 150.881 163.797 150.866 163.808C150.77 163.874 150.675 163.937 150.586 163.997C149.683 164.597 149.083 164.886 149.083 164.886C149.083 164.886 148.626 171.718 143.54 175.523C140.79 177.578 132.697 178.693 129.636 172.306C129.608 172.249 129.581 172.189 129.556 172.129C129.527 172.069 129.502 172.009 129.476 171.946C129.359 171.672 129.253 171.377 129.156 171.063C129.128 170.972 129.099 170.878 129.07 170.783C129.022 170.609 128.973 170.426 128.929 170.237C128.899 170.108 128.87 169.977 128.842 169.846C128.83 169.803 128.821 169.759 128.815 169.714C128.787 169.583 128.764 169.448 128.739 169.311V169.302C128.71 169.136 128.681 168.968 128.658 168.796C128.713 168.928 128.77 169.054 128.828 169.176C131.888 175.563 139.981 174.448 142.733 172.389C147.817 168.588 145.984 162.979 146.439 161.276C146.501 161.041 146.624 160.829 146.807 160.629C148.932 162.671 149.125 164.106 152.473 162.579Z" fill="#E8E8E8"/>
<path d="M152.475 162.578C150.618 164.146 149.083 164.886 149.083 164.886C149.083 164.886 148.625 171.719 143.541 175.521C140.789 177.578 132.697 178.692 129.636 172.306C128.087 169.072 127.784 162.388 130.648 157.095C133.866 155.741 139.789 155.616 145.077 159.223C148.997 161.896 148.391 164.444 152.475 162.578Z" fill="white"/>
<path d="M149.762 163.17C149.353 163.081 149.016 162.87 148.681 162.572C149.017 162.87 149.353 163.081 149.763 163.169C149.762 163.17 149.762 163.17 149.762 163.17Z" fill="#C5C5D6"/>
<path d="M137.81 175.974C136.927 175.974 136.051 175.865 135.227 175.626C134.226 175.349 133.313 174.863 132.544 174.217C132.161 173.892 131.822 173.517 131.514 173.116C131.208 172.712 130.956 172.264 130.725 171.802C130.716 171.783 130.707 171.765 130.699 171.746C132.478 173.39 134.791 174 136.972 174C139.333 174 141.538 173.283 142.734 172.389C147.816 168.587 145.985 162.979 146.439 161.275C146.502 161.041 146.625 160.829 146.807 160.629C147.619 161.409 148.149 162.1 148.681 162.572C149.016 162.87 149.353 163.08 149.762 163.17C149.759 163.172 149.758 163.173 149.754 163.175C149.558 163.302 149.359 163.423 149.161 163.542C148.967 163.654 148.749 163.777 148.588 163.858C148.238 164.033 147.983 164.381 147.945 164.8L147.944 164.811V164.813C147.935 164.911 147.92 165.058 147.903 165.187C147.887 165.32 147.867 165.455 147.844 165.591C147.804 165.862 147.746 166.134 147.693 166.405C147.571 166.945 147.44 167.486 147.264 168.012C146.929 169.069 146.491 170.087 145.949 171.035C145.807 171.267 145.678 171.51 145.524 171.733L145.057 172.399C144.715 172.815 144.384 173.242 143.991 173.607L143.707 173.894C143.612 173.987 143.503 174.065 143.402 174.152C143.199 174.315 142.985 174.508 142.792 174.65C142.423 174.911 141.964 175.144 141.479 175.328C140.504 175.698 139.429 175.907 138.363 175.96C138.178 175.97 137.994 175.974 137.81 175.974Z" fill="#D9D9EA"/>
<path d="M137.733 135.665C139.742 135.236 141.805 134.977 143.892 134.972L144.674 134.975L145.459 135.018C145.983 135.035 146.506 135.115 147.029 135.169C148.07 135.332 149.115 135.526 150.13 135.866C152.164 136.503 154.103 137.576 155.707 139.051C157.3 140.538 158.518 142.426 159.23 144.473C159.925 146.524 160.176 148.709 159.98 150.832C159.966 151.099 159.933 151.363 159.895 151.625C159.856 151.889 159.832 152.155 159.776 152.414L159.625 153.196L159.416 153.968L159.205 154.739C159.122 154.992 159.021 155.239 158.93 155.49L158.648 156.237C158.541 156.48 158.42 156.718 158.307 156.958C157.386 158.877 156.129 160.617 154.654 162.116C153.909 162.86 153.121 163.556 152.287 164.193C151.864 164.504 151.437 164.811 150.994 165.097C150.772 165.241 150.546 165.378 150.316 165.515C150.079 165.652 149.866 165.776 149.581 165.918L150.224 164.964V164.968C150.209 165.164 150.192 165.312 150.17 165.476C150.151 165.636 150.128 165.794 150.102 165.95C150.054 166.265 149.99 166.572 149.929 166.881C149.791 167.494 149.641 168.105 149.444 168.703C149.064 169.901 148.565 171.068 147.932 172.174C147.766 172.446 147.614 172.727 147.434 172.991L146.881 173.778C146.475 174.278 146.076 174.784 145.603 175.229L145.26 175.573C145.143 175.685 145.013 175.783 144.89 175.888C144.633 176.096 144.406 176.301 144.123 176.509C143.525 176.931 142.914 177.226 142.296 177.464C141.058 177.933 139.782 178.187 138.487 178.261C137.194 178.333 135.875 178.224 134.595 177.863C133.314 177.513 132.077 176.892 131.027 176.023C130.503 175.588 130.036 175.088 129.62 174.554C129.205 174.018 128.866 173.436 128.564 172.843C127.983 171.605 127.675 170.351 127.487 169.098C127.302 167.844 127.239 166.588 127.286 165.337C127.4 162.838 127.923 160.352 128.929 158.033C129.44 156.878 130.082 155.774 130.85 154.76C131.629 153.756 132.527 152.836 133.546 152.075C134.56 151.311 135.671 150.683 136.84 150.237C138.013 149.795 139.222 149.5 140.439 149.349C140.752 149.309 141.039 149.532 141.078 149.847C141.113 150.127 140.939 150.385 140.678 150.465L140.661 150.47C139.561 150.807 138.498 151.2 137.504 151.715L136.771 152.116L136.072 152.568C135.62 152.886 135.174 153.21 134.769 153.581C133.12 155.033 131.868 156.886 131.038 158.929C130.193 160.969 129.758 163.199 129.696 165.426C129.659 166.539 129.709 167.656 129.869 168.743C130.024 169.829 130.305 170.893 130.724 171.803C130.955 172.264 131.208 172.713 131.513 173.116C131.822 173.518 132.16 173.892 132.543 174.218C133.313 174.863 134.224 175.349 135.227 175.626C136.223 175.916 137.294 176.014 138.362 175.961C139.428 175.907 140.503 175.699 141.479 175.328C141.963 175.144 142.422 174.911 142.791 174.65C142.985 174.508 143.198 174.316 143.402 174.153C143.503 174.066 143.612 173.987 143.707 173.894L143.99 173.608C144.382 173.243 144.715 172.815 145.056 172.399L145.523 171.733C145.678 171.51 145.806 171.268 145.949 171.036C146.491 170.088 146.928 169.069 147.264 168.012C147.438 167.486 147.57 166.946 147.692 166.405C147.745 166.134 147.803 165.862 147.842 165.591C147.866 165.456 147.886 165.321 147.901 165.188C147.92 165.059 147.934 164.911 147.943 164.813L147.944 164.811V164.8C147.982 164.381 148.237 164.034 148.587 163.858C148.748 163.778 148.968 163.654 149.16 163.542C149.359 163.423 149.558 163.302 149.754 163.176C150.147 162.922 150.528 162.648 150.907 162.369C151.655 161.798 152.361 161.173 153.026 160.51C154.342 159.173 155.443 157.639 156.244 155.969C156.343 155.759 156.451 155.553 156.543 155.341L156.787 154.691C156.866 154.475 156.956 154.26 157.027 154.041L157.208 153.371L157.392 152.702L157.524 152.018C157.575 151.791 157.592 151.56 157.627 151.331C157.661 151.101 157.689 150.872 157.702 150.641C157.873 148.799 157.649 146.942 157.07 145.224C156.471 143.51 155.468 141.96 154.15 140.727C152.819 139.506 151.198 138.596 149.434 138.045C148.561 137.748 147.639 137.581 146.716 137.435C146.249 137.388 145.788 137.314 145.314 137.3L144.608 137.261L143.898 137.259C142.002 137.263 140.093 137.499 138.209 137.901C137.592 138.033 136.985 137.639 136.853 137.022C136.721 136.404 137.114 135.796 137.733 135.665Z" fill="#000072"/>
<path d="M150.462 123.463C151.067 145.632 125.388 151.748 113.426 155.754L97.9388 157.732C89.8057 157.169 75.9032 157.194 65.7407 151.447C63.2863 150.059 61.0503 148.336 59.1649 146.186C57.823 144.654 56.6591 142.904 55.7204 140.905C55.0867 139.551 54.5564 138.083 54.145 136.488C53.9884 135.882 53.8489 135.26 53.7282 134.617C53.3724 132.736 53.1736 130.695 53.1504 128.484C53.1304 126.566 53.7511 119.921 54.9133 113.336C55.3082 111.095 55.7661 108.86 56.2836 106.822C51.8965 94.7494 48.7565 79.2411 52.2749 73.3081C54.5629 69.4518 62.4197 72.0265 74.875 80.2104C82.4426 75.656 93.4063 74.0447 95.0938 73.8366C96.7788 73.6144 107.796 72.4171 116.263 74.924C126.261 63.8719 133.219 59.4052 136.403 62.5634C141.3 67.4195 142.158 83.2214 140.947 96.0087C144.933 103.261 148.803 113.692 149.424 116.186C150.072 118.788 150.404 121.208 150.462 123.463Z" fill="#8E8FB3"/>
<path d="M75.2739 83.3342C66.6282 77.6531 60.198 74.6753 56.3082 74.6753C54.5943 74.6753 53.3738 75.2529 52.674 76.4335C52.5282 76.6781 52.394 76.9411 52.2708 77.2178C52.4272 76.2761 52.6732 75.3723 53.0292 74.5685C53.0772 74.4421 53.1415 74.3307 53.2026 74.217L53.2932 74.0471C53.3232 73.9885 53.3534 73.9288 53.3822 73.8943C53.4421 73.8139 53.4892 73.7198 53.559 73.6532L53.6532 73.5418C53.6867 73.5073 53.7253 73.4786 53.76 73.4453C54.0426 73.1915 54.4045 73.0089 54.8551 72.9079C55.1737 72.8344 55.5211 72.8034 55.886 72.8034C56.5573 72.8034 57.2878 72.9113 58.005 73.0686C59.1235 73.3201 60.2504 73.7094 61.3622 74.1527C63.5889 75.0496 65.762 76.1843 67.8932 77.3924C70.0245 78.6085 72.1138 79.9177 74.1769 81.2728L74.8382 81.7069L75.5307 81.3004C76.9933 80.4379 78.5426 79.6926 80.1363 79.0323C81.7314 78.3731 83.382 77.8219 85.0476 77.32C86.7157 76.8216 88.4095 76.3921 90.1169 76.0246C91.8207 75.6571 93.5544 75.3459 95.2564 75.1139C96.9601 74.9049 98.717 74.774 100.458 74.7005C101.436 74.6592 102.414 74.6374 103.391 74.6374C104.159 74.6374 104.926 74.65 105.691 74.6776C107.43 74.7453 109.166 74.8636 110.876 75.1002C112.585 75.339 114.272 75.6698 115.905 76.136L116.673 76.3554L117.202 75.772C118.857 73.9414 120.55 72.1476 122.308 70.4353C124.067 68.73 125.884 67.0843 127.814 65.6557C128.779 64.9471 129.772 64.2868 130.792 63.7608C131.803 63.2463 132.874 62.8386 133.804 62.8122C133.84 62.8111 133.874 62.8099 133.909 62.8099C134.328 62.8099 134.692 62.8961 135.005 63.058C135.048 63.0821 135.093 63.1005 135.134 63.1246L135.253 63.2096C135.338 63.2567 135.409 63.3359 135.487 63.3991C135.524 63.4266 135.568 63.476 135.612 63.5242L135.743 63.6678C135.831 63.762 135.922 63.8538 136 63.9641C136.557 64.6658 137.03 65.4972 137.423 66.3884C137.224 66.1346 137.017 65.9003 136.802 65.6878C136.133 65.024 135.297 64.6968 134.301 64.6968C130.56 64.6968 124.561 69.3179 116.662 78.047C112.513 76.8193 107.75 76.4794 103.773 76.4794C99.637 76.4794 96.3519 76.8469 95.4926 76.9594C93.8057 77.1684 82.8413 78.7797 75.2739 83.3342Z" fill="#C7C7D9"/>
<path d="M150.463 123.463C151.066 145.632 125.388 151.749 113.426 155.754L97.9392 157.733C89.8057 157.169 75.9032 157.194 65.7407 151.447C63.2864 150.059 61.0504 148.335 59.1649 146.186C57.8231 144.654 56.6591 142.904 55.7204 140.906C55.0868 139.551 54.5565 138.083 54.145 136.488C75.1851 150.349 87.937 141.298 92.4669 128.078C94.2172 122.974 98.8104 121.918 100.83 121.661C102.848 121.403 107.56 121.27 110.534 125.77C118.351 137.593 133.28 143.142 150.463 123.463Z" fill="white"/>
<path d="M98.4402 157.669C98.414 157.427 98.2297 157.221 97.9776 157.178C96.2636 156.889 94.5477 156.691 92.839 156.509L91.4033 156.361C91.2433 156.188 91.0789 156.025 90.909 155.872C88.8718 154.028 86.1644 153.479 83.6606 153.479C80.9862 153.479 78.5443 154.106 77.4031 154.451C77.0888 154.382 76.7749 154.309 76.4619 154.235C74.4825 151.052 72.1818 149.755 70.2 149.755C69.3294 149.755 68.5199 150.006 67.8269 150.458C67.8256 150.458 67.8244 150.459 67.8231 150.459C67.8218 150.46 67.8212 150.46 67.8206 150.461C67.6093 150.599 67.4087 150.755 67.2206 150.929C64.5818 149.556 62.1701 147.79 60.2164 145.604C60.187 145.571 60.1577 145.539 60.1284 145.506C60.3182 145.618 60.5091 145.728 60.7012 145.837C65.2657 148.419 75.8069 149.309 85.9943 149.309C93.074 149.309 99.9826 148.88 104.6 148.29C114.898 146.974 138.495 140.985 147.282 133.757L146.904 134.544C146.132 135.981 145.26 137.377 144.183 138.626L143.794 139.104C143.663 139.262 143.514 139.407 143.376 139.559L142.529 140.462L141.623 141.313C141.471 141.454 141.323 141.598 141.168 141.736L140.688 142.135C139.436 143.227 138.053 144.175 136.653 145.093C135.936 145.53 135.23 145.982 134.487 146.382C133.76 146.804 133.007 147.185 132.257 147.571C129.237 149.087 126.078 150.343 122.887 151.554C119.7 152.778 116.446 153.877 113.249 155.228C113.018 155.325 112.877 155.569 112.914 155.82L98.4402 157.669Z" fill="#D9D9EA"/>
<path d="M70.0667 103.059C69.3842 102.245 72.1417 93.8308 79.5498 95.2651C82.2186 95.7825 82.7786 98.2476 80.8618 99.0342C79.0349 99.7835 78.1311 99.4826 75.3317 100.889C73.7473 101.684 70.7493 103.874 70.0667 103.059Z" fill="#000072"/>
<path d="M126.661 95.8303C127.117 94.8708 122.333 87.42 115.523 90.6706C113.069 91.8416 113.148 94.3691 115.2 94.6483C117.157 94.9147 117.955 94.396 121.018 95.0533C122.752 95.4253 126.204 96.7898 126.661 95.8303Z" fill="#000072"/>
<path d="M64.5028 91.0676C61.5216 95.19 60.0039 100.619 59.6201 100.056C59.5828 100.003 59.5442 99.9371 59.5039 99.8598C58.6346 98.257 56.7 91.707 55.9536 85.7467C55.8354 84.7843 55.7533 83.9332 55.7083 83.1783C55.5853 81.1425 55.7089 79.8107 55.9566 78.9383C56.2658 77.8701 57.2087 77.4361 58.1216 77.6658C60.5487 78.282 67.6628 81.7724 70.1522 84.2709C70.596 84.7155 67.4872 86.9451 64.5028 91.0676Z" fill="#F27E80"/>
<path d="M64.5028 91.0676C61.5216 95.19 60.0039 100.619 59.6201 100.056C59.5828 100.003 59.5442 99.9371 59.5039 99.8598C59.8772 96.6362 61.448 92.0479 62.6753 88.7194C64.354 84.1724 60.8727 81.1668 58.0966 80.4872C57.1445 80.2532 56.2548 81.8825 55.7083 83.1783C55.5853 81.1425 55.7089 79.8107 55.9566 78.9383C56.2658 77.8701 57.2087 77.4361 58.1216 77.6658C60.5487 78.282 67.6628 81.7724 70.1522 84.2709C70.596 84.7155 67.4872 86.9451 64.5028 91.0676Z" fill="#FF5C64"/>
<path d="M57.2432 85.5861C57.7941 89.992 58.9464 94.4139 59.796 97.0295C60.6267 95.1463 61.8174 92.567 63.4523 90.307C65.056 88.0896 66.7111 86.3847 67.8067 85.2573C68.0411 85.015 68.2905 84.7588 68.5004 84.5346C65.7017 82.2735 59.7755 79.4252 57.8029 78.9266C57.4986 78.8497 57.299 78.9757 57.2053 79.2981C56.9688 80.1276 56.7821 81.8945 57.2432 85.5861ZM59.6852 101.395C59.2351 101.395 58.8072 101.17 58.5469 100.787C57.5697 99.3546 55.4423 92.1186 54.6663 85.9075C54.2466 82.5489 54.2607 80.1533 54.709 78.5829C55.1952 76.8972 56.7641 75.9854 58.4394 76.4082C61.0201 77.0616 68.3386 80.6102 71.0735 83.3538C71.3642 83.6453 71.9305 84.4588 70.9204 85.7164C70.6292 86.0783 70.206 86.5139 69.6698 87.0669C68.5642 88.2049 67.0505 89.7646 65.5567 91.8282C63.9167 94.0958 62.721 96.8234 61.9301 98.6287C61.0539 100.627 60.7588 101.301 59.81 101.389C59.7682 101.393 59.7267 101.395 59.6852 101.395Z" fill="#000072"/>
<path d="M129.151 82.8094C133.074 86.0502 135.906 90.9231 136.137 90.2825C136.159 90.2211 136.18 90.1484 136.199 90.0634C136.639 88.2927 136.864 81.4668 136.089 75.5106C135.961 74.5503 135.826 73.7052 135.681 72.964C135.287 70.9619 134.833 69.7043 134.375 68.9217C133.807 67.9659 132.785 67.7826 131.959 68.2342C129.765 69.4404 123.756 74.6074 121.975 77.6525C121.657 78.1936 125.226 79.5697 129.151 82.8094Z" fill="#F27E80"/>
<path d="M129.151 82.8094C133.074 86.0502 135.906 90.9231 136.137 90.2825C136.159 90.2211 136.18 90.1484 136.199 90.0634C135.028 87.0362 132.355 82.9905 130.329 80.0772C127.562 76.0986 130.176 72.3145 132.692 70.9585C133.555 70.4935 134.825 71.8461 135.681 72.964C135.287 70.9619 134.833 69.7043 134.375 68.9217C133.807 67.9659 132.785 67.7826 131.959 68.2342C129.765 69.4404 123.756 74.6074 121.975 77.6525C121.657 78.1936 125.226 79.5697 129.151 82.8094Z" fill="#FF5C64"/>
<path d="M123.64 77.4912C123.9 77.6557 124.205 77.8417 124.492 78.0164C125.837 78.8325 127.867 80.0668 129.976 81.8095C132.127 83.5859 133.928 85.784 135.205 87.397C135.37 84.6523 135.374 80.0826 134.8 75.6798C134.318 71.9904 133.694 70.3278 133.254 69.5816C133.084 69.2942 132.857 69.2243 132.585 69.3742C130.8 70.3537 125.781 74.5988 123.64 77.4912ZM136.015 91.6443C135.245 91.6443 134.754 91.0209 133.542 89.4812C132.322 87.9324 130.479 85.5935 128.323 83.8114C126.358 82.1882 124.5 81.0599 123.144 80.2359C122.487 79.8369 121.966 79.5201 121.594 79.2428C120.3 78.2802 120.645 77.3503 120.853 76.9952C122.811 73.6519 129.001 68.3778 131.335 67.0973C132.852 66.2665 134.599 66.7557 135.491 68.2605C136.321 69.6718 136.938 71.9871 137.375 75.3439C138.185 81.5491 137.944 89.0878 137.359 90.72C137.188 91.1957 136.778 91.5406 136.287 91.6206C136.192 91.6364 136.101 91.6443 136.015 91.6443Z" fill="#000072"/>
<path d="M113.249 155.228C116.445 153.876 119.7 152.778 122.888 151.554C126.079 150.343 129.238 149.086 132.257 147.571C133.007 147.185 133.76 146.803 134.488 146.381C135.23 145.982 135.935 145.529 136.653 145.093C138.052 144.175 139.436 143.227 140.689 142.135L141.169 141.736C141.322 141.598 141.471 141.453 141.624 141.312L142.529 140.462L143.376 139.559C143.515 139.407 143.664 139.263 143.794 139.104L144.184 138.626C145.259 137.376 146.133 135.981 146.903 134.544L147.434 133.44C147.477 133.348 147.525 133.257 147.566 133.163L147.673 132.876L147.889 132.304L148.107 131.732C148.142 131.637 148.181 131.543 148.213 131.445L148.295 131.151L148.626 129.972L148.71 129.677L148.768 129.376L148.881 128.773C148.949 128.369 149.049 127.971 149.094 127.564L149.215 126.34L149.277 125.728L149.287 125.11L149.307 123.875C149.316 123.669 149.305 123.463 149.289 123.256L149.248 122.638L149.169 121.4C149.119 120.988 149.054 120.577 148.998 120.165L148.821 118.931L148.558 117.708L148.296 116.485L148.138 115.914L147.953 115.32C147.434 113.725 146.839 112.119 146.227 110.529C145.613 108.939 144.973 107.354 144.3 105.785C142.961 102.647 141.522 99.5484 139.902 96.582L139.727 96.2608L139.76 95.8966C140.211 90.9949 140.355 86.0526 140.124 81.1463C140 78.6955 139.787 76.2505 139.409 73.8462C139.033 71.4489 138.503 69.0703 137.637 66.8964C137.205 65.813 136.661 64.7982 135.999 63.9638C135.921 63.8533 135.831 63.7625 135.743 63.6671L135.612 63.5239C135.569 63.4751 135.525 63.4262 135.487 63.3994C135.409 63.3366 135.338 63.2563 135.253 63.2097L135.135 63.1248C135.093 63.1003 135.049 63.0817 135.005 63.0584C134.667 62.8827 134.268 62.7966 133.805 62.8117C132.874 62.8385 131.803 63.247 130.792 63.7613C129.772 64.2873 128.778 64.9472 127.814 65.6559C125.884 67.0838 124.066 68.7305 122.307 70.4353C120.55 72.1483 118.856 73.9416 117.202 75.7722L116.673 76.3552L115.905 76.1364C114.272 75.6698 112.585 75.3381 110.876 75.1007C109.166 74.8633 107.43 74.7446 105.691 74.6783C103.951 74.6154 102.204 74.6259 100.458 74.7004C98.7169 74.7737 96.9601 74.9052 95.2563 75.1147C93.5545 75.3451 91.8207 75.657 90.1169 76.0247C88.4094 76.3925 86.7157 76.8207 85.0476 77.32C83.382 77.8215 81.7313 78.3731 80.1363 79.033C78.5426 79.6928 76.9932 80.4376 75.5307 81.2999L74.8382 81.7072L74.177 81.2731C72.1138 79.9186 70.0244 78.6082 67.8932 77.3921C65.7619 76.1842 63.5888 75.0495 61.3622 74.1535C60.2504 73.7101 59.1235 73.3202 58.005 73.0688C56.8979 72.8245 55.7597 72.7 54.8551 72.9083C54.4044 73.0095 54.0426 73.1922 53.7599 73.4459C53.7252 73.4785 53.6867 73.5076 53.6532 73.5413L53.559 73.653C53.4892 73.7194 53.4421 73.8136 53.3822 73.8939C53.3534 73.9288 53.3232 73.9882 53.2931 74.0464L53.2025 74.2175C53.1414 74.3315 53.0771 74.442 53.0291 74.5689C52.5985 75.5406 52.329 76.659 52.1839 77.8145C51.8928 80.1339 51.9778 82.5695 52.2167 84.9843C52.4551 87.4048 52.8637 89.8242 53.3606 92.2273C54.3712 97.0324 55.7534 101.779 57.4224 106.409L57.549 106.76L57.458 107.121C56.6301 110.395 56.0253 113.759 55.5148 117.132C55.2617 118.82 55.0387 120.513 54.844 122.209C54.6513 123.901 54.4794 125.605 54.381 127.278C54.3553 127.698 54.3419 128.106 54.3411 128.49C54.3454 128.908 54.3564 129.325 54.3735 129.741C54.4089 130.575 54.4716 131.405 54.5659 132.229C54.7543 133.879 55.0689 135.508 55.5346 137.084C56.458 140.239 58.0288 143.179 60.2165 145.604C62.3933 148.04 65.1387 149.954 68.1331 151.384C71.1351 152.814 74.3669 153.794 77.6619 154.508C80.9613 155.226 84.3369 155.636 87.7301 155.979L92.8388 156.508C94.5482 156.691 96.2639 156.889 97.9776 157.178C98.282 157.229 98.4869 157.518 98.4357 157.823C98.3907 158.089 98.1638 158.279 97.9032 158.288H97.9007C94.4638 158.402 91.0088 158.404 87.5425 158.174C84.0794 157.943 80.6119 157.487 77.1813 156.757C73.7544 156.022 70.3519 155.003 67.1307 153.476C63.9188 151.951 60.8967 149.868 58.4743 147.168C56.0391 144.482 54.2836 141.201 53.2704 137.756C52.7579 136.033 52.4152 134.27 52.2096 132.502C52.1067 131.617 52.038 130.731 51.9987 129.844C51.9796 129.402 51.9671 128.958 51.9616 128.516C51.961 128.039 51.9767 127.588 52.0024 127.149C52.1029 125.386 52.2741 123.664 52.4669 121.939C52.6615 120.214 52.8844 118.494 53.1382 116.779C53.6512 113.347 54.257 109.925 55.109 106.524L55.1447 107.236C53.428 102.502 52.0091 97.6689 50.96 92.7312C50.4441 90.2606 50.0162 87.7644 49.761 85.2298C49.5083 82.6964 49.4 80.1222 49.7216 77.4957C49.8874 76.1853 50.1845 74.8505 50.76 73.5425C50.8245 73.3784 50.9126 73.2178 50.9981 73.0572L51.1266 72.8163C51.1684 72.736 51.2102 72.6569 51.2737 72.5661C51.3921 72.3927 51.4997 72.2135 51.6463 72.0541L51.8571 71.812C51.9313 71.7352 52.0134 71.6642 52.0924 71.5909C52.7336 71.009 53.5346 70.6436 54.2967 70.4737C55.0644 70.298 55.806 70.2782 56.5101 70.3236C57.2148 70.3713 57.8948 70.4761 58.5496 70.6238C59.8613 70.9171 61.0945 71.3454 62.2952 71.8202C64.6907 72.7803 66.9419 73.9545 69.1426 75.195C71.3387 76.4425 73.472 77.775 75.5732 79.1482L74.2194 79.1214C77.4206 77.2292 80.8439 75.9025 84.315 74.8633C86.0519 74.3408 87.8058 73.8928 89.572 73.5087C91.342 73.1259 93.1076 72.7965 94.9288 72.5556C96.7532 72.3357 98.545 72.2077 100.354 72.1367C102.161 72.0634 103.97 72.0564 105.783 72.1262C109.403 72.2612 113.049 72.6848 116.622 73.7124L115.326 74.0766C117.014 72.2193 118.745 70.3934 120.558 68.635C122.376 66.8813 124.26 65.1788 126.337 63.6485C127.378 62.8885 128.465 62.1635 129.66 61.5514C130.256 61.2442 130.888 60.9719 131.557 60.7484C132.227 60.5285 132.948 60.3621 133.734 60.3388C134.513 60.312 135.378 60.4633 136.142 60.866C136.237 60.916 136.333 60.9637 136.425 61.0196L136.689 61.2011C136.871 61.3175 137.02 61.463 137.177 61.6014C137.261 61.6736 137.321 61.7399 137.382 61.8063L137.567 62.0064C137.689 62.1414 137.815 62.2741 137.918 62.4172C138.803 63.5367 139.425 64.7528 139.914 65.9782C140.885 68.4395 141.427 70.9578 141.818 73.4715C142.208 75.9886 142.42 78.5116 142.542 81.0323C142.766 86.0735 142.607 91.109 142.133 96.12L141.993 95.4346C143.664 98.5138 145.117 101.67 146.473 104.862C147.151 106.459 147.797 108.067 148.419 109.687C149.038 111.309 149.636 112.932 150.177 114.612L150.375 115.252L150.559 115.923L150.836 117.223L151.11 118.524L151.298 119.846C151.357 120.287 151.425 120.726 151.477 121.168L151.561 122.506L151.601 123.174C151.619 123.398 151.629 123.62 151.619 123.846L151.594 125.191L151.582 125.863L151.514 126.535L151.376 127.878C151.326 128.325 151.217 128.766 151.139 129.21L151.011 129.874L150.946 130.206L150.854 130.533L150.484 131.837L150.391 132.163C150.356 132.27 150.312 132.375 150.274 132.481L150.032 133.116L149.791 133.749L149.668 134.066C149.623 134.169 149.572 134.27 149.524 134.372L148.934 135.594C148.08 137.182 147.106 138.716 145.933 140.076L145.506 140.597C145.362 140.769 145.201 140.926 145.05 141.091L144.129 142.067L143.152 142.982C142.988 143.133 142.827 143.288 142.661 143.436L142.147 143.862C140.8 145.028 139.335 146.028 137.858 146.991C137.104 147.448 136.359 147.921 135.585 148.336C134.822 148.775 134.04 149.171 133.259 149.569C131.687 150.342 130.098 151.079 128.477 151.719C127.672 152.054 126.854 152.351 126.041 152.663C125.221 152.951 124.402 153.241 123.576 153.508C120.278 154.59 116.939 155.469 113.603 156.282L113.598 156.284C113.299 156.356 112.997 156.173 112.925 155.874C112.858 155.604 113.001 155.332 113.249 155.228Z" fill="#000072"/>
<path d="M110.703 129.279C110.703 129.279 111.359 134.395 106.748 134.709C103.482 134.933 102.469 132.351 102.393 132.142C102.37 132.363 102.038 135.118 98.8204 135.722C94.2764 136.576 93.6257 131.461 93.6257 131.461L101.28 123.745L101.357 123.735L110.703 129.279Z" fill="#E8E8E8"/>
<path d="M110.662 129.319C110.662 129.319 109.667 133.402 106.076 132.939C101.99 132.413 101.872 127.633 101.872 127.633L101.726 127.652C101.726 127.652 102.794 132.312 98.965 133.834C95.6016 135.17 93.6254 131.461 93.6254 131.461C93.6254 131.461 91.5348 122.846 101.01 121.636C110.484 120.426 110.662 129.319 110.662 129.319Z" fill="white"/>
<path d="M97.5249 134.124C95.9567 134.125 94.8105 133.059 94.1812 132.276C94.1819 132.276 94.1826 132.275 94.1826 132.275C94.812 133.059 95.9552 134.124 97.5241 134.124C97.9708 134.124 98.4518 134.037 98.9656 133.833C101.79 132.711 101.95 129.88 101.839 128.473C101.839 128.473 101.839 128.473 101.839 128.473C101.951 129.881 101.791 132.712 98.9648 133.834C98.4518 134.038 97.9708 134.124 97.5249 134.124ZM107.336 132.91C108.989 132.595 109.892 131.2 110.326 130.244C110.326 130.244 110.326 130.244 110.327 130.244C109.894 131.2 108.99 132.596 107.336 132.91ZM103.42 131.619C102.479 130.619 102.109 129.294 101.964 128.452C101.964 128.452 101.965 128.452 101.966 128.451C102.11 129.293 102.48 130.618 103.42 131.619Z" fill="#C5C5D6"/>
<path d="M97.5235 134.124C95.9546 134.124 94.8116 133.058 94.1821 132.275C94.8595 132.252 95.5789 132.106 96.3446 131.802C98.4135 130.98 99.6358 129.751 100.344 128.471C100.597 128.51 100.85 128.531 101.101 128.531C101.349 128.531 101.595 128.511 101.839 128.473C101.949 129.88 101.79 132.711 98.9651 133.834C98.4516 134.037 97.9704 134.124 97.5235 134.124ZM106.635 132.975C106.457 132.975 106.271 132.963 106.077 132.939C104.886 132.786 104.032 132.271 103.42 131.619C102.48 130.618 102.11 129.293 101.965 128.451C102.425 128.366 102.874 128.213 103.303 127.992C104.306 129.1 105.816 130.034 108.089 130.327C108.406 130.368 108.711 130.388 109.003 130.388C109.474 130.388 109.914 130.338 110.325 130.245C109.891 131.201 108.988 132.595 107.336 132.911C107.335 132.911 107.335 132.911 107.335 132.911C107.334 132.911 107.334 132.911 107.333 132.911C107.114 132.952 106.881 132.975 106.635 132.975Z" fill="#D9D9EA"/>
<path d="M94.1988 131.155C94.3414 131.323 94.5247 131.539 94.7035 131.714C94.88 131.901 95.0716 132.068 95.261 132.23C95.645 132.545 96.0524 132.798 96.4628 132.948C96.8724 133.106 97.2813 133.153 97.694 133.132C97.9022 133.086 98.1104 133.084 98.3194 132.995C98.4235 132.955 98.5306 132.935 98.6355 132.89L98.9463 132.742C99.7784 132.348 100.353 131.668 100.704 130.782C100.88 130.341 100.988 129.846 101.048 129.337C101.083 129.083 101.093 128.823 101.103 128.561C101.109 128.307 101.107 128.02 101.092 127.797L101.088 127.739C101.066 127.382 101.339 127.072 101.697 127.051C102.002 127.031 102.272 127.226 102.358 127.506C102.463 127.847 102.524 128.133 102.575 128.451C102.626 128.763 102.651 129.078 102.66 129.398C102.672 130.035 102.623 130.694 102.426 131.343C102.087 132.641 101.111 133.906 99.8546 134.504L99.3899 134.731C99.2315 134.801 99.0564 134.847 98.8882 134.9C98.5593 135.022 98.1843 135.049 97.8275 135.099C97.0889 135.138 96.3428 134.967 95.7016 134.66C95.0596 134.346 94.5247 133.906 94.0917 133.414C93.8767 133.167 93.6813 132.908 93.5093 132.637C93.3327 132.361 93.1939 132.098 93.0521 131.766C92.9125 131.436 93.0657 131.055 93.3961 130.915C93.6632 130.801 93.9642 130.88 94.143 131.09L94.1988 131.155Z" fill="#000072"/>
<path d="M111.293 129.473C111.238 129.831 111.168 130.12 111.065 130.43C110.966 130.735 110.841 131.034 110.694 131.327C110.395 131.911 109.987 132.469 109.442 132.933C108.897 133.39 108.216 133.739 107.491 133.885C107.132 133.925 106.763 133.99 106.414 133.955C106.237 133.945 106.057 133.943 105.887 133.915L105.38 133.809C104.014 133.541 102.756 132.557 102.106 131.383C101.754 130.804 101.544 130.178 101.397 129.557C101.327 129.246 101.274 128.933 101.246 128.619C101.215 128.297 101.205 128.005 101.222 127.65C101.24 127.291 101.545 127.015 101.904 127.033C102.21 127.049 102.455 127.272 102.51 127.56L102.52 127.618C102.562 127.836 102.63 128.116 102.699 128.361C102.773 128.612 102.847 128.861 102.945 129.099C103.129 129.577 103.356 130.029 103.635 130.413C104.196 131.186 104.919 131.702 105.823 131.878L106.161 131.944C106.274 131.961 106.382 131.954 106.493 131.967C106.718 132.003 106.921 131.951 107.134 131.945C107.538 131.864 107.923 131.718 108.281 131.463C108.642 131.216 108.974 130.87 109.267 130.469C109.411 130.266 109.556 130.057 109.68 129.832C109.81 129.617 109.934 129.363 110.031 129.166L110.068 129.089C110.226 128.767 110.615 128.634 110.937 128.792C111.198 128.92 111.334 129.201 111.293 129.473Z" fill="#000072"/>
<path d="M106.256 124.569C106.395 125.686 105.063 126.855 103.811 127.694C102.501 128.57 100.934 128.768 99.4466 128.242C98.0251 127.74 96.4448 126.937 96.3049 125.82C95.8814 122.453 105.832 121.202 106.256 124.569Z" fill="#000072"/>
<path d="M100.995 125.505C100.806 125.505 100.617 125.485 100.433 125.442C99.8786 125.316 99.2652 125.103 99.225 124.781C99.1491 124.18 100.638 123.76 101.809 123.76C102.527 123.76 103.124 123.917 103.17 124.286C103.21 124.608 102.669 124.965 102.163 125.225C101.802 125.409 101.399 125.505 100.995 125.505Z" fill="#8080B9"/>
<path d="M88.044 123.293C88.6109 127.733 85.6405 131.77 81.4085 132.311C77.1766 132.851 73.286 129.691 72.7191 125.25C72.1517 120.81 75.1229 116.772 79.3547 116.232C83.5863 115.691 87.4771 118.853 88.044 123.293Z" fill="#3A3A3A"/>
<path d="M84.8519 125.594C85.0914 127.472 83.8348 129.18 82.0433 129.41C80.2519 129.639 78.6061 128.301 78.3657 126.421C78.1259 124.543 79.3836 122.834 81.1743 122.605C82.9649 122.376 84.6115 123.714 84.8519 125.594Z" fill="white"/>
<path d="M79.4668 121.031C79.6049 122.115 78.8799 123.1 77.8475 123.232C76.815 123.364 75.8656 122.592 75.7275 121.509C75.5887 120.426 76.3137 119.44 77.3462 119.308C78.3793 119.176 79.3281 119.948 79.4668 121.031Z" fill="white"/>
<path d="M129.452 118.003C130.019 122.444 127.048 126.481 122.816 127.022C118.585 127.562 114.694 124.401 114.127 119.96C113.559 115.521 116.531 111.483 120.763 110.942C124.994 110.402 128.885 113.563 129.452 118.003Z" fill="#3A3A3A"/>
<path d="M126.258 120.304C126.499 122.183 125.242 123.891 123.451 124.121C121.659 124.349 120.013 123.012 119.773 121.132C119.533 119.253 120.79 117.544 122.581 117.316C124.372 117.087 126.019 118.425 126.258 120.304Z" fill="white"/>
<path d="M120.874 115.742C121.012 116.826 120.287 117.811 119.254 117.943C118.222 118.075 117.273 117.303 117.135 116.22C116.996 115.136 117.721 114.152 118.753 114.02C119.786 113.888 120.736 114.659 120.874 115.742Z" fill="white"/>
<path d="M59.6125 133.417C59.4117 133.336 59.1765 133.25 58.9521 133.17C58.7277 133.085 58.4977 133.008 58.2664 132.934C58.0373 132.857 57.8057 132.785 57.5704 132.721C57.3354 132.659 57.1068 132.58 56.8709 132.519C55.9301 132.273 54.9863 132.038 54.0282 131.869C52.1162 131.522 50.1816 131.278 48.2336 131.229C47.9401 131.212 47.6462 131.216 47.3522 131.221C47.1591 131.224 46.9661 131.227 46.7731 131.224L46.0422 131.225C45.7985 131.227 45.5556 131.252 45.3123 131.265C44.8257 131.296 44.3389 131.326 43.851 131.349L42.3952 131.514C41.4181 131.592 40.4663 131.83 39.4954 131.974L39.1322 132.035L38.7743 132.12L38.058 132.29C37.5806 132.406 37.0998 132.512 36.6184 132.619L36.5804 132.628C36.2725 132.696 35.9673 132.503 35.8985 132.195C35.834 131.907 36.0028 131.619 36.2776 131.528C36.7586 131.37 37.2402 131.211 37.7252 131.06L38.4523 130.832L38.8163 130.718L39.1866 130.628C39.68 130.505 40.176 130.391 40.6728 130.279C40.9218 130.227 41.1676 130.157 41.4196 130.119L42.1743 129.998L43.686 129.76C44.1937 129.709 44.7026 129.665 45.2117 129.623C45.4663 129.603 45.7204 129.573 45.9758 129.564L46.7422 129.546C47.2532 129.538 47.7649 129.507 48.276 129.533L49.8098 129.595C50.3205 129.627 50.8294 129.689 51.3386 129.742C51.8491 129.784 52.3527 129.884 52.8591 129.96C53.3658 130.035 53.8657 130.15 54.3657 130.262C56.3691 130.727 58.3026 131.368 60.1467 132.407C60.4216 132.561 60.5189 132.91 60.3642 133.184C60.2216 133.437 59.9147 133.541 59.6524 133.433L59.6125 133.417Z" fill="#000072"/>
<path d="M61.8837 140.819C61.0509 140.834 60.1723 140.883 59.3196 140.961C58.4618 141.038 57.6073 141.137 56.7588 141.266C55.0638 141.53 53.3853 141.884 51.7681 142.418C50.9593 142.684 50.1626 142.983 49.392 143.337C49.002 143.505 48.629 143.704 48.2472 143.888C47.8787 144.095 47.4999 144.288 47.1448 144.518C45.6903 145.386 44.3737 146.468 43.1964 147.704L43.1884 147.712C42.9703 147.941 42.6081 147.95 42.3793 147.731C42.1663 147.529 42.1458 147.199 42.3196 146.97C43.4291 145.521 44.7818 144.236 46.3097 143.217C47.0709 142.703 47.8658 142.239 48.6937 141.847C49.5175 141.446 50.3639 141.094 51.2309 140.808C52.9592 140.22 54.7463 139.827 56.5487 139.637C58.3572 139.448 60.153 139.426 61.9842 139.679C62.2972 139.723 62.5153 140.012 62.4723 140.324C62.4332 140.607 62.1933 140.813 61.9161 140.818L61.8837 140.819Z" fill="#000072"/>
<path d="M143.637 121.743C145.162 120.274 146.872 119.167 148.695 118.214C149.15 117.979 149.605 117.742 150.076 117.542C150.548 117.342 151.009 117.117 151.493 116.949C151.973 116.769 152.45 116.582 152.936 116.424L154.405 115.977C154.893 115.823 155.396 115.726 155.892 115.604L156.64 115.429C156.889 115.373 157.143 115.34 157.393 115.293C157.897 115.206 158.4 115.121 158.905 115.043L160.428 114.894L161.189 114.821C161.442 114.794 161.698 114.8 161.952 114.788C162.46 114.772 162.97 114.758 163.478 114.752L163.859 114.746L164.24 114.766L165.001 114.804C165.509 114.827 166.014 114.86 166.52 114.893C166.834 114.912 167.074 115.184 167.054 115.498C167.035 115.794 166.795 116.022 166.506 116.033L166.464 116.035C165.971 116.051 165.48 116.069 164.988 116.078L164.252 116.092L163.884 116.1L163.517 116.133C162.541 116.237 161.56 116.246 160.595 116.416L159.145 116.623C158.667 116.722 158.187 116.817 157.709 116.908C157.47 116.957 157.229 116.994 156.993 117.053L156.285 117.236C155.815 117.366 155.336 117.458 154.872 117.609C153 118.145 151.189 118.868 149.425 119.685C148.54 120.089 147.685 120.553 146.836 121.027C146.623 121.145 146.422 121.279 146.21 121.399C145.999 121.52 145.793 121.647 145.59 121.781C145.385 121.911 145.181 122.042 144.986 122.181C144.789 122.315 144.583 122.457 144.409 122.586L144.374 122.612C144.121 122.799 143.764 122.747 143.575 122.494C143.402 122.26 143.435 121.938 143.637 121.743Z" fill="#000072"/>
<path d="M143.688 129.243C145.397 128.537 147.14 128.107 148.938 127.835C150.731 127.566 152.559 127.497 154.379 127.632C155.291 127.692 156.199 127.819 157.097 128C157.997 128.172 158.883 128.422 159.749 128.727C161.484 129.33 163.115 130.232 164.553 131.357C164.802 131.551 164.847 131.911 164.652 132.16C164.472 132.391 164.147 132.446 163.902 132.295L163.889 132.287C162.439 131.387 160.893 130.671 159.267 130.196C158.866 130.063 158.45 129.972 158.042 129.864C157.626 129.782 157.215 129.682 156.795 129.617C155.96 129.469 155.115 129.38 154.265 129.326C152.565 129.216 150.851 129.295 149.144 129.465C148.29 129.554 147.439 129.673 146.588 129.813C145.745 129.952 144.881 130.125 144.071 130.32L144.04 130.327C143.733 130.402 143.425 130.213 143.35 129.905C143.283 129.627 143.432 129.348 143.688 129.243Z" fill="#000072"/>
<path d="M85.0942 187.726C66.3138 188.657 75.0871 166.644 75.2213 166.306L75.2239 166.304C75.2239 166.304 74.3353 166.164 73.0887 165.658C70.7273 164.697 67.0822 162.43 65.7627 157.322C63.9523 150.324 71.5647 145.799 76.7243 154.672C76.7243 154.672 91.4485 149.261 93.8272 161.49C94.1878 163.334 94.5387 165.298 94.8072 167.29C95.0284 168.905 95.1965 170.535 95.2739 172.135C95.6626 180.088 93.8272 187.291 85.0942 187.726Z" fill="#8E8FB3"/>
<path d="M83.9617 187.754C75.2324 187.754 73.0561 182.371 73.0574 176.998C73.0592 171.729 75.1561 166.47 75.2211 166.306L75.2236 166.304C75.2236 166.304 76.7617 166.673 79.6892 166.717C80.143 166.741 80.5536 166.75 80.9211 166.75C81.9424 166.75 82.6242 166.678 82.9324 166.637C82.9855 166.634 83.0392 166.63 83.093 166.627C82.6455 166.961 76.7474 171.564 79.4261 178.509C80.2911 180.753 82.7405 182.019 85.4686 182.019C89.6349 182.019 94.4511 179.068 95.2736 172.135C95.3049 172.772 95.3217 173.404 95.3217 174.028C95.3217 174.369 95.3174 174.707 95.3067 175.043C95.273 176.154 95.1805 177.235 95.0149 178.266C94.178 183.469 91.4811 187.408 85.0942 187.726C84.7061 187.745 84.3274 187.754 83.9617 187.754ZM75.2236 166.304C75.2236 166.304 74.3349 166.164 73.0886 165.658C73.0899 165.658 73.0911 165.658 73.0924 165.659C74.3367 166.163 75.2236 166.304 75.2236 166.304Z" fill="#797AA9"/>
<path d="M94.8082 167.29C92.7641 166.446 89.952 165.837 86.3787 166.304C79.1436 167.244 75.2243 166.304 75.2243 166.304C75.2243 166.304 67.7807 165.125 65.7629 157.321C65.388 155.872 65.4169 154.529 65.7485 153.388C67.0001 149.023 72.635 147.637 76.7245 154.671C76.7245 154.671 89.5576 149.955 93.1962 159.277C93.4562 159.94 93.6703 160.675 93.8279 161.489C94.1878 163.333 94.5394 165.297 94.8082 167.29Z" fill="white"/>
<path d="M93.1955 159.278C90.1824 156.387 86.0174 155.46 83.0455 155.46C81.4324 155.46 80.1705 155.733 79.6349 156.113C78.923 156.619 79.7693 157.536 79.3518 158.074C79.3255 158.108 79.2855 158.123 79.2337 158.123C78.7199 158.123 77.0255 156.626 75.9268 156.55C75.8643 156.546 75.8018 156.544 75.7393 156.544C75.2187 156.544 74.7312 156.693 74.3168 156.841C73.903 156.989 73.5618 157.138 73.3349 157.138C73.1924 157.138 73.0949 157.08 73.0512 156.928C72.8224 156.119 74.5405 152.917 70.8074 151.708C70.5443 151.623 70.2668 151.583 69.9799 151.583C68.618 151.583 67.0393 152.461 65.748 153.389C66.3768 151.197 68.1112 149.756 70.1999 149.756C72.2705 149.756 74.688 151.17 76.7243 154.672C76.7243 154.672 79.9712 153.479 83.6605 153.479C87.3074 153.479 91.3868 154.644 93.1955 159.278Z" fill="#D9D9EA"/>
<path d="M70.2029 150.901C69.7587 150.901 69.3476 150.986 68.9809 151.137C67.3466 151.808 66.0983 154.05 66.8704 157.036C68.6681 163.987 75.131 165.129 75.4057 165.174C75.7479 165.231 76.0483 165.441 76.2178 165.743C76.388 166.045 76.413 166.41 76.2829 166.732C76.2385 166.841 71.9017 177.76 75.8612 183.326C77.5543 185.705 80.6403 186.802 85.0378 186.582C88.0599 186.432 90.258 185.429 91.7572 183.514C95.4439 178.807 94.2006 169.388 92.7064 161.707C92.1646 158.922 90.875 156.938 88.8746 155.808C84.2444 153.193 77.1883 155.72 77.1176 155.746C76.597 155.936 76.0145 155.726 75.7354 155.248C73.8664 152.032 71.8197 150.901 70.2029 150.901ZM83.9622 188.896C79.3501 188.897 76.0013 187.47 73.9953 184.648C70.1429 179.228 72.6075 170.353 73.7144 167.102C71.3004 166.348 66.3204 164.043 64.6567 157.609C63.6856 153.854 65.1385 150.243 68.1112 149.022C70.5733 148.01 74.1962 148.655 77.2271 153.308C79.4796 152.641 85.4695 151.264 89.9915 153.813C92.6057 155.286 94.2744 157.795 94.9508 161.27C96.6371 169.935 97.7903 179.521 93.5574 184.924C91.6527 187.358 88.8239 188.684 85.1504 188.866C84.7456 188.886 84.3489 188.896 83.9622 188.896Z" fill="#000072"/>
<path d="M75.483 165.19C75.7473 165.271 76.0967 165.355 76.4148 165.425C76.7423 165.495 77.0736 165.561 77.408 165.616C78.0767 165.729 78.7536 165.818 79.4355 165.883C80.1173 165.941 80.8036 165.991 81.4923 166.003C82.1811 166.023 82.8711 166.01 83.5636 165.986H83.5754C83.8917 165.976 84.1561 166.223 84.1667 166.54C84.1767 166.829 83.9692 167.076 83.6911 167.123C82.9836 167.243 82.2723 167.355 81.5555 167.43C80.8392 167.516 80.118 167.561 79.3936 167.597C78.6692 167.626 77.9417 167.63 77.2105 167.607C76.8448 167.596 76.478 167.575 76.1086 167.546C75.7317 167.515 75.3861 167.485 74.9636 167.417C74.338 167.317 73.9123 166.73 74.0117 166.105C74.1117 165.479 74.6992 165.053 75.3248 165.153C75.3767 165.161 75.4336 165.175 75.483 165.19Z" fill="#000072"/>
<path d="M182.915 176.065C182.88 176.633 182.816 177.146 182.721 177.677C182.631 178.204 182.511 178.725 182.372 179.244C182.089 180.278 181.702 181.293 181.202 182.267C180.717 183.248 180.061 184.159 179.31 184.993L178.721 185.602C178.509 185.788 178.288 185.967 178.07 186.15L177.739 186.421L177.382 186.656L176.662 187.124C176.131 187.469 175.422 187.318 175.077 186.787C174.733 186.257 174.883 185.547 175.414 185.202C175.442 185.184 175.471 185.167 175.5 185.152L175.611 185.093L176.214 184.774L176.518 184.616L176.801 184.421L177.37 184.031L177.896 183.577C178.577 182.948 179.21 182.234 179.714 181.414C180.229 180.604 180.665 179.726 181.011 178.807C181.182 178.346 181.337 177.877 181.465 177.401C181.598 176.931 181.703 176.43 181.775 175.977L181.779 175.942C181.829 175.631 182.121 175.417 182.432 175.466C182.725 175.512 182.931 175.776 182.915 176.065Z" fill="#000072"/>
<path d="M174.054 166.275C174.035 166.285 174.018 166.297 174.001 166.31C173.983 166.325 173.967 166.34 173.972 166.333L173.965 166.332C173.966 166.325 173.972 166.313 173.974 166.303L174.008 166.226L174.091 166.063C174.148 165.953 174.214 165.846 174.281 165.736C174.422 165.522 174.576 165.31 174.769 165.106C174.963 164.899 175.184 164.703 175.536 164.518C175.717 164.436 175.953 164.348 176.277 164.361C176.435 164.367 176.616 164.407 176.773 164.482C176.857 164.517 176.922 164.563 176.993 164.61C177.055 164.65 177.186 164.776 177.239 164.855C177.27 164.897 177.298 164.941 177.324 164.986C177.349 165.029 177.362 165.062 177.381 165.102C177.418 165.183 177.433 165.241 177.453 165.306C177.485 165.43 177.498 165.532 177.506 165.626C177.52 165.812 177.515 165.966 177.498 166.113C177.466 166.403 177.417 166.66 177.344 166.908C177.203 167.404 177.02 167.853 176.758 168.297C176.592 168.576 176.232 168.668 175.953 168.503C175.766 168.392 175.662 168.192 175.665 167.988L175.666 167.956C175.674 167.501 175.724 167.04 175.758 166.613C175.77 166.4 175.792 166.192 175.786 166.013C175.783 165.927 175.781 165.845 175.772 165.797C175.774 165.752 175.729 165.735 175.834 165.903C175.853 165.937 175.943 166.019 175.956 166.025C175.977 166.042 175.999 166.048 176.025 166.064C176.077 166.088 176.14 166.1 176.182 166.101C176.272 166.1 176.275 166.08 176.244 166.094C176.169 166.107 176.016 166.205 175.861 166.311C175.707 166.423 175.539 166.553 175.37 166.692L174.687 167.227C174.425 167.402 174.07 167.331 173.896 167.068C173.719 166.805 173.791 166.45 174.054 166.275Z" fill="#000072"/>
<path d="M142.449 170.294C142.546 171.045 142.56 171.745 142.515 172.481C142.464 173.211 142.351 173.951 142.109 174.687C141.873 175.421 141.498 176.157 140.934 176.797C140.649 177.115 140.316 177.399 139.953 177.642C139.588 177.884 139.188 178.064 138.781 178.211L138.772 178.215C138.176 178.431 137.517 178.123 137.301 177.528C137.085 176.932 137.393 176.274 137.989 176.058C138.046 176.037 138.109 176.021 138.166 176.009C138.662 175.914 139.116 175.716 139.517 175.385C139.912 175.051 140.255 174.593 140.514 174.055C140.78 173.522 140.966 172.918 141.098 172.295C141.227 171.678 141.302 171.006 141.311 170.393V170.359C141.315 170.044 141.575 169.791 141.89 169.795C142.179 169.799 142.414 170.016 142.449 170.294Z" fill="#000072"/>
<path d="M133.767 169.384C133.713 170.038 133.718 170.749 133.775 171.419C133.833 172.096 133.946 172.759 134.135 173.374C134.323 173.987 134.592 174.552 134.943 174.989C135.12 175.206 135.312 175.395 135.521 175.547C135.732 175.696 135.958 175.811 136.195 175.901C136.787 176.126 137.085 176.788 136.859 177.379C136.635 177.971 135.973 178.269 135.381 178.044C135.335 178.026 135.29 178.006 135.248 177.983L135.236 177.976C134.827 177.755 134.445 177.481 134.111 177.163C133.78 176.841 133.505 176.478 133.28 176.101C132.832 175.343 132.594 174.538 132.463 173.756C132.334 172.971 132.31 172.198 132.346 171.44C132.385 170.676 132.474 169.95 132.641 169.186C132.708 168.877 133.013 168.682 133.321 168.749C133.605 168.811 133.793 169.073 133.77 169.354L133.767 169.384Z" fill="#000072"/>
<path d="M188.582 183.789C189.105 183.933 189.712 184.029 190.276 184.063C190.847 184.098 191.412 184.069 191.943 183.973C192.471 183.868 192.954 183.679 193.371 183.43C193.792 183.181 194.106 182.821 194.391 182.453L194.432 182.398C194.819 181.896 195.539 181.803 196.042 182.189C196.544 182.576 196.638 183.296 196.251 183.799C196.219 183.839 196.182 183.881 196.147 183.916C195.596 184.46 194.968 184.94 194.258 185.224C193.555 185.508 192.825 185.652 192.118 185.679C191.411 185.697 190.727 185.62 190.071 185.477C189.407 185.328 188.797 185.139 188.157 184.85C187.869 184.72 187.741 184.381 187.871 184.094C187.988 183.833 188.278 183.704 188.544 183.778L188.582 183.789Z" fill="#000072"/>
<path d="M189.918 175.729C190.513 175.541 191.072 175.421 191.675 175.339C192.271 175.262 192.887 175.231 193.524 175.294C194.158 175.354 194.826 175.515 195.466 175.852C195.784 176.023 196.09 176.239 196.368 176.498C196.642 176.761 196.879 177.063 197.079 177.385L197.093 177.411C197.427 177.95 197.26 178.659 196.72 178.992C196.181 179.326 195.472 179.159 195.138 178.619C195.103 178.561 195.072 178.496 195.046 178.435C194.981 178.268 194.902 178.107 194.799 177.959C194.692 177.814 194.564 177.678 194.41 177.552C194.1 177.306 193.691 177.109 193.229 176.984C192.769 176.854 192.264 176.788 191.749 176.767C191.239 176.746 190.689 176.771 190.201 176.837L190.166 176.841C189.852 176.884 189.565 176.664 189.523 176.351C189.485 176.071 189.656 175.811 189.918 175.729Z" fill="#000072"/>
<path d="M165.553 180.518C161.355 180.518 158.369 177.16 157.674 173.721C157.305 171.896 157.697 171.186 158.452 171.186C159.339 171.186 160.727 172.166 161.972 173.471C165.291 176.952 173.123 178.282 168.671 179.931C167.575 180.336 166.532 180.519 165.553 180.518Z" fill="#C7C7D9"/>
<path d="M153.301 150.088C153.02 150.088 152.854 149.881 152.931 149.42C153.604 145.418 152.475 142.325 152.696 142.325C152.917 142.325 155.252 143.535 155.554 146.208C155.807 148.439 154.095 150.088 153.301 150.088Z" fill="#C7C7D9"/>
<path d="M74.3605 112.674C72.0643 112.674 69.6705 112.84 67.2737 113.176C65.4618 113.43 63.7949 113.864 62.3192 114.462C60.5263 115.189 59.2336 116.805 58.9449 118.677L58.9324 118.772C58.9239 118.838 58.9098 118.93 58.8906 119.052C58.2131 123.369 57.9265 131.299 63.6193 135.895C65.9155 137.748 69.6086 138.334 74.5955 137.634C77.1899 137.27 80.0643 136.559 83.1386 135.519C87.2826 134.117 89.8484 129.939 89.2369 125.584L88.2918 118.845C87.9574 116.465 86.2494 114.503 83.9393 113.846C81.2105 113.069 77.9012 112.674 74.3605 112.674ZM70.8268 139.633C67.3011 139.633 64.5236 138.829 62.5424 137.23C56.1788 132.093 56.4614 123.469 57.1962 118.787C57.2118 118.686 57.224 118.61 57.2302 118.563C57.2344 118.527 57.241 118.476 57.2484 118.426C57.6299 115.95 59.3252 113.826 61.6744 112.873C63.2805 112.221 65.0843 111.751 67.0355 111.477C73.3555 110.591 79.688 110.852 84.4086 112.196C87.3715 113.039 89.5619 115.555 89.9895 118.606L90.9354 125.346C91.6607 130.517 88.6125 135.479 83.6874 137.144C80.5131 138.217 77.5336 138.954 74.8337 139.333C73.4061 139.534 72.0698 139.633 70.8268 139.633Z" fill="#3A3A3A"/>
<path d="M147.816 116.92C147.895 120.473 147.162 124.362 144.694 127.87C140.148 134.333 129.845 135.321 121.628 134.934C115.948 134.665 111.119 130.994 109.202 125.841C108.853 124.901 108.599 123.914 108.455 122.889L107.357 115.055C106.766 114.788 106.163 114.568 105.553 114.39C103.684 113.847 101.741 113.716 99.8577 113.98C97.9722 114.245 96.141 114.906 94.4931 115.942C93.956 116.28 93.4368 116.658 92.943 117.077L94.0421 124.91C94.1853 125.937 94.2133 126.955 94.1357 127.955C93.7108 133.437 90.0792 138.295 84.6917 140.115C76.8998 142.749 66.7218 144.634 60.5726 139.67C57.234 136.975 55.4597 133.441 54.558 130.004C53.2956 125.173 53.7563 120.537 54.0264 118.697L54.0261 118.695C54.1047 118.16 54.1677 117.864 54.1677 117.864C54.1677 117.864 50.2795 114.499 54.0727 112.112C60.4828 108.081 82.1923 104.703 92.3124 112.585C96.3244 109.187 101.933 108.401 106.726 110.563C114.287 100.202 136.088 97.4739 143.359 99.5858C147.666 100.837 144.851 105.142 144.851 105.142C144.851 105.142 144.993 105.41 145.216 105.901V105.903C145.982 107.599 147.703 111.929 147.816 116.92Z" fill="#68D8FF"/>
<path d="M54.5581 130.004L94.1358 127.955C93.7113 133.437 90.0792 138.295 84.6919 140.115C76.8998 142.749 66.7217 144.635 60.5727 139.671C57.234 136.976 55.4597 133.441 54.5581 130.004Z" fill="#4CA9FC"/>
<path d="M147.817 116.92C147.896 120.473 147.163 124.361 144.695 127.869C140.148 134.333 129.844 135.321 121.628 134.933C115.948 134.665 111.12 130.994 109.202 125.84L147.817 116.92Z" fill="#4CA9FC"/>
<path d="M144.851 105.142C144.851 105.142 144.993 105.41 145.216 105.901V105.903L114.789 112.413C110.416 113.35 105.956 113.764 101.484 113.851C100.939 113.862 100.396 113.906 99.8577 113.98C99.3187 114.056 98.7844 114.165 98.2576 114.304C93.9345 115.45 89.5324 116.279 85.0692 116.583L54.0264 118.697L54.0261 118.695C54.1047 118.16 54.1677 117.864 54.1677 117.864C54.1677 117.864 50.2795 114.499 54.0727 112.112C60.4828 108.081 82.1923 104.703 92.3124 112.585C96.3244 109.187 101.933 108.401 106.726 110.563C114.287 100.202 136.088 97.4739 143.359 99.5859C147.666 100.837 144.851 105.142 144.851 105.142Z" fill="#69F1FF"/>
<path d="M90.0866 125.464C90.7543 130.227 87.9493 134.797 83.4133 136.331C80.2846 137.389 77.359 138.112 74.7145 138.483C69.4833 139.218 65.5689 138.57 63.0814 136.561C55.7491 130.643 57.959 119.629 58.0809 118.671C58.0855 118.633 58.0915 118.59 58.0976 118.546C58.4364 116.346 59.9362 114.503 61.997 113.667C63.2871 113.144 64.9933 112.63 67.1552 112.326C72.4552 111.583 78.9527 111.535 84.1746 113.02C86.8127 113.771 88.7597 116.007 89.1411 118.725L90.0866 125.464Z" fill="#68D8FF"/>
<path d="M134.116 104.013C133.103 104.013 132.048 104.09 130.962 104.242C124.869 105.097 119.096 107.003 115.123 109.471C113.084 110.739 111.981 113.096 112.315 115.474L113.26 122.214C113.871 126.57 117.487 129.881 121.858 130.087C125.098 130.241 128.058 130.135 130.652 129.77C135.638 129.071 139.028 127.493 140.725 125.078C144.934 119.094 142.476 111.549 140.637 107.584C140.586 107.472 140.546 107.388 140.523 107.334L140.48 107.234C139.69 105.518 138.003 104.321 136.08 104.115C135.446 104.047 134.791 104.013 134.116 104.013ZM124.654 131.871C123.719 131.871 122.76 131.847 121.776 131.801C116.583 131.555 112.287 127.623 111.561 122.453L110.616 115.713C110.188 112.662 111.602 109.641 114.218 108.015C118.387 105.424 124.402 103.431 130.723 102.543C132.674 102.27 134.537 102.224 136.263 102.41C138.782 102.679 140.996 104.255 142.041 106.521C142.069 106.584 142.087 106.628 142.104 106.668C142.118 106.702 142.151 106.771 142.193 106.863C144.189 111.163 146.833 119.375 142.129 126.065C140.146 128.882 136.366 130.701 130.891 131.469C128.984 131.737 126.895 131.871 124.654 131.871ZM74.3604 112.674C72.0642 112.674 69.6704 112.841 67.2736 113.176C65.4617 113.431 63.7948 113.864 62.3191 114.463C60.5262 115.19 59.2332 116.804 58.9448 118.678L58.9323 118.772C58.9238 118.838 58.9098 118.931 58.8905 119.052C58.213 123.37 57.9265 131.299 63.6192 135.895C65.9155 137.749 69.6085 138.334 74.5954 137.635C77.1898 137.271 80.0642 136.559 83.1385 135.519C87.2829 134.118 89.8479 129.94 89.2366 125.585L88.2916 118.845C87.9572 116.465 86.2492 114.503 83.9391 113.846C81.2104 113.07 77.901 112.674 74.3604 112.674ZM70.8267 139.634C67.3011 139.634 64.5236 138.829 62.5423 137.23C56.1787 132.093 56.4613 123.469 57.1962 118.787C57.2118 118.686 57.224 118.611 57.2301 118.563C57.2344 118.527 57.241 118.476 57.2484 118.427C57.6298 115.95 59.3251 113.826 61.6744 112.873C63.2805 112.222 65.0842 111.752 67.0354 111.478C73.356 110.592 79.6879 110.853 84.4085 112.196C87.371 113.04 89.5616 115.556 89.9897 118.606L90.9354 125.346C91.661 130.518 88.6122 135.479 83.6873 137.145C80.5129 138.218 77.5335 138.954 74.8336 139.333C73.406 139.534 72.0698 139.634 70.8267 139.634ZM74.4723 108.692C66.1673 108.692 57.9302 110.698 54.5292 112.838C53.7327 113.339 53.3216 113.881 53.2735 114.496C53.1862 115.607 54.2955 116.836 54.7305 117.218C54.9636 117.421 55.0704 117.737 55.0072 118.039C54.9785 118.176 52.2487 131.85 61.1113 139.004C67.0123 143.767 77.0422 141.796 84.4167 139.303C90.3791 137.288 94.0694 131.285 93.1922 125.029L92.0935 117.196C92.0523 116.904 92.1641 116.613 92.3885 116.422C94.4837 114.65 97.0243 113.513 99.738 113.131C102.449 112.752 105.207 113.146 107.709 114.273C107.977 114.394 108.165 114.644 108.205 114.935L109.305 122.769C110.182 129.025 115.381 133.78 121.668 134.077C129.446 134.445 139.63 133.58 143.993 127.377C150.546 118.06 144.158 105.667 144.092 105.541C143.947 105.267 143.962 104.935 144.132 104.674C144.446 104.19 145.174 102.701 144.784 101.658C144.569 101.081 144.025 100.672 143.12 100.409C136.248 98.413 114.733 101.044 107.419 111.069C107.179 111.397 106.743 111.512 106.373 111.344C101.907 109.329 96.6054 110.073 92.8666 113.24C92.5566 113.503 92.1054 113.511 91.7854 113.261C87.4916 109.918 80.961 108.692 74.4723 108.692ZM70.8486 143.614C66.8261 143.614 63.0004 142.733 60.034 140.339C51.2082 133.213 52.7935 120.77 53.2405 118.157C52.6177 117.506 51.4366 116.035 51.5631 114.369C51.6527 113.19 52.3433 112.187 53.6159 111.386C57.2044 109.129 64.4961 107.377 71.7598 107.025C76.816 106.781 86.0735 107.055 92.2917 111.501C96.3127 108.414 101.732 107.653 106.447 109.514C111.203 103.53 120.027 100.718 124.956 99.5622C132.036 97.9015 139.528 97.5798 143.599 98.7627C145.043 99.1826 145.984 99.9578 146.394 101.066C146.974 102.632 146.243 104.371 145.823 105.17C146.972 107.558 151.922 119.085 145.395 128.363C140.585 135.203 129.794 136.176 121.587 135.79C114.479 135.455 108.598 130.079 107.606 123.008L106.574 115.652C104.485 114.801 102.213 114.516 99.9755 114.83C97.7388 115.145 95.6339 116.042 93.8591 117.436L94.8914 124.792C95.8826 131.863 91.7091 138.649 84.966 140.927C80.7317 142.359 75.6505 143.614 70.8486 143.614Z" fill="#000072"/>
<path d="M89.1401 118.726L90.0859 125.466C90.7544 130.228 87.9491 134.798 83.4129 136.331C80.7479 137.232 78.231 137.891 75.9097 138.296C75.5048 138.366 75.106 138.428 74.7142 138.484C71.3123 138.961 68.466 138.854 66.2079 138.169C64.9948 137.801 63.9498 137.265 63.081 136.562C63.0355 136.526 62.9923 136.49 62.9486 136.452C60.5527 134.469 59.2008 131.934 58.4664 129.401C57.0035 124.349 58.0001 119.307 58.0805 118.672C58.0851 118.633 58.0911 118.59 58.0972 118.547C58.436 116.347 59.9359 114.504 61.9966 113.668C63.2867 113.144 64.9929 112.631 67.1548 112.327C68.5866 112.127 70.106 111.976 71.666 111.894C74.7942 111.727 78.0804 111.833 81.126 112.341C82.1754 112.519 83.1972 112.743 84.1741 113.021C84.4429 113.098 84.706 113.191 84.9588 113.298C87.1932 114.233 88.7982 116.284 89.1401 118.726Z" fill="#000072"/>
<path d="M62.9486 136.452C60.5528 134.469 59.2009 131.934 58.4666 129.401L71.6661 111.894C72.5618 111.846 73.4705 111.821 74.3823 111.821C76.6568 111.821 78.9524 111.979 81.1261 112.342L62.9486 136.452Z" fill="#4D4D9D"/>
<path d="M70.8189 138.777C69.0813 138.777 67.5426 138.573 66.2083 138.168L84.959 113.298C87.1941 114.232 88.7984 116.285 89.1406 118.725L89.3805 120.43L75.9101 138.295C75.5051 138.367 75.1064 138.428 74.7145 138.483C73.3226 138.678 72.0232 138.777 70.8189 138.777Z" fill="#4D4D9D"/>
<path d="M74.3605 112.674C72.0643 112.674 69.6704 112.84 67.2736 113.176C65.4618 113.43 63.7948 113.864 62.3192 114.462C60.5263 115.189 59.2335 116.805 58.9449 118.677L58.9324 118.772C58.9238 118.838 58.9098 118.93 58.8906 119.052C58.213 123.369 57.9265 131.299 63.6199 135.895C65.9155 137.748 69.6086 138.334 74.5955 137.634C77.1899 137.27 80.0643 136.559 83.138 135.519C87.2826 134.117 89.8484 129.939 89.2368 125.584L88.2918 118.845C87.9574 116.465 86.2494 114.503 83.9392 113.846C81.2105 113.069 77.9011 112.674 74.3605 112.674ZM70.8268 139.633C67.3011 139.633 64.5236 138.829 62.5424 137.23C56.1788 132.093 56.4613 123.469 57.1963 118.787C57.2118 118.686 57.224 118.61 57.2301 118.563C57.2343 118.527 57.241 118.476 57.2484 118.426C57.6299 115.95 59.3251 113.826 61.6744 112.873C63.2805 112.221 65.0842 111.751 67.0354 111.477C73.3555 110.591 79.6873 110.852 84.4086 112.196C87.3715 113.039 89.5618 115.555 89.9895 118.606L90.9354 125.346C91.6607 130.517 88.6125 135.479 83.6874 137.144C80.513 138.217 77.5336 138.954 74.8336 139.333C73.4061 139.534 72.0698 139.633 70.8268 139.633Z" fill="#000072"/>
<path d="M111.514 115.586L112.46 122.327C113.129 127.089 117.083 130.711 121.865 130.937C124.675 131.07 127.277 131.011 129.619 130.761C130.029 130.718 130.429 130.668 130.821 130.613C134.222 130.136 136.929 129.25 138.912 127.969C139.977 127.281 140.835 126.479 141.476 125.565C141.51 125.517 141.542 125.47 141.573 125.422C143.33 122.857 143.933 120.047 143.941 117.41C143.958 112.151 141.612 107.577 141.361 106.99C141.346 106.954 141.328 106.913 141.31 106.873C140.379 104.852 138.43 103.492 136.219 103.255C134.835 103.107 133.053 103.083 130.891 103.386C129.46 103.587 127.957 103.86 126.435 104.211C123.381 104.911 120.251 105.918 117.463 107.245C116.503 107.703 115.583 108.2 114.72 108.736C114.482 108.884 114.255 109.046 114.042 109.219C112.15 110.732 111.172 113.147 111.514 115.586Z" fill="#000072"/>
<path d="M141.574 125.421L117.464 107.244C120.252 105.916 123.382 104.91 126.436 104.21L143.942 117.41C143.934 120.046 143.331 122.856 141.574 125.421Z" fill="#4D4D9D"/>
<path d="M129.62 130.76L111.754 117.291L111.515 115.586C111.469 115.262 111.448 114.938 111.448 114.618C111.449 112.52 112.402 110.531 114.042 109.218L138.913 127.969C136.93 129.25 134.222 130.135 130.821 130.613C130.43 130.667 130.03 130.717 129.62 130.76Z" fill="#4D4D9D"/>
<path d="M112.365 115.467L113.31 122.207C113.921 126.562 117.536 129.872 121.907 130.08C125.149 130.233 128.108 130.127 130.702 129.763C135.689 129.064 139.078 127.484 140.775 125.07C144.984 119.086 142.526 111.542 140.687 107.576C140.636 107.465 140.597 107.38 140.573 107.327L140.528 107.221C139.74 105.51 138.052 104.313 136.129 104.107C134.545 103.937 132.823 103.98 131.011 104.234C124.919 105.089 119.146 106.995 115.174 109.464C113.134 110.731 112.031 113.088 112.365 115.467ZM124.702 131.863C123.768 131.863 122.809 131.84 121.826 131.794C116.632 131.547 112.337 127.616 111.611 122.445L110.666 115.705C110.238 112.654 111.652 109.633 114.269 108.007C118.437 105.417 124.453 103.423 130.772 102.536C132.724 102.262 134.588 102.217 136.312 102.402C138.831 102.671 141.045 104.247 142.09 106.514C142.116 106.572 142.136 106.619 142.154 106.662C142.168 106.694 142.201 106.763 142.243 106.856C144.239 111.155 146.882 119.368 142.179 126.057C140.197 128.874 136.416 130.694 130.94 131.462C129.034 131.729 126.944 131.863 124.702 131.863Z" fill="#3A3A3A"/>
<path d="M134.116 104.012C133.104 104.012 132.049 104.089 130.962 104.242C124.869 105.096 119.097 107.002 115.124 109.471C113.084 110.739 111.98 113.095 112.315 115.473L113.26 122.214C113.871 126.569 117.487 129.88 121.858 130.087C125.098 130.241 128.057 130.134 130.653 129.77C135.639 129.071 139.028 127.492 140.726 125.078C144.934 119.093 142.477 111.549 140.638 107.584C140.586 107.472 140.547 107.387 140.524 107.334L140.48 107.233C139.69 105.517 138.003 104.32 136.08 104.115C135.447 104.047 134.791 104.012 134.116 104.012ZM124.654 131.87C123.72 131.87 122.761 131.847 121.776 131.8C116.583 131.555 112.288 127.623 111.561 122.452L110.616 115.713C110.188 112.662 111.601 109.64 114.219 108.015C118.386 105.424 124.403 103.43 130.723 102.543C132.673 102.27 134.538 102.224 136.263 102.409C138.782 102.679 140.996 104.254 142.04 106.521C142.069 106.583 142.088 106.628 142.104 106.668C142.118 106.701 142.151 106.77 142.194 106.862C144.189 111.162 146.833 119.375 142.128 126.064C140.147 128.882 136.366 130.701 130.89 131.468C128.985 131.736 126.896 131.87 124.654 131.87Z" fill="#000072"/>
<path d="M60.4212 160.765L57.0579 161.017C55.6499 161.123 54.5309 162.241 54.4254 163.65L54.1731 167.013L53.9209 163.65C53.8154 162.241 52.6964 161.123 51.2884 161.017L47.925 160.765L51.2884 160.513C52.6964 160.407 53.8154 159.288 53.9209 157.88L54.1731 154.516L54.4254 157.88C54.5309 159.288 55.6499 160.407 57.0579 160.513L60.4212 160.765Z" fill="#000072"/>
<path d="M163.216 87.9415L159.362 88.2312C157.75 88.3516 156.468 89.6337 156.348 91.2459L156.059 95.0984L155.769 91.2459C155.649 89.6337 154.367 88.3516 152.755 88.2312L148.902 87.9415L152.755 87.6529C154.367 87.5325 155.649 86.2504 155.769 84.6382L156.059 80.7847L156.348 84.6382C156.468 86.2504 157.75 87.5325 159.362 87.6529L163.216 87.9415Z" fill="#000072"/>
<path d="M49.4112 107.743L47.3348 107.899C46.4655 107.964 45.7747 108.656 45.7094 109.524L45.5537 111.601L45.3981 109.524C45.3329 108.656 44.642 107.964 43.7727 107.899L41.6963 107.743L43.7727 107.588C44.642 107.522 45.3329 106.832 45.3981 105.962L45.5537 103.886L45.7094 105.962C45.7747 106.832 46.4655 107.522 47.3348 107.588L49.4112 107.743Z" fill="#000072"/>
</g>
</svg>
