<svg width="32" height="32" viewBox="0 0 32 32" fill="none" xmlns="http://www.w3.org/2000/svg">
<path d="M22.3444 20.1251H18.8594C18.6107 20.1251 18.3723 20.0263 18.1965 19.8505C18.0207 19.6747 17.9219 19.4362 17.9219 19.1876C17.9219 18.939 18.0207 18.7005 18.1965 18.5247C18.3723 18.3489 18.6107 18.2501 18.8594 18.2501H22.3444C23.4977 18.2363 24.5991 17.7685 25.4098 16.9481C26.2205 16.1276 26.6752 15.0207 26.6752 13.8673C26.6752 12.7139 26.2205 11.6069 25.4098 10.7865C24.5991 9.96606 23.4977 9.49824 22.3444 9.48447C22.2263 9.48447 22.1006 9.49009 21.9606 9.50259C21.7835 9.5177 21.6057 9.48212 21.448 9.40001C21.2903 9.3179 21.1592 9.19264 21.07 9.03884C20.4378 7.9484 19.4852 7.0791 18.3416 6.54916C17.1979 6.01922 15.9189 5.85435 14.6782 6.07696C13.4376 6.29957 12.2957 6.89887 11.4076 7.79336C10.5196 8.68786 9.92861 9.83414 9.71501 11.0763C9.67681 11.3005 9.55845 11.5031 9.38195 11.6465C9.20546 11.7899 8.98287 11.8643 8.75563 11.8557H8.68938C8.26301 11.8453 7.83885 11.9202 7.44187 12.0761C7.0449 12.232 6.68311 12.4658 6.37782 12.7636C6.07252 13.0614 5.82987 13.4173 5.66416 13.8103C5.49845 14.2033 5.41302 14.6254 5.41289 15.0519C5.41277 15.4784 5.49795 15.9007 5.66343 16.2937C5.82892 16.6868 6.07135 17.0429 6.37647 17.3409C6.6816 17.6389 7.04324 17.8728 7.44013 18.029C7.83702 18.1851 8.26113 18.2603 8.68751 18.2501H13.3569C13.6055 18.2501 13.844 18.3489 14.0198 18.5247C14.1956 18.7005 14.2944 18.939 14.2944 19.1876C14.2944 19.4362 14.1956 19.6747 14.0198 19.8505C13.844 20.0263 13.6055 20.1251 13.3569 20.1251H8.68751C7.39995 20.1239 6.16102 19.6332 5.2218 18.7525C4.28257 17.8717 3.71332 16.6669 3.62939 15.3821C3.54546 14.0973 3.95314 12.8286 4.76981 11.8332C5.58648 10.8378 6.75105 10.1901 8.02751 10.0213C8.42817 8.54263 9.24447 7.20983 10.3796 6.18096C11.5147 5.1521 12.9211 4.47031 14.432 4.21646C15.9428 3.9626 17.4948 4.14731 18.9038 4.74869C20.3129 5.35008 21.5199 6.34291 22.3819 7.60947C24.0312 7.63013 25.6056 8.30109 26.7628 9.47642C27.9201 10.6518 28.5665 12.2364 28.5616 13.8859C28.5566 15.5353 27.9007 17.116 26.7365 18.2844C25.5722 19.4528 23.9938 20.1143 22.3444 20.1251Z" fill="black"/>
<path d="M19.12 16.6327C18.9969 16.6328 18.875 16.6085 18.7613 16.5614C18.6476 16.5142 18.5444 16.4449 18.4575 16.3577L16.1088 14.0096L13.7606 16.3577C13.5823 16.5198 13.3483 16.607 13.1073 16.6011C12.8663 16.5953 12.6368 16.4968 12.4666 16.3262C12.2963 16.1556 12.1982 15.926 12.1928 15.685C12.1874 15.444 12.2751 15.2102 12.4375 15.0321L15.4488 12.0208C15.6246 11.8451 15.863 11.7463 16.1116 11.7463C16.3602 11.7463 16.5986 11.8451 16.7744 12.0208L19.7856 15.0321C19.9168 15.1632 20.0062 15.3303 20.0424 15.5122C20.0786 15.6941 20.06 15.8827 19.9891 16.054C19.9181 16.2254 19.7978 16.3718 19.6436 16.4748C19.4893 16.5778 19.308 16.6328 19.1225 16.6327H19.12Z" fill="black"/>
<path d="M16.1088 23.9182C15.8601 23.9182 15.6217 23.8194 15.4459 23.6436C15.27 23.4678 15.1713 23.2294 15.1713 22.9807V12.6838C15.1713 12.4352 15.27 12.1967 15.4459 12.0209C15.6217 11.8451 15.8601 11.7463 16.1088 11.7463C16.3574 11.7463 16.5959 11.8451 16.7717 12.0209C16.9475 12.1967 17.0463 12.4352 17.0463 12.6838V22.9807C17.0463 23.2294 16.9475 23.4678 16.7717 23.6436C16.5959 23.8194 16.3574 23.9182 16.1088 23.9182Z" fill="black"/>
</svg>
