<svg width="128" height="128" viewBox="0 0 128 128" fill="none" xmlns="http://www.w3.org/2000/svg">
<g clip-path="url(#clip0_24_353)">
<path d="M64 128C99.3462 128 128 99.3462 128 64C128 28.6538 99.3462 0 64 0C28.6538 0 0 28.6538 0 64C0 99.3462 28.6538 128 64 128Z" fill="#31AF91"/>
<path d="M54.3 97.2L24.8 67.7C24.4 67.3 24.4 66.7 24.8 66.3L33.3 57.8C33.7 57.4 34.3 57.4 34.7 57.8L55 78.1L93.2 39.9C93.6 39.5 94.2 39.5 94.6 39.9L103.1 48.4C103.5 48.8 103.5 49.4 103.1 49.8L55.7 97.2C55.3 97.6 54.7 97.6 54.3 97.2Z" fill="white"/>
</g>
<defs>
<clipPath id="clip0_24_353">
<rect width="128" height="128" fill="white"/>
</clipPath>
</defs>
</svg>
